sporting_grotesque_normal.ufo
<glyph name="exclam" format="1">
  <advance width="290"/>
  <unicode hex="0021"/>
  <outline>
    <contour>
      <point x="80" y="777" type="line"/>
      <point x="90" y="240" type="line"/>
      <point x="200" y="240" type="line"/>
      <point x="210" y="777" type="line"/>
    </contour>
    <contour>
      <point x="80" y="0" type="line"/>
      <point x="210" y="0" type="line"/>
      <point x="210" y="145" type="line"/>
      <point x="80" y="145" type="line"/>
    </contour>
  </outline>
</glyph>
<glyph name="quotedbl" format="1">
  <advance width="440"/>
  <unicode hex="0022"/>
  <outline>
    <contour>
      <point x="90" y="480" type="line"/>
      <point x="170" y="480" type="line"/>
      <point x="170" y="777" type="line"/>
      <point x="90" y="777" type="line"/>
    </contour>
    <contour>
      <point x="270" y="480" type="line"/>
      <point x="350" y="480" type="line"/>
      <point x="350" y="777" type="line"/>
      <point x="270" y="777" type="line"/>
    </contour>
  </outline>
</glyph>
<glyph name="numbersign" format="1">
  <advance width="624"/>
  <unicode hex="0023"/>
  <outline>
    <contour>
      <point x="58" y="545" type="line"/>
      <point x="58" y="501" type="line"/>
      <point x="197" y="501" type="line"/>
      <point x="146" y="314" type="line"/>
      <point x="0" y="314" type="line"/>
      <point x="0" y="270" type="line"/>
      <point x="134" y="270" type="line"/>
      <point x="62" y="0" type="line"/>
      <point x="107" y="0" type="line"/>
      <point x="179" y="270" type="line"/>
      <point x="366" y="270" type="line"/>
      <point x="293" y="0" type="line"/>
      <point x="338" y="0" type="line"/>
      <point x="410" y="270" type="line"/>
      <point x="566" y="270" type="line"/>
      <point x="566" y="314" type="line"/>
      <point x="422" y="314" type="line"/>
      <point x="473" y="501" type="line"/>
      <point x="624" y="501" type="line"/>
      <point x="624" y="545" type="line"/>
      <point x="484" y="545" type="line"/>
      <point x="551" y="788" type="line"/>
      <point x="506" y="788" type="line"/>
      <point x="439" y="545" type="line"/>
      <point x="253" y="545" type="line"/>
      <point x="319" y="788" type="line"/>
      <point x="275" y="788" type="line"/>
      <point x="208" y="545" type="line"/>
    </contour>
    <contour>
      <point x="241" y="501" type="line"/>
      <point x="428" y="501" type="line"/>
      <point x="377" y="314" type="line"/>
      <point x="191" y="314" type="line"/>
    </contour>
  </outline>
</glyph>
<glyph name="dollar" format="1">
  <advance width="864"/>
  <unicode hex="0024"/>
  <outline>
    <contour>
      <point x="468" y="-223" type="line"/>
      <point x="468" y="-13" type="line"/>
      <point x="474" y="-13"/>
      <point x="480" y="-14"/>
      <point x="487" y="-14" type="curve" smooth="yes"/>
      <point x="655" y="-14"/>
      <point x="821" y="64"/>
      <point x="821" y="210" type="curve" smooth="yes"/>
      <point x="821" y="325"/>
      <point x="741" y="403"/>
      <point x="597" y="429" type="curve" smooth="yes"/>
      <point x="468" y="452" type="line"/>
      <point x="468" y="691" type="line"/>
      <point x="617" y="676"/>
      <point x="694" y="581"/>
      <point x="694" y="581" type="curve"/>
      <point x="757" y="650" type="line"/>
      <point x="757" y="650"/>
      <point x="676" y="775"/>
      <point x="468" y="786" type="curve"/>
      <point x="468" y="1012" type="line"/>
      <point x="425" y="1012" type="line"/>
      <point x="425" y="788" type="line"/>
      <point x="224" y="783"/>
      <point x="114" y="671"/>
      <point x="114" y="574" type="curve" smooth="yes"/>
      <point x="114" y="468"/>
      <point x="173" y="408"/>
      <point x="302" y="383" type="curve"/>
      <point x="425" y="361" type="line"/>
      <point x="425" y="81" type="line"/>
      <point x="225" y="92"/>
      <point x="149" y="238"/>
      <point x="143" y="286" type="curve"/>
      <point x="43" y="247" type="line"/>
      <point x="49" y="208"/>
      <point x="118" y="12"/>
      <point x="425" y="-12" type="curve"/>
      <point x="425" y="-223" type="line"/>
    </contour>
    <contour>
      <point x="510" y="347" type="line" smooth="yes"/>
      <point x="624" y="327"/>
      <point x="684" y="276"/>
      <point x="684" y="208" type="curve" smooth="yes"/>
      <point x="684" y="143"/>
      <point x="603" y="85"/>
      <point x="468" y="81" type="curve"/>
      <point x="468" y="354" type="line"/>
    </contour>
    <contour>
      <point x="380" y="468" type="line" smooth="yes"/>
      <point x="289" y="484"/>
      <point x="251" y="514"/>
      <point x="251" y="569" type="curve" smooth="yes"/>
      <point x="251" y="643"/>
      <point x="324" y="689"/>
      <point x="425" y="692" type="curve"/>
      <point x="425" y="460" type="line"/>
    </contour>
  </outline>
</glyph>
<glyph name="percent" format="1">
  <advance width="939"/>
  <unicode hex="0025"/>
  <outline>
    <contour>
      <point x="318" y="-13" type="line"/>
      <point x="672" y="806" type="line"/>
      <point x="623" y="806" type="line"/>
      <point x="267" y="-13" type="line"/>
    </contour>
    <contour>
      <point x="500" y="224" type="curve"/>
      <point x="500" y="104"/>
      <point x="545" y="-14"/>
      <point x="720" y="-14" type="curve" smooth="yes"/>
      <point x="895" y="-14"/>
      <point x="939" y="104"/>
      <point x="939" y="224" type="curve" smooth="yes"/>
      <point x="939" y="344"/>
      <point x="895" y="462"/>
      <point x="720" y="462" type="curve" smooth="yes"/>
      <point x="545" y="462"/>
      <point x="500" y="344"/>
    </contour>
    <contour>
      <point x="629" y="224" type="curve"/>
      <point x="629" y="301"/>
      <point x="642" y="366"/>
      <point x="720" y="366" type="curve" smooth="yes"/>
      <point x="796" y="366"/>
      <point x="811" y="301"/>
      <point x="811" y="224" type="curve" smooth="yes"/>
      <point x="811" y="147"/>
      <point x="796" y="81"/>
      <point x="720" y="81" type="curve" smooth="yes"/>
      <point x="642" y="81"/>
      <point x="629" y="147"/>
    </contour>
    <contour>
      <point x="0" y="568" type="curve" smooth="yes"/>
      <point x="0" y="448"/>
      <point x="45" y="329"/>
      <point x="220" y="329" type="curve" smooth="yes"/>
      <point x="395" y="329"/>
      <point x="439" y="448"/>
      <point x="439" y="568" type="curve" smooth="yes"/>
      <point x="439" y="688"/>
      <point x="395" y="806"/>
      <point x="220" y="806" type="curve" smooth="yes"/>
      <point x="45" y="806"/>
      <point x="0" y="688"/>
    </contour>
    <contour>
      <point x="129" y="568" type="curve" smooth="yes"/>
      <point x="129" y="645"/>
      <point x="142" y="710"/>
      <point x="220" y="710" type="curve" smooth="yes"/>
      <point x="296" y="710"/>
      <point x="311" y="645"/>
      <point x="311" y="568" type="curve" smooth="yes"/>
      <point x="311" y="491"/>
      <point x="296" y="425"/>
      <point x="220" y="425" type="curve" smooth="yes"/>
      <point x="142" y="425"/>
      <point x="129" y="491"/>
    </contour>
  </outline>
</glyph>
<glyph name="ampersand" format="1">
  <advance width="871"/>
  <unicode hex="0026"/>
  <outline>
    <contour>
      <point x="72" y="682" type="line"/>
      <point x="72" y="682"/>
      <point x="199" y="582"/>
      <point x="331" y="396" type="curve"/>
      <point x="29" y="95" type="line"/>
      <point x="29" y="0" type="line"/>
      <point x="538" y="0" type="line"/>
      <point x="562" y="-69"/>
      <point x="582" y="-143"/>
      <point x="598" y="-223" type="curve"/>
      <point x="731" y="-223" type="line"/>
      <point x="717" y="-145"/>
      <point x="695" y="-69"/>
      <point x="669" y="0" type="curve"/>
      <point x="857" y="0" type="line"/>
      <point x="857" y="95" type="line"/>
      <point x="629" y="95" type="line"/>
      <point x="577" y="207"/>
      <point x="514" y="306"/>
      <point x="448" y="392" type="curve"/>
      <point x="731" y="697" type="line"/>
      <point x="731" y="777" type="line"/>
      <point x="72" y="777" type="line"/>
    </contour>
    <contour>
      <point x="617" y="682" type="line"/>
      <point x="395" y="460" type="line"/>
      <point x="314" y="556"/>
      <point x="234" y="630"/>
      <point x="175" y="682" type="curve"/>
    </contour>
    <contour>
      <point x="500" y="95" type="curve"/>
      <point x="172" y="95" type="line"/>
      <point x="382" y="319" type="line"/>
      <point x="423" y="253"/>
      <point x="464" y="178"/>
    </contour>
  </outline>
</glyph>
<glyph name="quotesingle" format="1">
  <advance width="260"/>
  <unicode hex="0027"/>
  <outline>
    <contour>
      <point x="90" y="480" type="line"/>
      <point x="170" y="480" type="line"/>
      <point x="170" y="777" type="line"/>
      <point x="90" y="777" type="line"/>
    </contour>
  </outline>
</glyph>
<glyph name="parenleft" format="1">
  <advance width="512"/>
  <unicode hex="0028"/>
  <outline>
    <contour>
      <point x="382" y="-162" type="line"/>
      <point x="270" y="-90"/>
      <point x="210" y="91"/>
      <point x="210" y="373" type="curve" smooth="yes"/>
      <point x="210" y="655"/>
      <point x="275" y="851"/>
      <point x="382" y="909" type="curve"/>
      <point x="353" y="939" type="line"/>
      <point x="207" y="882"/>
      <point x="72" y="662"/>
      <point x="72" y="373" type="curve" smooth="yes"/>
      <point x="72" y="84"/>
      <point x="221" y="-149"/>
      <point x="353" y="-192" type="curve"/>
    </contour>
  </outline>
</glyph>
<glyph name="parenright" format="1">
  <advance width="512"/>
  <unicode hex="0029"/>
  <outline>
    <contour>
      <point x="159" y="-192" type="line"/>
      <point x="290" y="-149"/>
      <point x="439" y="84"/>
      <point x="439" y="373" type="curve" smooth="yes"/>
      <point x="439" y="662"/>
      <point x="305" y="882"/>
      <point x="159" y="939" type="curve"/>
      <point x="130" y="909" type="line"/>
      <point x="237" y="851"/>
      <point x="302" y="655"/>
      <point x="302" y="373" type="curve" smooth="yes"/>
      <point x="302" y="91"/>
      <point x="241" y="-90"/>
      <point x="130" y="-162" type="curve"/>
    </contour>
  </outline>
</glyph>
<glyph name="plus" format="1">
  <advance width="711"/>
  <unicode hex="002B"/>
  <outline>
    <contour>
      <point x="377" y="0" type="line"/>
      <point x="377" y="256" type="line"/>
      <point x="639" y="256" type="line"/>
      <point x="639" y="299" type="line"/>
      <point x="377" y="299" type="line"/>
      <point x="377" y="555" type="line"/>
      <point x="334" y="555" type="line"/>
      <point x="334" y="299" type="line"/>
      <point x="72" y="299" type="line"/>
      <point x="72" y="256" type="line"/>
      <point x="334" y="256" type="line"/>
      <point x="334" y="0" type="line"/>
    </contour>
  </outline>
</glyph>
<glyph name="comma" format="1">
  <advance width="358"/>
  <unicode hex="002C"/>
  <outline>
    <contour>
      <point x="101" y="126" type="line"/>
      <point x="101" y="0" type="line"/>
      <point x="188" y="0" type="line"/>
      <point x="188" y="-118"/>
      <point x="134" y="-132"/>
      <point x="87" y="-132" type="curve"/>
      <point x="121" y="-166" type="line"/>
      <point x="191" y="-166"/>
      <point x="257" y="-118"/>
      <point x="257" y="0" type="curve"/>
      <point x="257" y="126" type="line"/>
    </contour>
  </outline>
</glyph>
<glyph name="hyphen" format="1">
  <advance width="467"/>
  <unicode hex="002D"/>
  <outline>
    <contour>
      <point x="14" y="256" type="line"/>
      <point x="452" y="256" type="line"/>
      <point x="452" y="299" type="line"/>
      <point x="14" y="299" type="line"/>
    </contour>
  </outline>
</glyph>
<glyph name="slash" format="1">
  <advance width="434"/>
  <unicode hex="002F"/>
  <outline>
    <contour>
      <point x="78" y="-207" type="line"/>
      <point x="397" y="986" type="line"/>
      <point x="355" y="996" type="line"/>
      <point x="36" y="-197" type="line"/>
    </contour>
  </outline>
</glyph>
<glyph name="zero" format="1">
  <advance width="879"/>
  <unicode hex="0030"/>
  <outline>
    <contour>
      <point x="72" y="387" type="curve"/>
      <point x="72" y="165"/>
      <point x="207" y="-14"/>
      <point x="439" y="-14" type="curve" smooth="yes"/>
      <point x="672" y="-14"/>
      <point x="806" y="165"/>
      <point x="806" y="387" type="curve" smooth="yes"/>
      <point x="806" y="610"/>
      <point x="672" y="788"/>
      <point x="439" y="788" type="curve" smooth="yes"/>
      <point x="207" y="788"/>
      <point x="72" y="610"/>
    </contour>
    <contour>
      <point x="210" y="387" type="curve"/>
      <point x="210" y="558"/>
      <point x="275" y="692"/>
      <point x="439" y="692" type="curve" smooth="yes"/>
      <point x="604" y="692"/>
      <point x="669" y="558"/>
      <point x="669" y="387" type="curve" smooth="yes"/>
      <point x="669" y="217"/>
      <point x="603" y="81"/>
      <point x="439" y="81" type="curve" smooth="yes"/>
      <point x="275" y="81"/>
      <point x="210" y="217"/>
    </contour>
  </outline>
</glyph>
<glyph name="one" format="1">
  <advance width="587"/>
  <unicode hex="0031"/>
  <outline>
    <contour>
      <point x="487" y="0" type="line"/>
      <point x="487" y="777" type="line"/>
      <point x="387" y="777" type="line"/>
      <point x="344" y="616"/>
      <point x="199" y="578"/>
      <point x="40" y="578" type="curve"/>
      <point x="40" y="481" type="line"/>
      <point x="245" y="481"/>
      <point x="344" y="539"/>
      <point x="370" y="608" type="curve"/>
      <point x="364" y="0" type="line"/>
    </contour>
  </outline>
</glyph>
<glyph name="two" format="1">
  <advance width="832"/>
  <unicode hex="0032"/>
  <outline>
    <contour>
      <point x="751" y="548" type="curve"/>
      <point x="751" y="679"/>
      <point x="642" y="788"/>
      <point x="457" y="788" type="curve"/>
      <point x="217" y="788"/>
      <point x="114" y="650"/>
      <point x="95" y="520" type="curve"/>
      <point x="184" y="483" type="line"/>
      <point x="199" y="592"/>
      <point x="288" y="692"/>
      <point x="435" y="692" type="curve" smooth="yes"/>
      <point x="555" y="692"/>
      <point x="620" y="621"/>
      <point x="620" y="527" type="curve"/>
      <point x="620" y="341"/>
      <point x="303" y="197"/>
      <point x="72" y="95" type="curve"/>
      <point x="72" y="0" type="line"/>
      <point x="760" y="0" type="line"/>
      <point x="760" y="95" type="line"/>
      <point x="249" y="95" type="line"/>
      <point x="422" y="165"/>
      <point x="751" y="319"/>
    </contour>
  </outline>
</glyph>
<glyph name="three" format="1">
  <advance width="819"/>
  <unicode hex="0033"/>
  <outline>
    <contour>
      <point x="315" y="374" type="line"/>
      <point x="490" y="374"/>
      <point x="610" y="344"/>
      <point x="610" y="220" type="curve" smooth="yes"/>
      <point x="610" y="124"/>
      <point x="532" y="81"/>
      <point x="406" y="81" type="curve" smooth="yes"/>
      <point x="204" y="81"/>
      <point x="189" y="256"/>
      <point x="189" y="256" type="curve"/>
      <point x="85" y="195" type="line"/>
      <point x="85" y="195"/>
      <point x="120" y="-14"/>
      <point x="413" y="-14" type="curve" smooth="yes"/>
      <point x="601" y="-14"/>
      <point x="747" y="65"/>
      <point x="747" y="218" type="curve" smooth="yes"/>
      <point x="747" y="351"/>
      <point x="617" y="419"/>
      <point x="530" y="425" type="curve"/>
      <point x="616" y="438"/>
      <point x="710" y="493"/>
      <point x="710" y="597" type="curve" smooth="yes"/>
      <point x="710" y="710"/>
      <point x="587" y="788"/>
      <point x="447" y="788" type="curve"/>
      <point x="145" y="788"/>
      <point x="129" y="564"/>
      <point x="129" y="564" type="curve"/>
      <point x="231" y="538" type="line"/>
      <point x="231" y="538"/>
      <point x="246" y="692"/>
      <point x="425" y="692" type="curve"/>
      <point x="522" y="692"/>
      <point x="572" y="637"/>
      <point x="572" y="569" type="curve"/>
      <point x="572" y="488"/>
      <point x="488" y="442"/>
      <point x="389" y="442" type="curve" smooth="yes"/>
      <point x="315" y="442" type="line"/>
    </contour>
  </outline>
</glyph>
<glyph name="four" format="1">
  <advance width="827"/>
  <unicode hex="0034"/>
  <outline>
    <contour>
      <point x="12" y="238" type="line"/>
      <point x="533" y="238" type="line"/>
      <point x="533" y="0" type="line"/>
      <point x="656" y="0" type="line"/>
      <point x="656" y="238" type="line"/>
      <point x="798" y="238" type="line"/>
      <point x="798" y="334" type="line"/>
      <point x="656" y="334" type="line"/>
      <point x="649" y="777" type="line"/>
      <point x="491" y="777" type="line"/>
      <point x="12" y="293" type="line"/>
    </contour>
    <contour>
      <point x="536" y="681" type="line"/>
      <point x="533" y="334" type="line"/>
      <point x="182" y="334" type="line"/>
    </contour>
  </outline>
</glyph>
<glyph name="five" format="1">
  <advance width="800"/>
  <unicode hex="0035"/>
  <outline>
    <contour>
      <point x="740" y="255" type="curve"/>
      <point x="740" y="415"/>
      <point x="606" y="523"/>
      <point x="457" y="523" type="curve" smooth="yes"/>
      <point x="295" y="523"/>
      <point x="244" y="422"/>
      <point x="244" y="422" type="curve"/>
      <point x="291" y="692" type="line"/>
      <point x="704" y="692" type="line"/>
      <point x="704" y="777" type="line"/>
      <point x="180" y="777" type="line"/>
      <point x="109" y="376" type="line"/>
      <point x="242" y="376" type="line"/>
      <point x="242" y="376"/>
      <point x="288" y="424"/>
      <point x="406" y="424" type="curve"/>
      <point x="526" y="424"/>
      <point x="603" y="355"/>
      <point x="603" y="255" type="curve" smooth="yes"/>
      <point x="603" y="155"/>
      <point x="526" y="85"/>
      <point x="406" y="85" type="curve" smooth="yes"/>
      <point x="168" y="85"/>
      <point x="184" y="294"/>
      <point x="184" y="294" type="curve"/>
      <point x="50" y="255" type="line"/>
      <point x="50" y="255"/>
      <point x="60" y="-14"/>
      <point x="406" y="-14" type="curve"/>
      <point x="606" y="-14"/>
      <point x="740" y="85"/>
    </contour>
  </outline>
</glyph>
<glyph name="seven" format="1">
  <advance width="717"/>
  <unicode hex="0037"/>
  <outline>
    <contour>
      <point x="717" y="777" type="line"/>
      <point x="14" y="777" type="line"/>
      <point x="14" y="682" type="line"/>
      <point x="592" y="682" type="line"/>
      <point x="592" y="682"/>
      <point x="211" y="436"/>
      <point x="91" y="0" type="curve"/>
      <point x="224" y="0" type="line"/>
      <point x="331" y="423"/>
      <point x="717" y="697"/>
      <point x="717" y="697" type="curve"/>
    </contour>
  </outline>
</glyph>
<glyph name="eight" format="1">
  <advance width="800"/>
  <unicode hex="0038"/>
  <outline>
    <contour>
      <point x="730" y="574" type="curve"/>
      <point x="730" y="704"/>
      <point x="583" y="791"/>
      <point x="400" y="791" type="curve" smooth="yes"/>
      <point x="217" y="791"/>
      <point x="70" y="704"/>
      <point x="70" y="574" type="curve"/>
      <point x="70" y="434"/>
      <point x="241" y="405"/>
      <point x="241" y="405" type="curve"/>
      <point x="241" y="405"/>
      <point x="40" y="374"/>
      <point x="40" y="214" type="curve"/>
      <point x="40" y="54"/>
      <point x="210" y="-14"/>
      <point x="400" y="-14" type="curve" smooth="yes"/>
      <point x="589" y="-14"/>
      <point x="760" y="54"/>
      <point x="760" y="214" type="curve"/>
      <point x="760" y="384"/>
      <point x="543" y="393"/>
      <point x="543" y="393" type="curve"/>
      <point x="543" y="393"/>
      <point x="730" y="424"/>
    </contour>
    <contour>
      <point x="207" y="574" type="curve" smooth="yes"/>
      <point x="207" y="636"/>
      <point x="265" y="692"/>
      <point x="400" y="692" type="curve" smooth="yes"/>
      <point x="535" y="692"/>
      <point x="593" y="636"/>
      <point x="593" y="574" type="curve" smooth="yes"/>
      <point x="593" y="494"/>
      <point x="533" y="449"/>
      <point x="400" y="449" type="curve"/>
      <point x="341" y="449"/>
      <point x="207" y="462"/>
    </contour>
    <contour>
      <point x="623" y="214" type="curve" smooth="yes"/>
      <point x="623" y="120"/>
      <point x="521" y="85"/>
      <point x="400" y="85" type="curve" smooth="yes"/>
      <point x="278" y="85"/>
      <point x="177" y="120"/>
      <point x="177" y="214" type="curve" smooth="yes"/>
      <point x="177" y="322"/>
      <point x="283" y="356"/>
      <point x="400" y="356" type="curve" smooth="yes"/>
      <point x="456" y="356"/>
      <point x="623" y="342"/>
    </contour>
  </outline>
</glyph>
<glyph name="nine" format="1">
  <advance width="840"/>
  <unicode hex="0039"/>
  <outline>
    <contour>
      <point x="79" y="216" type="line"/>
      <point x="79" y="216"/>
      <point x="113" y="-14"/>
      <point x="396" y="-14" type="curve"/>
      <point x="650" y="-14"/>
      <point x="767" y="189"/>
      <point x="767" y="406" type="curve" smooth="yes"/>
      <point x="767" y="607"/>
      <point x="632" y="788"/>
      <point x="402" y="788" type="curve" smooth="yes"/>
      <point x="223" y="788"/>
      <point x="72" y="684"/>
      <point x="72" y="527" type="curve" smooth="yes"/>
      <point x="72" y="367"/>
      <point x="194" y="289"/>
      <point x="354" y="289" type="curve" smooth="yes"/>
      <point x="497" y="289"/>
      <point x="601" y="363"/>
      <point x="637" y="415" type="curve"/>
      <point x="655" y="224"/>
      <point x="535" y="81"/>
      <point x="383" y="81" type="curve"/>
      <point x="205" y="81"/>
      <point x="178" y="257"/>
      <point x="178" y="257" type="curve"/>
    </contour>
    <contour>
      <point x="384" y="380" type="curve"/>
      <point x="292" y="380"/>
      <point x="210" y="431"/>
      <point x="210" y="527" type="curve" smooth="yes"/>
      <point x="210" y="618"/>
      <point x="285" y="692"/>
      <point x="397" y="692" type="curve" smooth="yes"/>
      <point x="530" y="692"/>
      <point x="610" y="601"/>
      <point x="634" y="486" type="curve"/>
      <point x="594" y="428"/>
      <point x="471" y="380"/>
    </contour>
  </outline>
</glyph>
<glyph name="colon" format="1">
  <advance width="358"/>
  <unicode hex="003A"/>
  <outline>
    <contour>
      <point x="101" y="126" type="line"/>
      <point x="101" y="0" type="line"/>
      <point x="257" y="0" type="line"/>
      <point x="257" y="126" type="line"/>
    </contour>
    <contour>
      <point x="101" y="555" type="line"/>
      <point x="101" y="429" type="line"/>
      <point x="257" y="429" type="line"/>
      <point x="257" y="555" type="line"/>
    </contour>
  </outline>
</glyph>
<glyph name="semicolon" format="1">
  <advance width="358"/>
  <unicode hex="003B"/>
  <outline>
    <contour>
      <point x="101" y="555" type="line"/>
      <point x="101" y="429" type="line"/>
      <point x="257" y="429" type="line"/>
      <point x="257" y="555" type="line"/>
    </contour>
    <contour>
      <point x="101" y="126" type="line"/>
      <point x="101" y="0" type="line"/>
      <point x="188" y="0" type="line"/>
      <point x="188" y="-118"/>
      <point x="134" y="-132"/>
      <point x="87" y="-132" type="curve"/>
      <point x="121" y="-166" type="line"/>
      <point x="191" y="-166"/>
      <point x="257" y="-118"/>
      <point x="257" y="0" type="curve" smooth="yes"/>
      <point x="257" y="126" type="line"/>
    </contour>
  </outline>
</glyph>
<glyph name="less" format="1">
  <advance width="434"/>
  <unicode hex="003C"/>
  <outline>
    <contour>
      <point x="51" y="277" type="line"/>
      <point x="363" y="38" type="line"/>
      <point x="363" y="87" type="line"/>
      <point x="111" y="277" type="line"/>
      <point x="367" y="474" type="line"/>
      <point x="367" y="522" type="line"/>
    </contour>
  </outline>
</glyph>
<glyph name="equal" format="1">
  <advance width="711"/>
  <unicode hex="003D"/>
  <outline>
    <contour>
      <point x="72" y="400" type="line"/>
      <point x="72" y="357" type="line"/>
      <point x="639" y="357" type="line"/>
      <point x="639" y="400" type="line"/>
    </contour>
    <contour>
      <point x="72" y="198" type="line"/>
      <point x="72" y="155" type="line"/>
      <point x="639" y="155" type="line"/>
      <point x="639" y="198" type="line"/>
    </contour>
  </outline>
</glyph>
<glyph name="greater" format="1">
  <advance width="434"/>
  <unicode hex="003E"/>
  <outline>
    <contour>
      <point x="51" y="522" type="line"/>
      <point x="51" y="474" type="line"/>
      <point x="306" y="277" type="line"/>
      <point x="55" y="87" type="line"/>
      <point x="55" y="38" type="line"/>
      <point x="367" y="277" type="line"/>
    </contour>
  </outline>
</glyph>
<glyph name="question" format="1">
  <advance width="832"/>
  <unicode hex="003F"/>
  <outline>
    <contour>
      <point x="751" y="567" type="curve"/>
      <point x="751" y="669"/>
      <point x="666" y="788"/>
      <point x="454" y="788" type="curve"/>
      <point x="130" y="788"/>
      <point x="83" y="508"/>
      <point x="83" y="508" type="curve"/>
      <point x="182" y="483" type="line"/>
      <point x="182" y="483"/>
      <point x="220" y="692"/>
      <point x="444" y="692" type="curve"/>
      <point x="555" y="692"/>
      <point x="620" y="624"/>
      <point x="620" y="548" type="curve"/>
      <point x="620" y="348"/>
      <point x="334" y="460"/>
      <point x="334" y="240" type="curve"/>
      <point x="458" y="240" type="line"/>
      <point x="458" y="395"/>
      <point x="751" y="325"/>
    </contour>
    <contour>
      <point x="318" y="126" type="line"/>
      <point x="318" y="0" type="line"/>
      <point x="474" y="0" type="line"/>
      <point x="474" y="126" type="line"/>
    </contour>
  </outline>
</glyph>
<glyph name="at" format="1">
  <advance width="1217"/>
  <unicode hex="0040"/>
  <outline>
    <contour>
      <point x="558" y="-173" type="line"/>
      <point x="231" y="-145"/>
      <point x="72" y="19"/>
      <point x="72" y="256" type="curve" smooth="yes"/>
      <point x="72" y="478"/>
      <point x="276" y="694"/>
      <point x="608" y="694" type="curve" smooth="yes"/>
      <point x="941" y="694"/>
      <point x="1145" y="504"/>
      <point x="1145" y="270" type="curve" smooth="yes"/>
      <point x="1145" y="69"/>
      <point x="1007" y="13"/>
      <point x="890" y="13" type="curve" smooth="yes"/>
      <point x="780" y="13"/>
      <point x="721" y="79"/>
      <point x="724" y="134" type="curve"/>
      <point x="724" y="134"/>
      <point x="672" y="13"/>
      <point x="514" y="13" type="curve"/>
      <point x="390" y="13"/>
      <point x="285" y="104"/>
      <point x="285" y="231" type="curve"/>
      <point x="285" y="406"/>
      <point x="435" y="517"/>
      <point x="603" y="517" type="curve"/>
      <point x="736" y="517"/>
      <point x="783" y="418"/>
      <point x="783" y="418" type="curve"/>
      <point x="857" y="494" type="line"/>
      <point x="916" y="494" type="line"/>
      <point x="825" y="160" type="line" smooth="yes"/>
      <point x="812" y="114"/>
      <point x="812" y="64"/>
      <point x="893" y="64" type="curve"/>
      <point x="970" y="64"/>
      <point x="1082" y="90"/>
      <point x="1082" y="270" type="curve" smooth="yes"/>
      <point x="1082" y="484"/>
      <point x="915" y="652"/>
      <point x="608" y="652" type="curve" smooth="yes"/>
      <point x="316" y="652"/>
      <point x="134" y="458"/>
      <point x="134" y="256" type="curve" smooth="yes"/>
      <point x="134" y="40"/>
      <point x="254" y="-98"/>
      <point x="575" y="-127" type="curve"/>
    </contour>
    <contour>
      <point x="636" y="421" type="curve"/>
      <point x="514" y="421"/>
      <point x="418" y="351"/>
      <point x="418" y="246" type="curve"/>
      <point x="418" y="152"/>
      <point x="493" y="108"/>
      <point x="582" y="108" type="curve"/>
      <point x="643" y="108"/>
      <point x="692" y="124"/>
      <point x="705" y="175" type="curve" smooth="yes"/>
      <point x="759" y="377" type="line"/>
      <point x="759" y="377"/>
      <point x="743" y="421"/>
    </contour>
  </outline>
</glyph>
<glyph name="A" format="1">
  <advance width="974"/>
  <unicode hex="0041"/>
  <outline>
    <contour>
      <point x="815" y="0" type="line"/>
      <point x="954" y="0" type="line"/>
      <point x="594" y="777" type="line"/>
      <point x="380" y="777" type="line"/>
      <point x="20" y="0" type="line"/>
      <point x="158" y="0" type="line"/>
      <point x="269" y="247" type="line"/>
      <point x="704" y="247" type="line"/>
    </contour>
    <contour>
      <point x="470" y="692" type="line"/>
      <point x="505" y="692" type="line"/>
      <point x="666" y="332" type="line"/>
      <point x="308" y="332" type="line"/>
    </contour>
    <contour>
      <point x="487" y="835" type="move" name="top"/>
    </contour>
  </outline>
</glyph>
<glyph name="B" format="1">
  <advance width="967"/>
  <unicode hex="0042"/>
  <outline>
    <contour>
      <point x="572" y="777" type="line" smooth="yes"/>
      <point x="738" y="777"/>
      <point x="880" y="714"/>
      <point x="880" y="582" type="curve" smooth="yes"/>
      <point x="880" y="475"/>
      <point x="757" y="423"/>
      <point x="699" y="419" type="curve"/>
      <point x="759" y="413"/>
      <point x="909" y="368"/>
      <point x="909" y="215" type="curve" smooth="yes"/>
      <point x="909" y="53"/>
      <point x="743" y="0"/>
      <point x="597" y="0" type="curve" smooth="yes"/>
      <point x="101" y="0" type="line"/>
      <point x="101" y="777" type="line"/>
    </contour>
    <contour>
      <point x="548" y="95" type="line" smooth="yes"/>
      <point x="695" y="95"/>
      <point x="782" y="108"/>
      <point x="782" y="212" type="curve" smooth="yes"/>
      <point x="782" y="334"/>
      <point x="695" y="351"/>
      <point x="545" y="351" type="curve" smooth="yes"/>
      <point x="228" y="351" type="line"/>
      <point x="228" y="95" type="line"/>
    </contour>
    <contour>
      <point x="230" y="447" type="line"/>
      <point x="543" y="447" type="line" smooth="yes"/>
      <point x="656" y="447"/>
      <point x="753" y="475"/>
      <point x="753" y="558" type="curve" smooth="yes"/>
      <point x="753" y="669"/>
      <point x="652" y="682"/>
      <point x="530" y="682" type="curve" smooth="yes"/>
      <point x="230" y="682" type="line"/>
    </contour>
  </outline>
</glyph>
<glyph name="C" format="1">
  <advance width="935"/>
  <unicode hex="0043"/>
  <outline>
    <contour>
      <point x="467" y="835" type="move" name="top"/>
    </contour>
    <contour>
      <point x="467" y="-29" type="move" name="bottom"/>
    </contour>
    <contour>
      <point x="754" y="299" type="line"/>
      <point x="754" y="299"/>
      <point x="743" y="81"/>
      <point x="474" y="81" type="curve" smooth="yes"/>
      <point x="289" y="81"/>
      <point x="179" y="205"/>
      <point x="179" y="387" type="curve" smooth="yes"/>
      <point x="179" y="569"/>
      <point x="289" y="692"/>
      <point x="474" y="692" type="curve"/>
      <point x="658" y="692"/>
      <point x="749" y="564"/>
      <point x="749" y="449" type="curve"/>
      <point x="851" y="475" type="line"/>
      <point x="851" y="608"/>
      <point x="723" y="788"/>
      <point x="474" y="788" type="curve"/>
      <point x="221" y="788"/>
      <point x="43" y="621"/>
      <point x="43" y="387" type="curve" smooth="yes"/>
      <point x="43" y="153"/>
      <point x="207" y="-14"/>
      <point x="475" y="-14" type="curve" smooth="yes"/>
      <point x="867" y="-14"/>
      <point x="876" y="299"/>
      <point x="876" y="299" type="curve"/>
    </contour>
  </outline>
</glyph>
<glyph name="D" format="1">
  <advance width="942"/>
  <unicode hex="0044"/>
  <outline>
    <contour>
      <point x="500" y="777" type="line" smooth="yes"/>
      <point x="695" y="777"/>
      <point x="880" y="681"/>
      <point x="880" y="481" type="curve"/>
      <point x="886" y="438"/>
      <point x="884" y="360"/>
      <point x="880" y="303" type="curve"/>
      <point x="880" y="98"/>
      <point x="694" y="0"/>
      <point x="501" y="0" type="curve" smooth="yes"/>
      <point x="101" y="0" type="line"/>
      <point x="101" y="777" type="line"/>
    </contour>
    <contour>
      <point x="753" y="455" type="curve" smooth="yes"/>
      <point x="743" y="588"/>
      <point x="666" y="682"/>
      <point x="458" y="682" type="curve" smooth="yes"/>
      <point x="228" y="682" type="line"/>
      <point x="228" y="95" type="line"/>
      <point x="457" y="95" type="line" smooth="yes"/>
      <point x="669" y="95"/>
      <point x="740" y="176"/>
      <point x="753" y="312" type="curve" smooth="yes"/>
      <point x="756" y="344"/>
      <point x="756" y="419"/>
    </contour>
  </outline>
</glyph>
<glyph name="E" format="1">
  <advance width="848"/>
  <unicode hex="0045"/>
  <outline>
    <contour>
      <point x="438" y="835" type="move" name="top"/>
    </contour>
    <contour>
      <point x="101" y="0" type="line"/>
      <point x="776" y="0" type="line"/>
      <point x="776" y="95" type="line"/>
      <point x="228" y="95" type="line"/>
      <point x="228" y="338" type="line"/>
      <point x="689" y="338" type="line"/>
      <point x="689" y="434" type="line"/>
      <point x="228" y="434" type="line"/>
      <point x="228" y="682" type="line"/>
      <point x="747" y="682" type="line"/>
      <point x="747" y="777" type="line"/>
      <point x="101" y="777" type="line"/>
    </contour>
  </outline>
</glyph>
<glyph name="F" format="1">
  <advance width="747"/>
  <unicode hex="0046"/>
  <outline>
    <contour>
      <point x="101" y="0" type="line"/>
      <point x="228" y="0" type="line"/>
      <point x="228" y="338" type="line"/>
      <point x="689" y="338" type="line"/>
      <point x="689" y="434" type="line"/>
      <point x="228" y="434" type="line"/>
      <point x="228" y="682" type="line"/>
      <point x="747" y="682" type="line"/>
      <point x="747" y="777" type="line"/>
      <point x="101" y="777" type="line"/>
    </contour>
  </outline>
</glyph>
<glyph name="G" format="1">
  <advance width="1001"/>
  <unicode hex="0047"/>
  <outline>
    <contour>
      <point x="497" y="309" type="line"/>
      <point x="754" y="309" type="line"/>
      <point x="754" y="298" type="line"/>
      <point x="754" y="298"/>
      <point x="744" y="81"/>
      <point x="468" y="81" type="curve" smooth="yes"/>
      <point x="293" y="81"/>
      <point x="179" y="205"/>
      <point x="179" y="387" type="curve" smooth="yes"/>
      <point x="179" y="569"/>
      <point x="289" y="692"/>
      <point x="475" y="692" type="curve" smooth="yes"/>
      <point x="682" y="692"/>
      <point x="749" y="538"/>
      <point x="749" y="449" type="curve"/>
      <point x="851" y="475" type="line"/>
      <point x="851" y="591"/>
      <point x="737" y="788"/>
      <point x="478" y="788" type="curve" smooth="yes"/>
      <point x="221" y="788"/>
      <point x="43" y="621"/>
      <point x="43" y="387" type="curve" smooth="yes"/>
      <point x="43" y="139"/>
      <point x="228" y="-14"/>
      <point x="462" y="-14" type="curve"/>
      <point x="673" y="-14"/>
      <point x="772" y="117"/>
      <point x="790" y="256" type="curve"/>
      <point x="789" y="0" type="line"/>
      <point x="900" y="0" type="line"/>
      <point x="900" y="405" type="line"/>
      <point x="497" y="405" type="line"/>
    </contour>
  </outline>
</glyph>
<glyph name="H" format="1">
  <advance width="1051"/>
  <unicode hex="0048"/>
  <outline>
    <contour>
      <point x="822" y="0" type="line"/>
      <point x="949" y="0" type="line"/>
      <point x="949" y="777" type="line"/>
      <point x="822" y="777" type="line"/>
      <point x="822" y="421" type="line"/>
      <point x="228" y="421" type="line"/>
      <point x="228" y="777" type="line"/>
      <point x="101" y="777" type="line"/>
      <point x="101" y="0" type="line"/>
      <point x="228" y="0" type="line"/>
      <point x="228" y="324" type="line"/>
      <point x="822" y="324" type="line"/>
    </contour>
  </outline>
</glyph>
<glyph name="I" format="1">
  <advance width="329"/>
  <unicode hex="0049"/>
  <outline>
    <contour>
      <point x="165" y="835" type="move" name="top"/>
    </contour>
    <contour>
      <point x="101" y="777" type="line"/>
      <point x="101" y="0" type="line"/>
      <point x="228" y="0" type="line"/>
      <point x="228" y="777" type="line"/>
    </contour>
  </outline>
</glyph>
<glyph name="J" format="1">
  <advance width="766"/>
  <unicode hex="004A"/>
  <outline>
    <contour>
      <point x="64" y="299" type="line"/>
      <point x="64" y="82"/>
      <point x="146" y="-13"/>
      <point x="361" y="-14" type="curve"/>
      <point x="578" y="-14"/>
      <point x="665" y="84"/>
      <point x="665" y="299" type="curve" smooth="yes"/>
      <point x="665" y="777" type="line"/>
      <point x="538" y="777" type="line"/>
      <point x="538" y="299" type="line" smooth="yes"/>
      <point x="538" y="153"/>
      <point x="497" y="81"/>
      <point x="361" y="81" type="curve" smooth="yes"/>
      <point x="201" y="81"/>
      <point x="189" y="197"/>
      <point x="189" y="299" type="curve"/>
    </contour>
  </outline>
</glyph>
<glyph name="K" format="1">
  <advance width="895"/>
  <unicode hex="004B"/>
  <outline>
    <contour>
      <point x="675" y="777" type="line"/>
      <point x="230" y="373" type="line"/>
      <point x="230" y="777" type="line"/>
      <point x="101" y="777" type="line"/>
      <point x="101" y="0" type="line"/>
      <point x="228" y="0" type="line"/>
      <point x="228" y="243" type="line"/>
      <point x="368" y="363" type="line"/>
      <point x="724" y="0" type="line"/>
      <point x="880" y="0" type="line"/>
      <point x="451" y="432" type="line"/>
      <point x="831" y="777" type="line"/>
    </contour>
  </outline>
</glyph>
<glyph name="L" format="1">
  <advance width="665"/>
  <unicode hex="004C"/>
  <outline>
    <contour>
      <point x="90" y="0" type="line"/>
      <point x="665" y="0" type="line"/>
      <point x="665" y="85" type="line"/>
      <point x="220" y="85" type="line"/>
      <point x="220" y="777" type="line"/>
      <point x="90" y="777" type="line"/>
    </contour>
  </outline>
</glyph>
<glyph name="M" format="1">
  <advance width="1153"/>
  <unicode hex="004D"/>
  <outline>
    <contour>
      <point x="921" y="513" type="line"/>
      <point x="939" y="571" type="line"/>
      <point x="934" y="513" type="line"/>
      <point x="925" y="0" type="line"/>
      <point x="1052" y="0" type="line"/>
      <point x="1052" y="777" type="line"/>
      <point x="923" y="777" type="line"/>
      <point x="611" y="92" type="line"/>
      <point x="611" y="92"/>
      <point x="572" y="98"/>
      <point x="540" y="92" type="curve"/>
      <point x="230" y="777" type="line"/>
      <point x="101" y="777" type="line"/>
      <point x="101" y="0" type="line"/>
      <point x="228" y="0" type="line"/>
      <point x="221" y="513" type="line"/>
      <point x="212" y="569" type="line"/>
      <point x="233" y="513" type="line"/>
      <point x="467" y="0" type="line"/>
      <point x="682" y="0" type="line"/>
    </contour>
  </outline>
</glyph>
<glyph name="N" format="1">
  <advance width="983"/>
  <unicode hex="004E"/>
  <outline>
    <contour>
      <point x="882" y="777" type="line"/>
      <point x="754" y="777" type="line"/>
      <point x="754" y="88" type="line"/>
      <point x="230" y="777" type="line"/>
      <point x="101" y="777" type="line"/>
      <point x="101" y="0" type="line"/>
      <point x="228" y="0" type="line"/>
      <point x="223" y="601" type="line"/>
      <point x="675" y="0" type="line"/>
      <point x="882" y="0" type="line"/>
    </contour>
  </outline>
</glyph>
<glyph name="O" format="1">
  <advance width="1023"/>
  <unicode hex="004F"/>
  <outline>
    <contour>
      <point x="512" y="835" type="move" name="top"/>
    </contour>
    <contour>
      <point x="58" y="387" type="curve"/>
      <point x="58" y="153"/>
      <point x="236" y="-14"/>
      <point x="512" y="-14" type="curve" smooth="yes"/>
      <point x="788" y="-14"/>
      <point x="965" y="153"/>
      <point x="965" y="387" type="curve" smooth="yes"/>
      <point x="965" y="621"/>
      <point x="788" y="788"/>
      <point x="512" y="788" type="curve" smooth="yes"/>
      <point x="236" y="788"/>
      <point x="58" y="621"/>
    </contour>
    <contour>
      <point x="195" y="387" type="curve"/>
      <point x="195" y="569"/>
      <point x="303" y="692"/>
      <point x="512" y="692" type="curve" smooth="yes"/>
      <point x="720" y="692"/>
      <point x="828" y="569"/>
      <point x="828" y="387" type="curve" smooth="yes"/>
      <point x="828" y="205"/>
      <point x="718" y="81"/>
      <point x="512" y="81" type="curve" smooth="yes"/>
      <point x="303" y="81"/>
      <point x="195" y="205"/>
    </contour>
  </outline>
</glyph>
<glyph name="P" format="1">
  <advance width="909"/>
  <unicode hex="0050"/>
  <outline>
    <contour>
      <point x="228" y="338" type="line"/>
      <point x="228" y="0" type="line"/>
      <point x="101" y="0" type="line"/>
      <point x="101" y="777" type="line"/>
      <point x="572" y="777" type="line" smooth="yes"/>
      <point x="738" y="777"/>
      <point x="880" y="718"/>
      <point x="880" y="555" type="curve" smooth="yes"/>
      <point x="880" y="409"/>
      <point x="743" y="338"/>
      <point x="571" y="338" type="curve"/>
    </contour>
    <contour>
      <point x="230" y="434" type="line"/>
      <point x="529" y="434" type="line" smooth="yes"/>
      <point x="652" y="434"/>
      <point x="753" y="451"/>
      <point x="753" y="555" type="curve" smooth="yes"/>
      <point x="753" y="668"/>
      <point x="652" y="682"/>
      <point x="530" y="682" type="curve" smooth="yes"/>
      <point x="230" y="682" type="line"/>
    </contour>
  </outline>
</glyph>
<glyph name="Q" format="1">
  <advance width="1023"/>
  <unicode hex="0051"/>
  <outline>
    <contour>
      <point x="58" y="387" type="curve" smooth="yes"/>
      <point x="58" y="153"/>
      <point x="236" y="-14"/>
      <point x="512" y="-14" type="curve"/>
      <point x="539" y="-14"/>
      <point x="554" y="-12"/>
      <point x="554" y="-12" type="curve"/>
      <point x="554" y="-12"/>
      <point x="538" y="-34"/>
      <point x="538" y="-74" type="curve" smooth="yes"/>
      <point x="538" y="-132"/>
      <point x="578" y="-161"/>
      <point x="673" y="-161" type="curve"/>
      <point x="773" y="-161"/>
      <point x="818" y="-146"/>
      <point x="818" y="-146" type="curve"/>
      <point x="818" y="-48" type="line"/>
      <point x="818" y="-48"/>
      <point x="769" y="-63"/>
      <point x="697" y="-63" type="curve" smooth="yes"/>
      <point x="642" y="-63"/>
      <point x="609" y="-56"/>
      <point x="609" y="-27" type="curve" smooth="yes"/>
      <point x="609" y="-11"/>
      <point x="613" y="-6"/>
      <point x="613" y="-6" type="curve"/>
      <point x="831" y="30"/>
      <point x="965" y="184"/>
      <point x="965" y="387" type="curve" smooth="yes"/>
      <point x="965" y="621"/>
      <point x="788" y="788"/>
      <point x="512" y="788" type="curve" smooth="yes"/>
      <point x="236" y="788"/>
      <point x="58" y="621"/>
    </contour>
    <contour>
      <point x="195" y="387" type="curve" smooth="yes"/>
      <point x="195" y="569"/>
      <point x="303" y="692"/>
      <point x="512" y="692" type="curve" smooth="yes"/>
      <point x="720" y="692"/>
      <point x="828" y="569"/>
      <point x="828" y="387" type="curve" smooth="yes"/>
      <point x="828" y="205"/>
      <point x="718" y="81"/>
      <point x="512" y="81" type="curve" smooth="yes"/>
      <point x="303" y="81"/>
      <point x="195" y="205"/>
    </contour>
  </outline>
</glyph>
<glyph name="R" format="1">
  <advance width="938"/>
  <unicode hex="0052"/>
  <outline>
    <contour>
      <point x="880" y="558" type="curve" smooth="yes"/>
      <point x="880" y="720"/>
      <point x="767" y="777"/>
      <point x="587" y="777" type="curve" smooth="yes"/>
      <point x="101" y="777" type="line"/>
      <point x="101" y="0" type="line"/>
      <point x="228" y="0" type="line"/>
      <point x="228" y="338" type="line"/>
      <point x="461" y="338" type="line"/>
      <point x="568" y="338"/>
      <point x="678" y="81"/>
      <point x="733" y="0" type="curve"/>
      <point x="880" y="0" type="line"/>
      <point x="786" y="127"/>
      <point x="692" y="338"/>
      <point x="594" y="338" type="curve"/>
      <point x="754" y="348"/>
      <point x="880" y="393"/>
    </contour>
    <contour>
      <point x="230" y="682" type="line"/>
      <point x="530" y="682" type="line" smooth="yes"/>
      <point x="681" y="682"/>
      <point x="753" y="660"/>
      <point x="753" y="559" type="curve" smooth="yes"/>
      <point x="753" y="460"/>
      <point x="689" y="434"/>
      <point x="529" y="434" type="curve" smooth="yes"/>
      <point x="230" y="434" type="line"/>
    </contour>
  </outline>
</glyph>
<glyph name="S" format="1">
  <advance width="833"/>
  <unicode hex="0053"/>
  <outline>
    <contour>
      <point x="348" y="470" type="line" smooth="yes"/>
      <point x="272" y="484"/>
      <point x="222" y="520"/>
      <point x="222" y="579" type="curve"/>
      <point x="222" y="650"/>
      <point x="304" y="692"/>
      <point x="408" y="692" type="curve"/>
      <point x="583" y="692"/>
      <point x="663" y="581"/>
      <point x="663" y="581" type="curve"/>
      <point x="732" y="656" type="line"/>
      <point x="732" y="656"/>
      <point x="645" y="788"/>
      <point x="413" y="788" type="curve"/>
      <point x="205" y="788"/>
      <point x="92" y="689"/>
      <point x="92" y="572" type="curve"/>
      <point x="92" y="475"/>
      <point x="157" y="413"/>
      <point x="271" y="390" type="curve" smooth="yes"/>
      <point x="479" y="347" type="line" smooth="yes"/>
      <point x="593" y="324"/>
      <point x="657" y="276"/>
      <point x="657" y="208" type="curve"/>
      <point x="657" y="136"/>
      <point x="589" y="81"/>
      <point x="455" y="81" type="curve" smooth="yes"/>
      <point x="215" y="81"/>
      <point x="144" y="267"/>
      <point x="144" y="267" type="curve"/>
      <point x="43" y="221" type="line"/>
      <point x="43" y="221"/>
      <point x="118" y="-14"/>
      <point x="456" y="-14" type="curve"/>
      <point x="624" y="-14"/>
      <point x="790" y="64"/>
      <point x="790" y="210" type="curve"/>
      <point x="790" y="316"/>
      <point x="723" y="395"/>
      <point x="564" y="426" type="curve" smooth="yes"/>
    </contour>
  </outline>
</glyph>
<glyph name="T" format="1">
  <advance width="905"/>
  <unicode hex="0054"/>
  <outline>
    <contour>
      <point x="876" y="777" type="line"/>
      <point x="29" y="777" type="line"/>
      <point x="29" y="682" type="line"/>
      <point x="389" y="682" type="line"/>
      <point x="389" y="0" type="line"/>
      <point x="516" y="0" type="line"/>
      <point x="516" y="682" type="line"/>
      <point x="876" y="682" type="line"/>
    </contour>
  </outline>
</glyph>
<glyph name="U" format="1">
  <advance width="977"/>
  <unicode hex="0055"/>
  <outline>
    <contour>
      <point x="488" y="835" type="move" name="top"/>
    </contour>
    <contour>
      <point x="101" y="777" type="line"/>
      <point x="101" y="321" type="line" smooth="yes"/>
      <point x="101" y="97"/>
      <point x="194" y="-14"/>
      <point x="488" y="-14" type="curve" smooth="yes"/>
      <point x="783" y="-14"/>
      <point x="876" y="97"/>
      <point x="876" y="321" type="curve" smooth="yes"/>
      <point x="876" y="777" type="line"/>
      <point x="749" y="777" type="line"/>
      <point x="749" y="321" type="line" smooth="yes"/>
      <point x="749" y="149"/>
      <point x="685" y="81"/>
      <point x="488" y="81" type="curve" smooth="yes"/>
      <point x="290" y="81"/>
      <point x="228" y="149"/>
      <point x="228" y="321" type="curve" smooth="yes"/>
      <point x="228" y="777" type="line"/>
    </contour>
  </outline>
</glyph>
<glyph name="V" format="1">
  <advance width="934"/>
  <unicode hex="0056"/>
  <outline>
    <contour>
      <point x="360" y="0" type="line"/>
      <point x="574" y="0" type="line"/>
      <point x="934" y="777" type="line"/>
      <point x="795" y="777" type="line"/>
      <point x="500" y="92" type="line"/>
      <point x="500" y="92"/>
      <point x="464" y="98"/>
      <point x="432" y="92" type="curve"/>
      <point x="139" y="777" type="line"/>
      <point x="0" y="777" type="line"/>
    </contour>
  </outline>
</glyph>
<glyph name="W" format="1">
  <advance width="1299"/>
  <unicode hex="0057"/>
  <outline>
    <contour>
      <point x="649" y="626" type="line"/>
      <point x="841" y="0" type="line"/>
      <point x="1012" y="0" type="line"/>
      <point x="1299" y="777" type="line"/>
      <point x="1173" y="777" type="line"/>
      <point x="925" y="95" type="line"/>
      <point x="923" y="95" type="line"/>
      <point x="724" y="766" type="line"/>
      <point x="575" y="766" type="line"/>
      <point x="374" y="95" type="line"/>
      <point x="373" y="95" type="line"/>
      <point x="126" y="777" type="line"/>
      <point x="0" y="777" type="line"/>
      <point x="288" y="0" type="line"/>
      <point x="458" y="0" type="line"/>
    </contour>
  </outline>
</glyph>
<glyph name="X" format="1">
  <advance width="852"/>
  <unicode hex="0058"/>
  <outline>
    <contour>
      <point x="692" y="0" type="line"/>
      <point x="842" y="0" type="line"/>
      <point x="160" y="777" type="line"/>
      <point x="10" y="777" type="line"/>
    </contour>
    <contour>
      <point x="10" y="0" type="line"/>
      <point x="160" y="0" type="line"/>
      <point x="842" y="777" type="line"/>
      <point x="692" y="777" type="line"/>
    </contour>
  </outline>
</glyph>
<glyph name="Y" format="1">
  <advance width="876"/>
  <unicode hex="0059"/>
  <outline>
    <contour>
      <point x="438" y="835" type="move" name="top"/>
    </contour>
    <contour>
      <point x="861" y="777" type="line"/>
      <point x="710" y="777" type="line"/>
      <point x="438" y="410" type="line"/>
      <point x="166" y="777" type="line"/>
      <point x="14" y="777" type="line"/>
      <point x="374" y="332" type="line"/>
      <point x="374" y="0" type="line"/>
      <point x="501" y="0" type="line"/>
      <point x="501" y="332" type="line"/>
    </contour>
  </outline>
</glyph>
<glyph name="Z" format="1">
  <advance width="731"/>
  <unicode hex="005A"/>
  <outline>
    <contour>
      <point x="717" y="95" type="line"/>
      <point x="158" y="95" type="line"/>
      <point x="717" y="697" type="line"/>
      <point x="717" y="777" type="line"/>
      <point x="58" y="777" type="line"/>
      <point x="58" y="682" type="line"/>
      <point x="559" y="682" type="line"/>
      <point x="14" y="95" type="line"/>
      <point x="14" y="0" type="line"/>
      <point x="717" y="0" type="line"/>
    </contour>
  </outline>
</glyph>
<glyph name="bracketleft" format="1">
  <advance width="355"/>
  <unicode hex="005B"/>
  <outline>
    <contour>
      <point x="327" y="-143" type="line"/>
      <point x="130" y="-143" type="line"/>
      <point x="130" y="895" type="line"/>
      <point x="327" y="895" type="line"/>
      <point x="327" y="938" type="line"/>
      <point x="87" y="938" type="line"/>
      <point x="87" y="-186" type="line"/>
      <point x="327" y="-186" type="line"/>
    </contour>
  </outline>
</glyph>
<glyph name="backslash" format="1">
  <advance width="434"/>
  <unicode hex="005C"/>
  <outline>
    <contour>
      <point x="397" y="-197" type="line"/>
      <point x="78" y="996" type="line"/>
      <point x="36" y="986" type="line"/>
      <point x="355" y="-207" type="line"/>
    </contour>
  </outline>
</glyph>
<glyph name="bracketright" format="1">
  <advance width="355"/>
  <unicode hex="005D"/>
  <outline>
    <contour>
      <point x="29" y="-186" type="line"/>
      <point x="269" y="-186" type="line"/>
      <point x="269" y="938" type="line"/>
      <point x="29" y="938" type="line"/>
      <point x="29" y="895" type="line"/>
      <point x="225" y="895" type="line"/>
      <point x="225" y="-143" type="line"/>
      <point x="29" y="-143" type="line"/>
    </contour>
  </outline>
</glyph>
<glyph name="underscore" format="1">
  <advance width="510"/>
  <unicode hex="005F"/>
  <outline>
    <contour>
      <point x="252" y="568" type="move" name="_top"/>
    </contour>
    <contour>
      <point x="490" y="-60" type="line"/>
      <point x="20" y="-60" type="line"/>
      <point x="20" y="-110" type="line"/>
      <point x="490" y="-110" type="line"/>
    </contour>
  </outline>
</glyph>
<glyph name="grave" format="1">
  <advance width="1204"/>
  <unicode hex="0060"/>
  <outline>
    <contour>
      <point x="601" y="613" type="move" name="_top"/>
    </contour>
    <contour>
      <point x="439" y="678" type="line"/>
      <point x="752" y="620" type="line"/>
      <point x="768" y="673" type="line"/>
      <point x="469" y="788" type="line"/>
    </contour>
  </outline>
</glyph>
<glyph name="a" format="1">
  <advance width="709"/>
  <unicode hex="0061"/>
  <outline>
    <contour>
      <point x="326" y="613" type="move" name="top"/>
    </contour>
    <contour>
      <point x="547" y="133" type="line" smooth="yes"/>
      <point x="545" y="98"/>
      <point x="558" y="81"/>
      <point x="596" y="81" type="curve"/>
      <point x="636" y="81"/>
      <point x="668" y="124"/>
      <point x="668" y="124" type="curve"/>
      <point x="694" y="46" type="line"/>
      <point x="694" y="46"/>
      <point x="667" y="-14"/>
      <point x="584" y="-14" type="curve" smooth="yes"/>
      <point x="522" y="-14"/>
      <point x="457" y="17"/>
      <point x="454" y="95" type="curve" smooth="yes"/>
      <point x="450" y="214" type="line"/>
      <point x="450" y="214"/>
      <point x="380" y="-14"/>
      <point x="194" y="-14" type="curve"/>
      <point x="112" y="-14"/>
      <point x="70" y="39"/>
      <point x="70" y="108" type="curve"/>
      <point x="70" y="201"/>
      <point x="142" y="340"/>
      <point x="440" y="374" type="curve"/>
      <point x="438" y="403" type="line" smooth="yes"/>
      <point x="437" y="439"/>
      <point x="405" y="481"/>
      <point x="321" y="481" type="curve" smooth="yes"/>
      <point x="201" y="481"/>
      <point x="155" y="393"/>
      <point x="155" y="393" type="curve"/>
      <point x="73" y="448" type="line"/>
      <point x="73" y="448"/>
      <point x="134" y="578"/>
      <point x="317" y="578" type="curve" smooth="yes"/>
      <point x="483" y="578"/>
      <point x="555" y="490"/>
      <point x="553" y="386" type="curve" smooth="yes"/>
    </contour>
    <contour>
      <point x="187" y="139" type="curve"/>
      <point x="187" y="101"/>
      <point x="207" y="81"/>
      <point x="240" y="81" type="curve"/>
      <point x="336" y="81"/>
      <point x="448" y="243"/>
      <point x="446" y="286" type="curve"/>
      <point x="443" y="340" type="line"/>
      <point x="220" y="283"/>
      <point x="187" y="188"/>
    </contour>
  </outline>
</glyph>
<glyph name="b" format="1">
  <advance width="746"/>
  <unicode hex="0062"/>
  <outline>
    <contour>
      <point x="221" y="777" type="line"/>
      <point x="221" y="777"/>
      <point x="159" y="766"/>
      <point x="101" y="766" type="curve"/>
      <point x="101" y="0" type="line"/>
      <point x="159" y="0" type="line"/>
      <point x="201" y="125" type="line"/>
      <point x="201" y="125"/>
      <point x="269" y="-14"/>
      <point x="433" y="-14" type="curve" smooth="yes"/>
      <point x="588" y="-14"/>
      <point x="698" y="112"/>
      <point x="698" y="282" type="curve" smooth="yes"/>
      <point x="698" y="452"/>
      <point x="588" y="578"/>
      <point x="435" y="578" type="curve" smooth="yes"/>
      <point x="279" y="578"/>
      <point x="221" y="456"/>
      <point x="221" y="456" type="curve"/>
    </contour>
    <contour>
      <point x="390" y="486" type="curve" smooth="yes"/>
      <point x="510" y="486"/>
      <point x="570" y="402"/>
      <point x="570" y="282" type="curve" smooth="yes"/>
      <point x="570" y="162"/>
      <point x="510" y="74"/>
      <point x="390" y="74" type="curve" smooth="yes"/>
      <point x="270" y="74"/>
      <point x="211" y="162"/>
      <point x="211" y="282" type="curve" smooth="yes"/>
      <point x="211" y="402"/>
      <point x="270" y="486"/>
    </contour>
  </outline>
</glyph>
<glyph name="c" format="1">
  <advance width="705"/>
  <unicode hex="0063"/>
  <outline>
    <contour>
      <point x="532" y="215" type="line"/>
      <point x="532" y="215"/>
      <point x="532" y="75"/>
      <point x="370" y="75" type="curve"/>
      <point x="250" y="75"/>
      <point x="185" y="153"/>
      <point x="185" y="283" type="curve" smooth="yes"/>
      <point x="185" y="396"/>
      <point x="254" y="484"/>
      <point x="370" y="484" type="curve"/>
      <point x="486" y="484"/>
      <point x="545" y="397"/>
      <point x="530" y="299" type="curve"/>
      <point x="633" y="321" type="line"/>
      <point x="647" y="425"/>
      <point x="566" y="578"/>
      <point x="370" y="578" type="curve"/>
      <point x="165" y="578"/>
      <point x="58" y="438"/>
      <point x="58" y="280" type="curve" smooth="yes"/>
      <point x="58" y="92"/>
      <point x="189" y="-14"/>
      <point x="368" y="-14" type="curve"/>
      <point x="647" y="-14"/>
      <point x="646" y="215"/>
      <point x="646" y="215" type="curve"/>
    </contour>
  </outline>
</glyph>
<glyph name="d" format="1">
  <advance width="731"/>
  <unicode hex="0064"/>
  <outline>
    <contour>
      <point x="630" y="777" type="line"/>
      <point x="574" y="766"/>
      <point x="510" y="766"/>
      <point x="510" y="766" type="curve"/>
      <point x="510" y="456" type="line"/>
      <point x="510" y="456"/>
      <point x="453" y="578"/>
      <point x="297" y="578" type="curve"/>
      <point x="144" y="578"/>
      <point x="33" y="452"/>
      <point x="33" y="282" type="curve" smooth="yes"/>
      <point x="33" y="112"/>
      <point x="143" y="-14"/>
      <point x="298" y="-14" type="curve"/>
      <point x="462" y="-14"/>
      <point x="530" y="125"/>
      <point x="530" y="125" type="curve"/>
      <point x="572" y="0" type="line"/>
      <point x="630" y="0" type="line"/>
    </contour>
    <contour>
      <point x="341" y="486" type="curve" smooth="yes"/>
      <point x="461" y="486"/>
      <point x="520" y="402"/>
      <point x="520" y="282" type="curve" smooth="yes"/>
      <point x="520" y="162"/>
      <point x="461" y="74"/>
      <point x="341" y="74" type="curve" smooth="yes"/>
      <point x="221" y="74"/>
      <point x="161" y="162"/>
      <point x="161" y="282" type="curve" smooth="yes"/>
      <point x="161" y="402"/>
      <point x="221" y="486"/>
    </contour>
  </outline>
</glyph>
<glyph name="e" format="1">
  <advance width="727"/>
  <unicode hex="0065"/>
  <outline>
    <contour>
      <point x="667" y="185" type="curve"/>
      <point x="543" y="221" type="line"/>
      <point x="543" y="221"/>
      <point x="543" y="75"/>
      <point x="383" y="75" type="curve" smooth="yes"/>
      <point x="272" y="75"/>
      <point x="190" y="146"/>
      <point x="188" y="273" type="curve"/>
      <point x="652" y="263" type="line"/>
      <point x="652" y="263"/>
      <point x="680" y="569"/>
      <point x="368" y="569" type="curve"/>
      <point x="172" y="569"/>
      <point x="60" y="444"/>
      <point x="60" y="278" type="curve" smooth="yes"/>
      <point x="60" y="90"/>
      <point x="206" y="-14"/>
      <point x="368" y="-14" type="curve" smooth="yes"/>
      <point x="632" y="-14"/>
      <point x="667" y="185"/>
    </contour>
    <contour>
      <point x="525" y="339" type="curve"/>
      <point x="193" y="334" type="line"/>
      <point x="210" y="422"/>
      <point x="268" y="480"/>
      <point x="361" y="480" type="curve"/>
      <point x="518" y="480"/>
      <point x="525" y="339"/>
    </contour>
    <contour>
      <point x="371" y="613" type="move" name="top"/>
    </contour>
  </outline>
</glyph>
<glyph name="f" format="1">
  <advance width="458"/>
  <unicode hex="0066"/>
  <outline>
    <contour>
      <point x="40" y="480" type="line"/>
      <point x="142" y="480" type="line"/>
      <point x="142" y="0" type="line"/>
      <point x="262" y="0" type="line"/>
      <point x="262" y="480" type="line"/>
      <point x="435" y="480" type="line"/>
      <point x="435" y="555" type="line"/>
      <point x="246" y="555" type="line"/>
      <point x="246" y="555"/>
      <point x="222" y="571"/>
      <point x="222" y="610" type="curve" smooth="yes"/>
      <point x="222" y="663"/>
      <point x="263" y="692"/>
      <point x="322" y="692" type="curve" smooth="yes"/>
      <point x="418" y="692"/>
      <point x="444" y="603"/>
      <point x="444" y="603" type="curve"/>
      <point x="526" y="658" type="line"/>
      <point x="526" y="658"/>
      <point x="493" y="788"/>
      <point x="312" y="788" type="curve" smooth="yes"/>
      <point x="214" y="788"/>
      <point x="117" y="727"/>
      <point x="117" y="640" type="curve" smooth="yes"/>
      <point x="117" y="583"/>
      <point x="157" y="556"/>
      <point x="160" y="555" type="curve"/>
      <point x="40" y="555" type="line"/>
    </contour>
  </outline>
</glyph>
<glyph name="g" format="1">
  <advance width="730"/>
  <unicode hex="0067"/>
  <outline>
    <contour>
      <point x="624" y="655" type="curve" smooth="yes"/>
      <point x="525" y="655"/>
      <point x="500" y="553"/>
      <point x="500" y="553" type="curve"/>
      <point x="500" y="553"/>
      <point x="447" y="578"/>
      <point x="357" y="578" type="curve" smooth="yes"/>
      <point x="152" y="578"/>
      <point x="71" y="475"/>
      <point x="71" y="377" type="curve" smooth="yes"/>
      <point x="71" y="233"/>
      <point x="214" y="205"/>
      <point x="214" y="205" type="curve"/>
      <point x="214" y="202" type="line"/>
      <point x="174" y="202"/>
      <point x="69" y="183"/>
      <point x="69" y="108" type="curve" smooth="yes"/>
      <point x="69" y="49"/>
      <point x="140" y="13"/>
      <point x="217" y="10" type="curve"/>
      <point x="217" y="4" type="line"/>
      <point x="111" y="-3"/>
      <point x="43" y="-51"/>
      <point x="43" y="-111" type="curve" smooth="yes"/>
      <point x="43" y="-163"/>
      <point x="81" y="-233"/>
      <point x="266" y="-233" type="curve" smooth="yes"/>
      <point x="396" y="-233" type="line" smooth="yes"/>
      <point x="604" y="-233"/>
      <point x="698" y="-153"/>
      <point x="698" y="-74" type="curve" smooth="yes"/>
      <point x="698" y="-56" type="line" smooth="yes"/>
      <point x="698" y="1"/>
      <point x="640" y="81"/>
      <point x="497" y="81" type="curve" smooth="yes"/>
      <point x="277" y="81" type="line" smooth="yes"/>
      <point x="218" y="81"/>
      <point x="187" y="98"/>
      <point x="187" y="134" type="curve" smooth="yes"/>
      <point x="187" y="172"/>
      <point x="228" y="192"/>
      <point x="264" y="192" type="curve" smooth="yes"/>
      <point x="264" y="192"/>
      <point x="301" y="182"/>
      <point x="360" y="182" type="curve" smooth="yes"/>
      <point x="533" y="182"/>
      <point x="643" y="253"/>
      <point x="643" y="376" type="curve" smooth="yes"/>
      <point x="643" y="447"/>
      <point x="592" y="512"/>
      <point x="532" y="539" type="curve"/>
      <point x="532" y="539"/>
      <point x="561" y="558"/>
      <point x="623" y="558" type="curve" smooth="yes"/>
      <point x="659" y="558"/>
      <point x="686" y="551"/>
      <point x="686" y="551" type="curve"/>
      <point x="686" y="647" type="line"/>
      <point x="686" y="647"/>
      <point x="658" y="655"/>
    </contour>
    <contour>
      <point x="199" y="379" type="curve" smooth="yes"/>
      <point x="199" y="442"/>
      <point x="241" y="504"/>
      <point x="357" y="504" type="curve" smooth="yes"/>
      <point x="473" y="504"/>
      <point x="514" y="442"/>
      <point x="514" y="379" type="curve" smooth="yes"/>
      <point x="514" y="318"/>
      <point x="473" y="254"/>
      <point x="357" y="254" type="curve" smooth="yes"/>
      <point x="241" y="254"/>
      <point x="199" y="318"/>
    </contour>
    <contour>
      <point x="468" y="-11" type="curve" smooth="yes"/>
      <point x="545" y="-15"/>
      <point x="571" y="-45"/>
      <point x="571" y="-95" type="curve" smooth="yes"/>
      <point x="571" y="-152"/>
      <point x="503" y="-172"/>
      <point x="354" y="-172" type="curve" smooth="yes"/>
      <point x="224" y="-172"/>
      <point x="172" y="-150"/>
      <point x="172" y="-98" type="curve" smooth="yes"/>
      <point x="172" y="-26"/>
      <point x="288" y="1"/>
      <point x="288" y="1" type="curve"/>
      <point x="312" y="-5"/>
      <point x="360" y="-5"/>
    </contour>
  </outline>
</glyph>
<glyph name="h" format="1">
  <advance width="772"/>
  <unicode hex="0068"/>
  <outline>
    <contour>
      <point x="551" y="0" type="line"/>
      <point x="671" y="0" type="line"/>
      <point x="671" y="344" type="line" smooth="yes"/>
      <point x="671" y="484"/>
      <point x="603" y="578"/>
      <point x="454" y="578" type="curve" smooth="yes"/>
      <point x="315" y="578"/>
      <point x="247" y="475"/>
      <point x="221" y="418" type="curve"/>
      <point x="221" y="777" type="line"/>
      <point x="221" y="777"/>
      <point x="172" y="766"/>
      <point x="101" y="766" type="curve"/>
      <point x="101" y="0" type="line"/>
      <point x="223" y="0" type="line"/>
      <point x="223" y="337" type="line" smooth="yes"/>
      <point x="223" y="367"/>
      <point x="273" y="481"/>
      <point x="406" y="481" type="curve" smooth="yes"/>
      <point x="494" y="481"/>
      <point x="551" y="435"/>
      <point x="551" y="342" type="curve" smooth="yes"/>
    </contour>
  </outline>
</glyph>
<glyph name="i" format="1">
  <advance width="300"/>
  <unicode hex="0069"/>
  <outline>
    <contour>
      <point x="90" y="0" type="line"/>
      <point x="210" y="0" type="line"/>
      <point x="210" y="555" type="line"/>
      <point x="90" y="555" type="line"/>
    </contour>
    <contour>
      <point x="90" y="681" type="line"/>
      <point x="210" y="681" type="line"/>
      <point x="210" y="777" type="line"/>
      <point x="90" y="777" type="line"/>
    </contour>
  </outline>
</glyph>
<glyph name="j" format="1">
  <advance width="370"/>
  <unicode hex="006A"/>
  <outline>
    <contour>
      <point x="149" y="7" type="line"/>
      <point x="149" y="-104"/>
      <point x="120" y="-163"/>
      <point x="20" y="-124" type="curve"/>
      <point x="22" y="-221" type="line"/>
      <point x="140" y="-262"/>
      <point x="269" y="-191"/>
      <point x="269" y="0" type="curve"/>
      <point x="269" y="555" type="line"/>
      <point x="149" y="555" type="line"/>
    </contour>
    <contour>
      <point x="149" y="681" type="line"/>
      <point x="269" y="681" type="line"/>
      <point x="269" y="777" type="line"/>
      <point x="149" y="777" type="line"/>
    </contour>
  </outline>
</glyph>
<glyph name="k" format="1">
  <advance width="678"/>
  <unicode hex="006B"/>
  <outline>
    <contour>
      <point x="101" y="0" type="line"/>
      <point x="221" y="0" type="line"/>
      <point x="221" y="197" type="line"/>
      <point x="285" y="251" type="line"/>
      <point x="540" y="0" type="line"/>
      <point x="685" y="0" type="line"/>
      <point x="363" y="321" type="line"/>
      <point x="611" y="555" type="line"/>
      <point x="475" y="555" type="line"/>
      <point x="221" y="315" type="line"/>
      <point x="221" y="777" type="line"/>
      <point x="221" y="777"/>
      <point x="172" y="766"/>
      <point x="101" y="766" type="curve"/>
    </contour>
  </outline>
</glyph>
<glyph name="l" format="1">
  <advance width="322"/>
  <unicode hex="006C"/>
  <outline>
    <contour>
      <point x="101" y="0" type="line"/>
      <point x="221" y="0" type="line"/>
      <point x="221" y="777" type="line"/>
      <point x="221" y="777"/>
      <point x="172" y="766"/>
      <point x="101" y="766" type="curve"/>
    </contour>
  </outline>
</glyph>
<glyph name="m" format="1">
  <advance width="1163"/>
  <unicode hex="006D"/>
  <outline>
    <contour>
      <point x="940" y="0" type="line"/>
      <point x="1060" y="0" type="line"/>
      <point x="1060" y="344" type="line"/>
      <point x="1063" y="503"/>
      <point x="966" y="578"/>
      <point x="845" y="578" type="curve" smooth="yes"/>
      <point x="702" y="578"/>
      <point x="646" y="439"/>
      <point x="630" y="389" type="curve"/>
      <point x="619" y="497"/>
      <point x="553" y="578"/>
      <point x="436" y="578" type="curve"/>
      <point x="280" y="578"/>
      <point x="221" y="423"/>
      <point x="211" y="390" type="curve"/>
      <point x="160" y="555" type="line"/>
      <point x="102" y="555" type="line"/>
      <point x="102" y="0" type="line"/>
      <point x="222" y="0" type="line"/>
      <point x="222" y="337" type="line"/>
      <point x="231" y="386"/>
      <point x="280" y="481"/>
      <point x="393" y="481" type="curve"/>
      <point x="474" y="481"/>
      <point x="521" y="432"/>
      <point x="521" y="342" type="curve" smooth="yes"/>
      <point x="521" y="0" type="line"/>
      <point x="641" y="0" type="line"/>
      <point x="641" y="338" type="line" smooth="yes"/>
      <point x="641" y="351"/>
      <point x="676" y="481"/>
      <point x="810" y="481" type="curve"/>
      <point x="875" y="481"/>
      <point x="940" y="442"/>
      <point x="940" y="355" type="curve" smooth="yes"/>
    </contour>
  </outline>
</glyph>
<glyph name="n" format="1">
  <advance width="772"/>
  <unicode hex="006E"/>
  <outline>
    <contour>
      <point x="385" y="613" type="move" name="top"/>
    </contour>
    <contour>
      <point x="550" y="0" type="line"/>
      <point x="670" y="0" type="line"/>
      <point x="670" y="344" type="line" smooth="yes"/>
      <point x="670" y="484"/>
      <point x="602" y="578"/>
      <point x="453" y="578" type="curve"/>
      <point x="289" y="578"/>
      <point x="223" y="435"/>
      <point x="210" y="390" type="curve"/>
      <point x="159" y="555" type="line"/>
      <point x="102" y="555" type="line"/>
      <point x="102" y="0" type="line"/>
      <point x="222" y="0" type="line"/>
      <point x="222" y="337" type="line"/>
      <point x="222" y="361"/>
      <point x="272" y="481"/>
      <point x="405" y="481" type="curve"/>
      <point x="493" y="481"/>
      <point x="550" y="435"/>
      <point x="550" y="342" type="curve"/>
    </contour>
  </outline>
</glyph>
<glyph name="o" format="1">
  <advance width="750"/>
  <unicode hex="006F"/>
  <outline>
    <contour>
      <point x="375" y="613" type="move" name="top"/>
    </contour>
    <contour>
      <point x="60" y="282" type="curve"/>
      <point x="60" y="118"/>
      <point x="157" y="-14"/>
      <point x="375" y="-14" type="curve" smooth="yes"/>
      <point x="593" y="-14"/>
      <point x="690" y="118"/>
      <point x="690" y="282" type="curve" smooth="yes"/>
      <point x="690" y="445"/>
      <point x="593" y="578"/>
      <point x="375" y="578" type="curve" smooth="yes"/>
      <point x="157" y="578"/>
      <point x="60" y="445"/>
    </contour>
    <contour>
      <point x="188" y="282" type="curve"/>
      <point x="188" y="402"/>
      <point x="239" y="486"/>
      <point x="375" y="486" type="curve" smooth="yes"/>
      <point x="509" y="486"/>
      <point x="562" y="402"/>
      <point x="562" y="282" type="curve" smooth="yes"/>
      <point x="562" y="162"/>
      <point x="509" y="74"/>
      <point x="375" y="74" type="curve" smooth="yes"/>
      <point x="239" y="74"/>
      <point x="188" y="162"/>
    </contour>
  </outline>
</glyph>
<glyph name="p" format="1">
  <advance width="760"/>
  <unicode hex="0070"/>
  <outline>
    <contour>
      <point x="221" y="93" type="line"/>
      <point x="221" y="93"/>
      <point x="290" y="-14"/>
      <point x="433" y="-14" type="curve" smooth="yes"/>
      <point x="588" y="-14"/>
      <point x="698" y="112"/>
      <point x="698" y="282" type="curve" smooth="yes"/>
      <point x="698" y="452"/>
      <point x="588" y="578"/>
      <point x="435" y="578" type="curve" smooth="yes"/>
      <point x="256" y="578"/>
      <point x="207" y="423"/>
      <point x="207" y="423" type="curve"/>
      <point x="159" y="555" type="line"/>
      <point x="101" y="555" type="line"/>
      <point x="101" y="-223" type="line"/>
      <point x="221" y="-223" type="line"/>
    </contour>
    <contour>
      <point x="390" y="486" type="curve" smooth="yes"/>
      <point x="510" y="486"/>
      <point x="570" y="402"/>
      <point x="570" y="282" type="curve" smooth="yes"/>
      <point x="570" y="162"/>
      <point x="510" y="74"/>
      <point x="390" y="74" type="curve" smooth="yes"/>
      <point x="270" y="74"/>
      <point x="211" y="162"/>
      <point x="211" y="282" type="curve" smooth="yes"/>
      <point x="211" y="402"/>
      <point x="270" y="486"/>
    </contour>
  </outline>
</glyph>
<glyph name="q" format="1">
  <advance width="760"/>
  <unicode hex="0071"/>
  <outline>
    <contour>
      <point x="601" y="555" type="line"/>
      <point x="553" y="423" type="line"/>
      <point x="553" y="423"/>
      <point x="504" y="578"/>
      <point x="325" y="578" type="curve" smooth="yes"/>
      <point x="172" y="578"/>
      <point x="62" y="452"/>
      <point x="62" y="282" type="curve" smooth="yes"/>
      <point x="62" y="112"/>
      <point x="172" y="-14"/>
      <point x="327" y="-14" type="curve" smooth="yes"/>
      <point x="470" y="-14"/>
      <point x="539" y="93"/>
      <point x="539" y="93" type="curve"/>
      <point x="539" y="-223" type="line"/>
      <point x="659" y="-223" type="line"/>
      <point x="659" y="555" type="line"/>
    </contour>
    <contour>
      <point x="370" y="486" type="curve" smooth="yes"/>
      <point x="490" y="486"/>
      <point x="549" y="402"/>
      <point x="549" y="282" type="curve" smooth="yes"/>
      <point x="549" y="162"/>
      <point x="490" y="74"/>
      <point x="370" y="74" type="curve" smooth="yes"/>
      <point x="250" y="74"/>
      <point x="190" y="162"/>
      <point x="190" y="282" type="curve" smooth="yes"/>
      <point x="190" y="402"/>
      <point x="250" y="486"/>
    </contour>
  </outline>
</glyph>
<glyph name="r" format="1">
  <advance width="536"/>
  <unicode hex="0072"/>
  <outline>
    <contour>
      <point x="221" y="329" type="line" smooth="yes"/>
      <point x="221" y="361"/>
      <point x="254" y="481"/>
      <point x="341" y="481" type="curve"/>
      <point x="446" y="481"/>
      <point x="384" y="325"/>
      <point x="384" y="325" type="curve"/>
      <point x="494" y="348" type="line"/>
      <point x="494" y="348"/>
      <point x="564" y="578"/>
      <point x="382" y="578" type="curve"/>
      <point x="256" y="578"/>
      <point x="221" y="448"/>
      <point x="210" y="390" type="curve"/>
      <point x="159" y="555" type="line"/>
      <point x="101" y="555" type="line"/>
      <point x="101" y="0" type="line"/>
      <point x="221" y="0" type="line"/>
    </contour>
  </outline>
</glyph>
<glyph name="s" format="1">
  <advance width="647"/>
  <unicode hex="0073"/>
  <outline>
    <contour>
      <point x="484" y="393" type="line"/>
      <point x="484" y="393"/>
      <point x="434" y="481"/>
      <point x="314" y="481" type="curve"/>
      <point x="233" y="481"/>
      <point x="199" y="447"/>
      <point x="199" y="412" type="curve" smooth="yes"/>
      <point x="199" y="380"/>
      <point x="225" y="357"/>
      <point x="311" y="338" type="curve" smooth="yes"/>
      <point x="447" y="309" type="line" smooth="yes"/>
      <point x="558" y="286"/>
      <point x="617" y="237"/>
      <point x="617" y="160" type="curve"/>
      <point x="617" y="39"/>
      <point x="474" y="-14"/>
      <point x="361" y="-14" type="curve"/>
      <point x="168" y="-14"/>
      <point x="74" y="87"/>
      <point x="43" y="165" type="curve"/>
      <point x="134" y="208" type="line"/>
      <point x="162" y="143"/>
      <point x="225" y="81"/>
      <point x="366" y="81" type="curve"/>
      <point x="449" y="81"/>
      <point x="501" y="107"/>
      <point x="501" y="153" type="curve" smooth="yes"/>
      <point x="501" y="201"/>
      <point x="460" y="228"/>
      <point x="373" y="246" type="curve" smooth="yes"/>
      <point x="251" y="270" type="line" smooth="yes"/>
      <point x="150" y="290"/>
      <point x="88" y="344"/>
      <point x="88" y="416" type="curve"/>
      <point x="88" y="506"/>
      <point x="185" y="578"/>
      <point x="314" y="578" type="curve" smooth="yes"/>
      <point x="510" y="578"/>
      <point x="566" y="448"/>
      <point x="566" y="448" type="curve"/>
    </contour>
  </outline>
</glyph>
<glyph name="t" format="1">
  <advance width="522"/>
  <unicode hex="0074"/>
  <outline>
    <contour>
      <point x="30" y="481" type="line"/>
      <point x="154" y="481" type="line"/>
      <point x="154" y="188" type="line" smooth="yes"/>
      <point x="154" y="49"/>
      <point x="217" y="-14"/>
      <point x="333" y="-14" type="curve"/>
      <point x="419" y="-14"/>
      <point x="483" y="30"/>
      <point x="483" y="30" type="curve"/>
      <point x="448" y="110" type="line"/>
      <point x="448" y="110"/>
      <point x="411" y="81"/>
      <point x="357" y="81" type="curve"/>
      <point x="292" y="81"/>
      <point x="272" y="114"/>
      <point x="272" y="201" type="curve" smooth="yes"/>
      <point x="272" y="481" type="line"/>
      <point x="470" y="481" type="line"/>
      <point x="470" y="555" type="line"/>
      <point x="271" y="555" type="line"/>
      <point x="271" y="692" type="line"/>
      <point x="213" y="692" type="line"/>
      <point x="162" y="555" type="line"/>
      <point x="30" y="555" type="line"/>
    </contour>
  </outline>
</glyph>
<glyph name="u" format="1">
  <advance width="748"/>
  <unicode hex="0075"/>
  <outline>
    <contour>
      <point x="210" y="555" type="line"/>
      <point x="90" y="555" type="line"/>
      <point x="90" y="211" type="line" smooth="yes"/>
      <point x="90" y="71"/>
      <point x="158" y="-14"/>
      <point x="323" y="-14" type="curve" smooth="yes"/>
      <point x="535" y="-14"/>
      <point x="549" y="165"/>
      <point x="549" y="165" type="curve"/>
      <point x="600" y="0" type="line"/>
      <point x="658" y="0" type="line"/>
      <point x="658" y="555" type="line"/>
      <point x="538" y="555" type="line"/>
      <point x="538" y="225" type="line" smooth="yes"/>
      <point x="538" y="191"/>
      <point x="518" y="75"/>
      <point x="367" y="75" type="curve" smooth="yes"/>
      <point x="267" y="75"/>
      <point x="210" y="120"/>
      <point x="210" y="213" type="curve"/>
    </contour>
    <contour>
      <point x="384" y="613" type="move" name="top"/>
    </contour>
  </outline>
</glyph>
<glyph name="v" format="1">
  <advance width="676"/>
  <unicode hex="0076"/>
  <outline>
    <contour>
      <point x="662" y="555" type="line"/>
      <point x="526" y="555" type="line"/>
      <point x="338" y="87" type="line"/>
      <point x="152" y="555" type="line"/>
      <point x="14" y="555" type="line"/>
      <point x="272" y="0" type="line"/>
      <point x="403" y="0" type="line"/>
    </contour>
  </outline>
</glyph>
<glyph name="w" format="1">
  <advance width="1059"/>
  <unicode hex="0077"/>
  <outline>
    <contour>
      <point x="249" y="0" type="line"/>
      <point x="380" y="0" type="line"/>
      <point x="530" y="465" type="line"/>
      <point x="679" y="0" type="line"/>
      <point x="811" y="0" type="line"/>
      <point x="1025" y="555" type="line"/>
      <point x="905" y="555" type="line"/>
      <point x="748" y="95" type="line"/>
      <point x="602" y="555" type="line"/>
      <point x="457" y="555" type="line"/>
      <point x="312" y="95" type="line"/>
      <point x="154" y="555" type="line"/>
      <point x="34" y="555" type="line"/>
    </contour>
  </outline>
</glyph>
<glyph name="x" format="1">
  <advance width="671"/>
  <unicode hex="0078"/>
  <outline>
    <contour>
      <point x="14" y="0" type="line"/>
      <point x="168" y="0" type="line"/>
      <point x="335" y="204" type="line"/>
      <point x="503" y="0" type="line"/>
      <point x="656" y="0" type="line"/>
      <point x="403" y="276" type="line"/>
      <point x="656" y="555" type="line"/>
      <point x="507" y="555" type="line"/>
      <point x="335" y="350" type="line"/>
      <point x="163" y="555" type="line"/>
      <point x="14" y="555" type="line"/>
      <point x="266" y="276" type="line"/>
    </contour>
  </outline>
</glyph>
<glyph name="y" format="1">
  <advance width="636"/>
  <unicode hex="0079"/>
  <outline>
    <contour>
      <point x="246" y="-1" type="line" smooth="yes"/>
      <point x="209" y="-86"/>
      <point x="153" y="-145"/>
      <point x="104" y="-145" type="curve" smooth="yes"/>
      <point x="55" y="-145"/>
      <point x="34" y="-104"/>
      <point x="33" y="-102" type="curve"/>
      <point x="19" y="-191" type="line"/>
      <point x="19" y="-191"/>
      <point x="55" y="-237"/>
      <point x="129" y="-237" type="curve" smooth="yes"/>
      <point x="221" y="-237"/>
      <point x="282" y="-154"/>
      <point x="357" y="0" type="curve" smooth="yes"/>
      <point x="626" y="555" type="line"/>
      <point x="490" y="555" type="line"/>
      <point x="323" y="162" type="line"/>
      <point x="148" y="555" type="line"/>
      <point x="10" y="555" type="line"/>
      <point x="262" y="35" type="line"/>
    </contour>
    <contour>
      <point x="305" y="613" type="move" name="top"/>
    </contour>
  </outline>
</glyph>
<glyph name="z" format="1">
  <advance width="610"/>
  <unicode hex="007A"/>
  <outline>
    <contour>
      <point x="40" y="0" type="line"/>
      <point x="570" y="0" type="line"/>
      <point x="570" y="75" type="line"/>
      <point x="195" y="75" type="line"/>
      <point x="570" y="470" type="line"/>
      <point x="570" y="555" type="line"/>
      <point x="40" y="555" type="line"/>
      <point x="40" y="480" type="line"/>
      <point x="420" y="480" type="line"/>
      <point x="40" y="85" type="line"/>
    </contour>
  </outline>
</glyph>
<glyph name="braceleft" format="1">
  <advance width="413"/>
  <unicode hex="007B"/>
  <outline>
    <contour>
      <point x="220" y="510" type="curve"/>
      <point x="220" y="816" type="line" smooth="yes"/>
      <point x="220" y="858"/>
      <point x="241" y="871"/>
      <point x="272" y="871" type="curve" smooth="yes"/>
      <point x="299" y="871"/>
      <point x="327" y="850"/>
      <point x="327" y="850" type="curve"/>
      <point x="355" y="906" type="line"/>
      <point x="355" y="906"/>
      <point x="292" y="954"/>
      <point x="225" y="954" type="curve" smooth="yes"/>
      <point x="150" y="954"/>
      <point x="116" y="908"/>
      <point x="116" y="844" type="curve" smooth="yes"/>
      <point x="116" y="516" type="line" smooth="yes"/>
      <point x="116" y="438"/>
      <point x="29" y="413"/>
      <point x="29" y="413" type="curve"/>
      <point x="29" y="347" type="line"/>
      <point x="29" y="347"/>
      <point x="116" y="322"/>
      <point x="116" y="244" type="curve" smooth="yes"/>
      <point x="116" y="-87" type="line" smooth="yes"/>
      <point x="116" y="-150"/>
      <point x="150" y="-195"/>
      <point x="225" y="-195" type="curve" smooth="yes"/>
      <point x="292" y="-195"/>
      <point x="355" y="-149"/>
      <point x="355" y="-149" type="curve"/>
      <point x="327" y="-92" type="line"/>
      <point x="327" y="-92"/>
      <point x="298" y="-114"/>
      <point x="266" y="-114" type="curve" smooth="yes"/>
      <point x="231" y="-114"/>
      <point x="220" y="-101"/>
      <point x="220" y="-59" type="curve" smooth="yes"/>
      <point x="220" y="250" type="line" smooth="yes"/>
      <point x="220" y="350"/>
      <point x="114" y="379"/>
      <point x="108" y="380" type="curve"/>
      <point x="118" y="383"/>
      <point x="220" y="412"/>
    </contour>
  </outline>
</glyph>
<glyph name="bar" format="1">
  <advance width="434"/>
  <unicode hex="007C"/>
  <outline>
    <contour>
      <point x="238" y="-223" type="line"/>
      <point x="238" y="1012" type="line"/>
      <point x="195" y="1012" type="line"/>
      <point x="195" y="-223" type="line"/>
    </contour>
  </outline>
</glyph>
<glyph name="braceright" format="1">
  <advance width="413"/>
  <unicode hex="007D"/>
  <outline>
    <contour>
      <point x="194" y="250" type="curve"/>
      <point x="194" y="-59" type="line" smooth="yes"/>
      <point x="194" y="-101"/>
      <point x="182" y="-114"/>
      <point x="147" y="-114" type="curve" smooth="yes"/>
      <point x="116" y="-114"/>
      <point x="87" y="-92"/>
      <point x="87" y="-92" type="curve"/>
      <point x="58" y="-149" type="line"/>
      <point x="58" y="-149"/>
      <point x="121" y="-195"/>
      <point x="188" y="-195" type="curve" smooth="yes"/>
      <point x="263" y="-195"/>
      <point x="298" y="-150"/>
      <point x="298" y="-87" type="curve" smooth="yes"/>
      <point x="298" y="244" type="line" smooth="yes"/>
      <point x="298" y="322"/>
      <point x="384" y="347"/>
      <point x="384" y="347" type="curve"/>
      <point x="384" y="413" type="line"/>
      <point x="384" y="413"/>
      <point x="298" y="438"/>
      <point x="298" y="516" type="curve" smooth="yes"/>
      <point x="298" y="844" type="line" smooth="yes"/>
      <point x="298" y="908"/>
      <point x="263" y="954"/>
      <point x="188" y="954" type="curve" smooth="yes"/>
      <point x="121" y="954"/>
      <point x="58" y="906"/>
      <point x="58" y="906" type="curve"/>
      <point x="87" y="850" type="line"/>
      <point x="87" y="850"/>
      <point x="114" y="871"/>
      <point x="142" y="871" type="curve" smooth="yes"/>
      <point x="172" y="871"/>
      <point x="194" y="858"/>
      <point x="194" y="816" type="curve" smooth="yes"/>
      <point x="194" y="510" type="line" smooth="yes"/>
      <point x="194" y="410"/>
      <point x="299" y="382"/>
      <point x="303" y="380" type="curve"/>
      <point x="293" y="377"/>
      <point x="194" y="347"/>
    </contour>
  </outline>
</glyph>
<glyph name="exclamdown" format="1">
  <advance width="272"/>
  <unicode hex="00A1"/>
  <outline>
    <contour>
      <point x="199" y="-348" type="line"/>
      <point x="188" y="189" type="line"/>
      <point x="85" y="189" type="line"/>
      <point x="72" y="-348" type="line"/>
    </contour>
    <contour>
      <point x="58" y="445" type="line"/>
      <point x="58" y="319" type="line"/>
      <point x="214" y="319" type="line"/>
      <point x="214" y="445" type="line"/>
    </contour>
  </outline>
</glyph>
<glyph name="cent" format="1">
  <advance width="734"/>
  <unicode hex="00A2"/>
  <outline>
    <contour>
      <point x="403" y="-136" type="line"/>
      <point x="403" y="-13" type="line"/>
      <point x="662" y="-3"/>
      <point x="660" y="215"/>
      <point x="660" y="215" type="curve"/>
      <point x="546" y="215" type="line"/>
      <point x="546" y="215"/>
      <point x="546" y="91"/>
      <point x="403" y="81" type="curve"/>
      <point x="403" y="480" type="line"/>
      <point x="506" y="471"/>
      <point x="558" y="392"/>
      <point x="545" y="299" type="curve"/>
      <point x="647" y="321" type="line"/>
      <point x="660" y="421"/>
      <point x="585" y="568"/>
      <point x="403" y="578" type="curve"/>
      <point x="403" y="692" type="line"/>
      <point x="360" y="692" type="line"/>
      <point x="360" y="577" type="line"/>
      <point x="171" y="566"/>
      <point x="72" y="431"/>
      <point x="72" y="280" type="curve" smooth="yes"/>
      <point x="72" y="100"/>
      <point x="192" y="-4"/>
      <point x="360" y="-13" type="curve"/>
      <point x="360" y="-136" type="line"/>
    </contour>
    <contour>
      <point x="199" y="283" type="curve" smooth="yes"/>
      <point x="199" y="387"/>
      <point x="259" y="468"/>
      <point x="360" y="480" type="curve"/>
      <point x="360" y="82" type="line"/>
      <point x="256" y="91"/>
      <point x="199" y="162"/>
    </contour>
  </outline>
</glyph>
<glyph name="sterling" format="1">
  <advance width="753"/>
  <unicode hex="00A3"/>
  <outline>
    <contour>
      <point x="61" y="314" type="line"/>
      <point x="238" y="314" type="line"/>
      <point x="260" y="285"/>
      <point x="276" y="251"/>
      <point x="276" y="207" type="curve" smooth="yes"/>
      <point x="276" y="197"/>
      <point x="275" y="188"/>
      <point x="273" y="179" type="curve"/>
      <point x="237" y="208"/>
      <point x="198" y="233"/>
      <point x="130" y="233" type="curve" smooth="yes"/>
      <point x="45" y="233"/>
      <point x="0" y="182"/>
      <point x="0" y="110" type="curve" smooth="yes"/>
      <point x="0" y="30"/>
      <point x="56" y="-14"/>
      <point x="153" y="-14" type="curve" smooth="yes"/>
      <point x="228" y="-14"/>
      <point x="285" y="17"/>
      <point x="322" y="59" type="curve"/>
      <point x="368" y="19"/>
      <point x="421" y="-14"/>
      <point x="501" y="-14" type="curve" smooth="yes"/>
      <point x="694" y="-14"/>
      <point x="775" y="138"/>
      <point x="775" y="299" type="curve"/>
      <point x="654" y="299" type="line"/>
      <point x="654" y="202"/>
      <point x="611" y="81"/>
      <point x="484" y="81" type="curve" smooth="yes"/>
      <point x="428" y="81"/>
      <point x="390" y="94"/>
      <point x="358" y="113" type="curve"/>
      <point x="371" y="142"/>
      <point x="379" y="171"/>
      <point x="379" y="197" type="curve" smooth="yes"/>
      <point x="379" y="243"/>
      <point x="371" y="280"/>
      <point x="360" y="314" type="curve"/>
      <point x="527" y="314" type="line"/>
      <point x="527" y="357" type="line"/>
      <point x="341" y="357" type="line"/>
      <point x="285" y="462"/>
      <point x="185" y="499"/>
      <point x="185" y="581" type="curve" smooth="yes"/>
      <point x="185" y="642"/>
      <point x="247" y="692"/>
      <point x="374" y="692" type="curve" smooth="yes"/>
      <point x="574" y="692"/>
      <point x="624" y="549"/>
      <point x="624" y="549" type="curve"/>
      <point x="716" y="600" type="line"/>
      <point x="716" y="600"/>
      <point x="632" y="788"/>
      <point x="383" y="788" type="curve" smooth="yes"/>
      <point x="143" y="788"/>
      <point x="51" y="665"/>
      <point x="51" y="571" type="curve" smooth="yes"/>
      <point x="51" y="460"/>
      <point x="130" y="413"/>
      <point x="195" y="357" type="curve"/>
      <point x="61" y="357" type="line"/>
    </contour>
    <contour>
      <point x="147" y="52" type="curve" smooth="yes"/>
      <point x="104" y="52"/>
      <point x="77" y="79"/>
      <point x="77" y="113" type="curve" smooth="yes"/>
      <point x="77" y="146"/>
      <point x="95" y="173"/>
      <point x="137" y="173" type="curve" smooth="yes"/>
      <point x="179" y="173"/>
      <point x="215" y="150"/>
      <point x="251" y="120" type="curve"/>
      <point x="228" y="81"/>
      <point x="189" y="52"/>
    </contour>
  </outline>
</glyph>
<glyph name="yen" format="1">
  <advance width="800"/>
  <unicode hex="00A5"/>
  <outline>
    <contour>
      <point x="335" y="377" type="line"/>
      <point x="335" y="332" type="line"/>
      <point x="115" y="332" type="line"/>
      <point x="115" y="282" type="line"/>
      <point x="335" y="282" type="line"/>
      <point x="335" y="172" type="line"/>
      <point x="115" y="172" type="line"/>
      <point x="115" y="122" type="line"/>
      <point x="335" y="122" type="line"/>
      <point x="335" y="0" type="line"/>
      <point x="465" y="0" type="line"/>
      <point x="465" y="122" type="line"/>
      <point x="685" y="122" type="line"/>
      <point x="685" y="172" type="line"/>
      <point x="465" y="172" type="line"/>
      <point x="465" y="282" type="line"/>
      <point x="685" y="282" type="line"/>
      <point x="685" y="332" type="line"/>
      <point x="465" y="332" type="line"/>
      <point x="465" y="377" type="line"/>
      <point x="790" y="777" type="line"/>
      <point x="630" y="777" type="line"/>
      <point x="400" y="474" type="line"/>
      <point x="170" y="777" type="line"/>
      <point x="10" y="777" type="line"/>
    </contour>
  </outline>
</glyph>
<glyph name="brokenbar" format="1">
  <advance width="170"/>
  <unicode hex="00A6"/>
  <outline>
    <contour>
      <point x="60" y="225" type="line"/>
      <point x="60" y="-110" type="line"/>
      <point x="110" y="-110" type="line"/>
      <point x="110" y="225" type="line"/>
    </contour>
    <contour>
      <point x="60" y="729" type="line"/>
      <point x="60" y="394" type="line"/>
      <point x="110" y="394" type="line"/>
      <point x="110" y="729" type="line"/>
    </contour>
  </outline>
</glyph>
<glyph name="section" format="1">
  <advance width="647"/>
  <unicode hex="00A7"/>
  <outline>
    <contour>
      <point x="513" y="608" type="line"/>
      <point x="513" y="608"/>
      <point x="462" y="711"/>
      <point x="348" y="711" type="curve" smooth="yes"/>
      <point x="267" y="711"/>
      <point x="228" y="656"/>
      <point x="228" y="601" type="curve" smooth="yes"/>
      <point x="228" y="516"/>
      <point x="285" y="461"/>
      <point x="419" y="448" type="curve" smooth="yes"/>
      <point x="575" y="434"/>
      <point x="617" y="363"/>
      <point x="617" y="296" type="curve" smooth="yes"/>
      <point x="617" y="176"/>
      <point x="454" y="136"/>
      <point x="449" y="136" type="curve"/>
      <point x="462" y="132"/>
      <point x="585" y="84"/>
      <point x="585" y="-53" type="curve" smooth="yes"/>
      <point x="585" y="-143"/>
      <point x="491" y="-233"/>
      <point x="348" y="-233" type="curve" smooth="yes"/>
      <point x="155" y="-233"/>
      <point x="95" y="-98"/>
      <point x="95" y="-98" type="curve"/>
      <point x="175" y="-33" type="line"/>
      <point x="175" y="-33"/>
      <point x="227" y="-136"/>
      <point x="353" y="-136" type="curve" smooth="yes"/>
      <point x="434" y="-136"/>
      <point x="474" y="-84"/>
      <point x="474" y="-23" type="curve" smooth="yes"/>
      <point x="474" y="35"/>
      <point x="434" y="100"/>
      <point x="322" y="111" type="curve" smooth="yes"/>
      <point x="152" y="129"/>
      <point x="91" y="195"/>
      <point x="91" y="273" type="curve" smooth="yes"/>
      <point x="91" y="392"/>
      <point x="259" y="422"/>
      <point x="267" y="423" type="curve"/>
      <point x="253" y="426"/>
      <point x="117" y="464"/>
      <point x="117" y="616" type="curve" smooth="yes"/>
      <point x="117" y="714"/>
      <point x="215" y="808"/>
      <point x="360" y="808" type="curve" smooth="yes"/>
      <point x="539" y="808"/>
      <point x="591" y="675"/>
      <point x="591" y="675" type="curve"/>
    </contour>
    <contour>
      <point x="500" y="288" type="curve" smooth="yes"/>
      <point x="500" y="316"/>
      <point x="460" y="351"/>
      <point x="347" y="351" type="curve" smooth="yes"/>
      <point x="237" y="351"/>
      <point x="199" y="316"/>
      <point x="199" y="288" type="curve" smooth="yes"/>
      <point x="199" y="256"/>
      <point x="227" y="217"/>
      <point x="348" y="217" type="curve" smooth="yes"/>
      <point x="468" y="217"/>
      <point x="500" y="254"/>
    </contour>
  </outline>
</glyph>
<glyph name="dieresis" format="1">
  <advance width="358"/>
  <unicode hex="00A8"/>
  <outline>
    <contour>
      <point x="179" y="613" type="move" name="_top"/>
    </contour>
    <contour>
      <point x="15" y="766" type="line"/>
      <point x="15" y="660" type="line"/>
      <point x="131" y="660" type="line"/>
      <point x="131" y="766" type="line"/>
    </contour>
    <contour>
      <point x="228" y="766" type="line"/>
      <point x="228" y="660" type="line"/>
      <point x="344" y="660" type="line"/>
      <point x="344" y="766" type="line"/>
    </contour>
  </outline>
</glyph>
<glyph name="copyright" format="1">
  <advance width="775"/>
  <unicode hex="00A9"/>
  <outline>
    <contour>
      <point x="25" y="275" type="curve" smooth="yes"/>
      <point x="25" y="74"/>
      <point x="188" y="-90"/>
      <point x="389" y="-90" type="curve" smooth="yes"/>
      <point x="590" y="-90"/>
      <point x="753" y="74"/>
      <point x="753" y="275" type="curve" smooth="yes"/>
      <point x="753" y="475"/>
      <point x="590" y="639"/>
      <point x="389" y="639" type="curve" smooth="yes"/>
      <point x="188" y="639"/>
      <point x="25" y="475"/>
    </contour>
    <contour>
      <point x="69" y="275" type="curve" smooth="yes"/>
      <point x="69" y="457"/>
      <point x="207" y="595"/>
      <point x="389" y="595" type="curve" smooth="yes"/>
      <point x="569" y="595"/>
      <point x="710" y="457"/>
      <point x="710" y="275" type="curve" smooth="yes"/>
      <point x="710" y="94"/>
      <point x="569" y="-46"/>
      <point x="389" y="-46" type="curve" smooth="yes"/>
      <point x="207" y="-46"/>
      <point x="69" y="94"/>
    </contour>
    <contour>
      <point x="535" y="261" type="line"/>
      <point x="535" y="261"/>
      <point x="527" y="100"/>
      <point x="390" y="100" type="curve" smooth="yes"/>
      <point x="306" y="100"/>
      <point x="245" y="155"/>
      <point x="245" y="275" type="curve" smooth="yes"/>
      <point x="245" y="388"/>
      <point x="308" y="437"/>
      <point x="378" y="437" type="curve" smooth="yes"/>
      <point x="496" y="437"/>
      <point x="519" y="317"/>
      <point x="519" y="317" type="curve"/>
      <point x="611" y="377" type="line"/>
      <point x="611" y="377"/>
      <point x="572" y="511"/>
      <point x="379" y="511" type="curve" smooth="yes"/>
      <point x="216" y="511"/>
      <point x="128" y="400"/>
      <point x="128" y="273" type="curve" smooth="yes"/>
      <point x="128" y="126"/>
      <point x="233" y="29"/>
      <point x="387" y="29" type="curve" smooth="yes"/>
      <point x="576" y="29"/>
      <point x="639" y="160"/>
      <point x="639" y="261" type="curve"/>
    </contour>
  </outline>
</glyph>
<glyph name="guillemotleft" format="1">
  <advance width="605"/>
  <unicode hex="00AB"/>
  <outline>
    <contour>
      <point x="29" y="277" type="line"/>
      <point x="341" y="38" type="line"/>
      <point x="341" y="130" type="line"/>
      <point x="147" y="277" type="line"/>
      <point x="345" y="431" type="line"/>
      <point x="345" y="522" type="line"/>
    </contour>
    <contour>
      <point x="271" y="277" type="line"/>
      <point x="583" y="38" type="line"/>
      <point x="583" y="130" type="line"/>
      <point x="390" y="277" type="line"/>
      <point x="588" y="431" type="line"/>
      <point x="588" y="522" type="line"/>
    </contour>
  </outline>
</glyph>
<glyph name="registered" format="1">
  <advance width="775"/>
  <unicode hex="00AE"/>
  <outline>
    <contour>
      <point x="25" y="275" type="curve" smooth="yes"/>
      <point x="25" y="74"/>
      <point x="188" y="-90"/>
      <point x="389" y="-90" type="curve" smooth="yes"/>
      <point x="590" y="-90"/>
      <point x="753" y="74"/>
      <point x="753" y="275" type="curve" smooth="yes"/>
      <point x="753" y="475"/>
      <point x="590" y="639"/>
      <point x="389" y="639" type="curve" smooth="yes"/>
      <point x="188" y="639"/>
      <point x="25" y="475"/>
    </contour>
    <contour>
      <point x="69" y="275" type="curve" smooth="yes"/>
      <point x="69" y="457"/>
      <point x="207" y="595"/>
      <point x="389" y="595" type="curve" smooth="yes"/>
      <point x="569" y="595"/>
      <point x="710" y="457"/>
      <point x="710" y="275" type="curve" smooth="yes"/>
      <point x="710" y="94"/>
      <point x="569" y="-46"/>
      <point x="389" y="-46" type="curve" smooth="yes"/>
      <point x="207" y="-46"/>
      <point x="69" y="94"/>
    </contour>
    <contour>
      <point x="595" y="357" type="curve" smooth="yes"/>
      <point x="595" y="435"/>
      <point x="541" y="494"/>
      <point x="428" y="494" type="curve" smooth="yes"/>
      <point x="187" y="494" type="line"/>
      <point x="187" y="48" type="line"/>
      <point x="292" y="48" type="line"/>
      <point x="292" y="217" type="line"/>
      <point x="338" y="217" type="line"/>
      <point x="474" y="48" type="line"/>
      <point x="591" y="48" type="line"/>
      <point x="440" y="227" type="line"/>
      <point x="494" y="227"/>
      <point x="595" y="250"/>
    </contour>
    <contour>
      <point x="294" y="420" type="line"/>
      <point x="420" y="420" type="line" smooth="yes"/>
      <point x="459" y="420"/>
      <point x="485" y="395"/>
      <point x="485" y="361" type="curve" smooth="yes"/>
      <point x="485" y="324"/>
      <point x="459" y="299"/>
      <point x="419" y="299" type="curve" smooth="yes"/>
      <point x="294" y="299" type="line"/>
    </contour>
  </outline>
</glyph>
<glyph name="degree" format="1">
  <advance width="1204"/>
  <unicode hex="00B0"/>
  <outline>
    <contour>
      <point x="451" y="718" type="curve" smooth="yes"/>
      <point x="451" y="632"/>
      <point x="512" y="571"/>
      <point x="598" y="571" type="curve" smooth="yes"/>
      <point x="685" y="571"/>
      <point x="747" y="632"/>
      <point x="747" y="718" type="curve" smooth="yes"/>
      <point x="747" y="805"/>
      <point x="685" y="867"/>
      <point x="598" y="867" type="curve" smooth="yes"/>
      <point x="512" y="867"/>
      <point x="451" y="805"/>
    </contour>
    <contour>
      <point x="490" y="718" type="curve" smooth="yes"/>
      <point x="490" y="782"/>
      <point x="533" y="827"/>
      <point x="598" y="827" type="curve" smooth="yes"/>
      <point x="663" y="827"/>
      <point x="707" y="782"/>
      <point x="707" y="718" type="curve" smooth="yes"/>
      <point x="707" y="655"/>
      <point x="663" y="610"/>
      <point x="598" y="610" type="curve" smooth="yes"/>
      <point x="533" y="610"/>
      <point x="490" y="653"/>
    </contour>
  </outline>
</glyph>
<glyph name="acute" format="1">
  <advance width="1204"/>
  <unicode hex="00B4"/>
  <outline>
    <contour>
      <point x="601" y="613" type="move" name="_top"/>
    </contour>
    <contour>
      <point x="738" y="788" type="line"/>
      <point x="439" y="673" type="line"/>
      <point x="455" y="620" type="line"/>
      <point x="768" y="678" type="line"/>
    </contour>
  </outline>
</glyph>
<glyph name="mu" format="1">
  <advance width="748"/>
  <unicode hex="00B5"/>
  <outline>
    <contour>
      <point x="210" y="555" type="line"/>
      <point x="90" y="555" type="line"/>
      <point x="90" y="-223" type="line"/>
      <point x="210" y="-223" type="line"/>
      <point x="210" y="34" type="line"/>
      <point x="231" y="9"/>
      <point x="300" y="-14"/>
      <point x="343" y="-14" type="curve" smooth="yes"/>
      <point x="535" y="-14"/>
      <point x="549" y="165"/>
      <point x="549" y="165" type="curve"/>
      <point x="600" y="0" type="line"/>
      <point x="658" y="0" type="line"/>
      <point x="658" y="555" type="line"/>
      <point x="538" y="555" type="line"/>
      <point x="538" y="225" type="line" smooth="yes"/>
      <point x="538" y="191"/>
      <point x="518" y="75"/>
      <point x="367" y="75" type="curve" smooth="yes"/>
      <point x="267" y="75"/>
      <point x="210" y="140"/>
      <point x="210" y="253" type="curve" smooth="yes"/>
    </contour>
    <contour>
      <point x="384" y="613" type="move" name="top"/>
    </contour>
  </outline>
</glyph>
<glyph name="paragraph" format="1">
  <advance width="694"/>
  <unicode hex="00B6"/>
  <outline>
    <contour>
      <point x="322" y="-223" type="line"/>
      <point x="422" y="-223" type="line"/>
      <point x="422" y="682" type="line"/>
      <point x="509" y="682" type="line"/>
      <point x="509" y="-223" type="line"/>
      <point x="607" y="-223" type="line"/>
      <point x="607" y="777" type="line"/>
      <point x="322" y="777" type="line" smooth="yes"/>
      <point x="168" y="777"/>
      <point x="43" y="718"/>
      <point x="43" y="555" type="curve" smooth="yes"/>
      <point x="43" y="409"/>
      <point x="166" y="338"/>
      <point x="324" y="338" type="curve"/>
    </contour>
  </outline>
</glyph>
<glyph name="cedilla" format="1">
  <advance width="1204"/>
  <unicode hex="00B8"/>
  <outline>
    <contour>
      <point x="601" y="-29" type="move" name="_bottom"/>
    </contour>
    <contour>
      <point x="546" y="-223" type="line"/>
      <point x="747" y="-78" type="line"/>
      <point x="721" y="-32" type="line"/>
      <point x="493" y="-134" type="line"/>
    </contour>
  </outline>
</glyph>
<glyph name="guillemotright" format="1">
  <advance width="605"/>
  <unicode hex="00BB"/>
  <outline>
    <contour>
      <point x="18" y="522" type="line"/>
      <point x="18" y="431" type="line"/>
      <point x="216" y="277" type="line"/>
      <point x="22" y="130" type="line"/>
      <point x="22" y="38" type="line"/>
      <point x="334" y="277" type="line"/>
    </contour>
    <contour>
      <point x="260" y="522" type="line"/>
      <point x="260" y="431" type="line"/>
      <point x="458" y="277" type="line"/>
      <point x="264" y="130" type="line"/>
      <point x="264" y="38" type="line"/>
      <point x="577" y="277" type="line"/>
    </contour>
  </outline>
</glyph>
<glyph name="onequarter" format="1">
  <advance width="778"/>
  <unicode hex="00BC"/>
  <outline>
    <contour>
      <point x="582" y="784" type="line" name="hr00"/>
      <point x="171" y="20" type="line"/>
      <point x="217" y="-3" type="line"/>
      <point x="630" y="760" type="line"/>
    </contour>
    <contour>
      <point x="320" y="390" type="line"/>
      <point x="320" y="432" type="line"/>
      <point x="215" y="432" type="line"/>
      <point x="215" y="778" type="line"/>
      <point x="150" y="778" type="line"/>
      <point x="150" y="702"/>
      <point x="99" y="679"/>
      <point x="0" y="679" type="curve"/>
      <point x="0" y="630" type="line"/>
      <point x="124" y="630"/>
      <point x="149" y="661"/>
      <point x="149" y="736" type="curve" smooth="yes"/>
      <point x="150" y="432" type="line"/>
      <point x="0" y="432" type="line"/>
      <point x="0" y="390" type="line"/>
    </contour>
    <contour>
      <point x="403" y="94" type="line"/>
      <point x="635" y="94" type="line"/>
      <point x="635" y="0" type="line"/>
      <point x="700" y="0" type="line"/>
      <point x="700" y="94" type="line"/>
      <point x="778" y="94" type="line"/>
      <point x="778" y="136" type="line"/>
      <point x="700" y="136" type="line"/>
      <point x="700" y="388" type="line"/>
      <point x="614" y="388" type="line"/>
      <point x="403" y="156" type="line"/>
    </contour>
    <contour>
      <point x="635" y="341" type="line"/>
      <point x="635" y="136" type="line"/>
      <point x="453" y="136" type="line"/>
    </contour>
  </outline>
</glyph>
<glyph name="onehalf" format="1">
  <advance width="778"/>
  <unicode hex="00BD"/>
  <outline>
    <contour>
      <point x="582" y="784" type="line" name="hr00"/>
      <point x="171" y="20" type="line"/>
      <point x="217" y="-3" type="line"/>
      <point x="630" y="760" type="line"/>
    </contour>
    <contour>
      <point x="320" y="390" type="line"/>
      <point x="320" y="432" type="line"/>
      <point x="215" y="432" type="line"/>
      <point x="215" y="778" type="line"/>
      <point x="150" y="778" type="line"/>
      <point x="150" y="702"/>
      <point x="99" y="679"/>
      <point x="0" y="679" type="curve"/>
      <point x="0" y="630" type="line"/>
      <point x="124" y="630"/>
      <point x="149" y="661"/>
      <point x="149" y="736" type="curve" smooth="yes"/>
      <point x="150" y="432" type="line"/>
      <point x="0" y="432" type="line"/>
      <point x="0" y="390" type="line"/>
    </contour>
    <contour>
      <point x="770" y="268" type="curve" smooth="yes"/>
      <point x="770" y="340"/>
      <point x="718" y="395"/>
      <point x="614" y="395" type="curve" smooth="yes"/>
      <point x="510" y="395"/>
      <point x="460" y="329"/>
      <point x="460" y="269" type="curve" smooth="yes"/>
      <point x="460" y="203"/>
      <point x="508" y="166"/>
      <point x="508" y="166" type="curve"/>
      <point x="575" y="186" type="line"/>
      <point x="575" y="186"/>
      <point x="527" y="215"/>
      <point x="527" y="267" type="curve" smooth="yes"/>
      <point x="527" y="309"/>
      <point x="552" y="346"/>
      <point x="613" y="346" type="curve" smooth="yes"/>
      <point x="675" y="346"/>
      <point x="702" y="309"/>
      <point x="702" y="266" type="curve" smooth="yes"/>
      <point x="702" y="139"/>
      <point x="458" y="37"/>
      <point x="458" y="37" type="curve"/>
      <point x="458" y="0" type="line"/>
      <point x="778" y="0" type="line"/>
      <point x="778" y="42" type="line"/>
      <point x="558" y="42" type="line"/>
      <point x="615" y="78"/>
      <point x="770" y="148"/>
    </contour>
  </outline>
</glyph>
<glyph name="threequarters" format="1">
  <advance width="778"/>
  <unicode hex="00BE"/>
  <outline>
    <contour>
      <point x="168" y="574" type="line"/>
      <point x="226" y="574"/>
      <point x="276" y="559"/>
      <point x="276" y="507" type="curve" smooth="yes"/>
      <point x="276" y="462"/>
      <point x="238" y="438"/>
      <point x="178" y="438" type="curve" smooth="yes"/>
      <point x="59" y="438"/>
      <point x="67" y="543"/>
      <point x="67" y="543" type="curve"/>
      <point x="0" y="523" type="line"/>
      <point x="0" y="523"/>
      <point x="5" y="389"/>
      <point x="180" y="389" type="curve" smooth="yes"/>
      <point x="268" y="389"/>
      <point x="345" y="425"/>
      <point x="345" y="506" type="curve"/>
      <point x="345" y="606"/>
      <point x="231" y="604"/>
      <point x="231" y="604" type="curve"/>
      <point x="231" y="604"/>
      <point x="335" y="604"/>
      <point x="335" y="689" type="curve"/>
      <point x="335" y="746"/>
      <point x="276" y="791"/>
      <point x="186" y="791" type="curve"/>
      <point x="35" y="791"/>
      <point x="20" y="670"/>
      <point x="20" y="670" type="curve"/>
      <point x="87" y="650" type="line"/>
      <point x="87" y="650"/>
      <point x="80" y="742"/>
      <point x="183" y="742" type="curve"/>
      <point x="233" y="742"/>
      <point x="266" y="716"/>
      <point x="266" y="680" type="curve"/>
      <point x="266" y="640"/>
      <point x="227" y="616"/>
      <point x="168" y="616" type="curve"/>
      <point x="143" y="616" type="line"/>
      <point x="143" y="574" type="line"/>
    </contour>
    <contour>
      <point x="582" y="784" type="line" name="hr00"/>
      <point x="171" y="20" type="line"/>
      <point x="217" y="-3" type="line"/>
      <point x="630" y="760" type="line"/>
    </contour>
    <contour>
      <point x="403" y="94" type="line"/>
      <point x="635" y="94" type="line"/>
      <point x="635" y="0" type="line"/>
      <point x="700" y="0" type="line"/>
      <point x="700" y="94" type="line"/>
      <point x="778" y="94" type="line"/>
      <point x="778" y="136" type="line"/>
      <point x="700" y="136" type="line"/>
      <point x="700" y="388" type="line"/>
      <point x="614" y="388" type="line"/>
      <point x="403" y="156" type="line"/>
    </contour>
    <contour>
      <point x="635" y="341" type="line"/>
      <point x="635" y="136" type="line"/>
      <point x="453" y="136" type="line"/>
    </contour>
  </outline>
</glyph>
<glyph name="questiondown" format="1">
  <advance width="832"/>
  <unicode hex="00BF"/>
  <outline>
    <contour>
      <point x="318" y="445" type="line"/>
      <point x="318" y="319" type="line"/>
      <point x="474" y="319" type="line"/>
      <point x="474" y="445" type="line"/>
    </contour>
    <contour>
      <point x="751" y="-139" type="curve" smooth="yes"/>
      <point x="751" y="103"/>
      <point x="458" y="33"/>
      <point x="458" y="188" type="curve"/>
      <point x="334" y="188" type="line"/>
      <point x="334" y="-32"/>
      <point x="620" y="80"/>
      <point x="620" y="-120" type="curve" smooth="yes"/>
      <point x="620" y="-196"/>
      <point x="555" y="-264"/>
      <point x="444" y="-264" type="curve" smooth="yes"/>
      <point x="220" y="-264"/>
      <point x="182" y="-55"/>
      <point x="182" y="-55" type="curve"/>
      <point x="83" y="-80" type="line"/>
      <point x="83" y="-80"/>
      <point x="130" y="-360"/>
      <point x="454" y="-360" type="curve" smooth="yes"/>
      <point x="666" y="-360"/>
      <point x="751" y="-241"/>
    </contour>
  </outline>
</glyph>
<glyph name="Acircumflex" format="1">
  <advance width="934"/>
  <unicode hex="00C2"/>
  <outline>
    <contour>
      <point x="0" y="0" type="line"/>
      <point x="129" y="0" type="line"/>
      <point x="240" y="253" type="line"/>
      <point x="691" y="253" type="line"/>
      <point x="691" y="256" type="line"/>
      <point x="806" y="0" type="line"/>
      <point x="934" y="0" type="line"/>
      <point x="574" y="777" type="line"/>
      <point x="360" y="777" type="line"/>
    </contour>
    <contour>
      <point x="434" y="685" type="line"/>
      <point x="467" y="679"/>
      <point x="499" y="685"/>
      <point x="499" y="685" type="curve"/>
      <point x="652" y="348" type="line"/>
      <point x="279" y="348" type="line"/>
    </contour>
    <contour>
      <point x="460" y="1011" type="line"/>
      <point x="255" y="913" type="line"/>
      <point x="282" y="843" type="line"/>
      <point x="460" y="913" type="line"/>
      <point x="638" y="843" type="line"/>
      <point x="665" y="913" type="line"/>
    </contour>
  </outline>
</glyph>
<glyph name="Atilde" format="1">
  <advance width="934"/>
  <unicode hex="00C3"/>
  <outline>
    <contour>
      <point x="0" y="0" type="line"/>
      <point x="129" y="0" type="line"/>
      <point x="240" y="253" type="line"/>
      <point x="691" y="253" type="line"/>
      <point x="691" y="256" type="line"/>
      <point x="806" y="0" type="line"/>
      <point x="934" y="0" type="line"/>
      <point x="574" y="777" type="line"/>
      <point x="360" y="777" type="line"/>
    </contour>
    <contour>
      <point x="434" y="685" type="line"/>
      <point x="467" y="679"/>
      <point x="499" y="685"/>
      <point x="499" y="685" type="curve"/>
      <point x="652" y="348" type="line"/>
      <point x="279" y="348" type="line"/>
    </contour>
    <contour>
      <point x="547" y="941" type="curve" smooth="yes"/>
      <point x="476" y="941"/>
      <point x="448" y="1000"/>
      <point x="380" y="1000" type="curve"/>
      <point x="297" y="1000"/>
      <point x="255" y="924"/>
      <point x="255" y="924" type="curve"/>
      <point x="292" y="854" type="line"/>
      <point x="292" y="854"/>
      <point x="319" y="913"/>
      <point x="387" y="913" type="curve"/>
      <point x="457" y="913"/>
      <point x="479" y="854"/>
      <point x="556" y="854" type="curve" smooth="yes"/>
      <point x="637" y="854"/>
      <point x="680" y="930"/>
      <point x="680" y="930" type="curve"/>
      <point x="643" y="1000" type="line"/>
      <point x="643" y="1000"/>
      <point x="617" y="941"/>
    </contour>
  </outline>
</glyph>
<glyph name="Adieresis" format="1">
  <advance width="934"/>
  <unicode hex="00C4"/>
  <outline>
    <contour>
      <point x="0" y="0" type="line"/>
      <point x="129" y="0" type="line"/>
      <point x="240" y="253" type="line"/>
      <point x="691" y="253" type="line"/>
      <point x="691" y="256" type="line"/>
      <point x="806" y="0" type="line"/>
      <point x="934" y="0" type="line"/>
      <point x="574" y="777" type="line"/>
      <point x="360" y="777" type="line"/>
    </contour>
    <contour>
      <point x="434" y="685" type="line"/>
      <point x="467" y="679"/>
      <point x="499" y="685"/>
      <point x="499" y="685" type="curve"/>
      <point x="652" y="348" type="line"/>
      <point x="279" y="348" type="line"/>
    </contour>
    <contour>
      <point x="283" y="999" type="line"/>
      <point x="283" y="883" type="line"/>
      <point x="409" y="883" type="line"/>
      <point x="409" y="999" type="line"/>
    </contour>
    <contour>
      <point x="526" y="999" type="line"/>
      <point x="526" y="883" type="line"/>
      <point x="652" y="883" type="line"/>
      <point x="652" y="999" type="line"/>
    </contour>
  </outline>
</glyph>
<glyph name="Aring" format="1">
  <advance width="934"/>
  <unicode hex="00C5"/>
  <outline>
    <contour>
      <point x="0" y="0" type="line"/>
      <point x="129" y="0" type="line"/>
      <point x="240" y="253" type="line"/>
      <point x="691" y="253" type="line"/>
      <point x="691" y="256" type="line"/>
      <point x="806" y="0" type="line"/>
      <point x="934" y="0" type="line"/>
      <point x="574" y="777" type="line"/>
      <point x="360" y="777" type="line"/>
    </contour>
    <contour>
      <point x="434" y="685" type="line"/>
      <point x="467" y="679"/>
      <point x="499" y="685"/>
      <point x="499" y="685" type="curve"/>
      <point x="652" y="348" type="line"/>
      <point x="279" y="348" type="line"/>
    </contour>
    <contour>
      <point x="351" y="941" type="curve" smooth="yes"/>
      <point x="351" y="878"/>
      <point x="401" y="827"/>
      <point x="465" y="827" type="curve" smooth="yes"/>
      <point x="529" y="827"/>
      <point x="581" y="878"/>
      <point x="581" y="941" type="curve" smooth="yes"/>
      <point x="581" y="1009"/>
      <point x="533" y="1057"/>
      <point x="465" y="1057" type="curve" smooth="yes"/>
      <point x="401" y="1057"/>
      <point x="351" y="1005"/>
    </contour>
    <contour>
      <point x="421" y="942" type="curve" smooth="yes"/>
      <point x="421" y="967"/>
      <point x="440" y="987"/>
      <point x="466" y="987" type="curve" smooth="yes"/>
      <point x="492" y="987"/>
      <point x="511" y="967"/>
      <point x="511" y="942" type="curve" smooth="yes"/>
      <point x="511" y="918"/>
      <point x="492" y="897"/>
      <point x="466" y="897" type="curve" smooth="yes"/>
      <point x="440" y="897"/>
      <point x="421" y="916"/>
    </contour>
  </outline>
</glyph>
<glyph name="AE" format="1">
  <advance width="1363"/>
  <unicode hex="00C6"/>
  <outline>
    <contour>
      <point x="363" y="340" type="line"/>
      <point x="587" y="340" type="line"/>
      <point x="587" y="0" type="line"/>
      <point x="1262" y="0" type="line"/>
      <point x="1262" y="95" type="line"/>
      <point x="714" y="95" type="line"/>
      <point x="714" y="338" type="line"/>
      <point x="1175" y="338" type="line"/>
      <point x="1175" y="434" type="line"/>
      <point x="714" y="434" type="line"/>
      <point x="714" y="682" type="line"/>
      <point x="1233" y="682" type="line"/>
      <point x="1233" y="777" type="line"/>
      <point x="360" y="777" type="line"/>
      <point x="0" y="0" type="line"/>
      <point x="129" y="0" type="line"/>
      <point x="434" y="685" type="line"/>
      <point x="467" y="679"/>
      <point x="587" y="682"/>
      <point x="587" y="682" type="curve"/>
      <point x="587" y="432" type="line"/>
      <point x="363" y="432" type="line"/>
    </contour>
  </outline>
</glyph>
<glyph name="Ccedilla" format="1">
  <advance width="935"/>
  <unicode hex="00C7"/>
  <outline>
    <contour>
      <point x="754" y="299" type="line"/>
      <point x="754" y="299"/>
      <point x="743" y="81"/>
      <point x="474" y="81" type="curve" smooth="yes"/>
      <point x="289" y="81"/>
      <point x="179" y="205"/>
      <point x="179" y="387" type="curve" smooth="yes"/>
      <point x="179" y="569"/>
      <point x="289" y="692"/>
      <point x="474" y="692" type="curve"/>
      <point x="658" y="692"/>
      <point x="749" y="564"/>
      <point x="749" y="449" type="curve"/>
      <point x="851" y="475" type="line"/>
      <point x="851" y="608"/>
      <point x="723" y="788"/>
      <point x="474" y="788" type="curve"/>
      <point x="221" y="788"/>
      <point x="43" y="621"/>
      <point x="43" y="387" type="curve" smooth="yes"/>
      <point x="43" y="153"/>
      <point x="207" y="-14"/>
      <point x="475" y="-14" type="curve" smooth="yes"/>
      <point x="867" y="-14"/>
      <point x="876" y="299"/>
      <point x="876" y="299" type="curve"/>
    </contour>
    <contour>
      <point x="412" y="-223" type="line"/>
      <point x="613" y="-78" type="line"/>
      <point x="587" y="-32" type="line"/>
      <point x="359" y="-134" type="line"/>
    </contour>
  </outline>
</glyph>
<glyph name="Egrave" format="1">
  <advance width="848"/>
  <unicode hex="00C8"/>
  <outline>
    <contour>
      <point x="101" y="0" type="line"/>
      <point x="776" y="0" type="line"/>
      <point x="776" y="95" type="line"/>
      <point x="228" y="95" type="line"/>
      <point x="228" y="338" type="line"/>
      <point x="689" y="338" type="line"/>
      <point x="689" y="434" type="line"/>
      <point x="228" y="434" type="line"/>
      <point x="228" y="682" type="line"/>
      <point x="747" y="682" type="line"/>
      <point x="747" y="777" type="line"/>
      <point x="101" y="777" type="line"/>
    </contour>
    <contour>
      <point x="279" y="881" type="line"/>
      <point x="596" y="843" type="line"/>
      <point x="610" y="913" type="line"/>
      <point x="302" y="1000" type="line"/>
    </contour>
  </outline>
</glyph>
<glyph name="Eacute" format="1">
  <advance width="848"/>
  <unicode hex="00C9"/>
  <outline>
    <contour>
      <point x="101" y="0" type="line"/>
      <point x="776" y="0" type="line"/>
      <point x="776" y="95" type="line"/>
      <point x="228" y="95" type="line"/>
      <point x="228" y="338" type="line"/>
      <point x="689" y="338" type="line"/>
      <point x="689" y="434" type="line"/>
      <point x="228" y="434" type="line"/>
      <point x="228" y="682" type="line"/>
      <point x="747" y="682" type="line"/>
      <point x="747" y="777" type="line"/>
      <point x="101" y="777" type="line"/>
    </contour>
    <contour>
      <point x="577" y="1000" type="line"/>
      <point x="269" y="913" type="line"/>
      <point x="283" y="843" type="line"/>
      <point x="600" y="881" type="line"/>
    </contour>
  </outline>
</glyph>
<glyph name="Ecircumflex" format="1">
  <advance width="848"/>
  <unicode hex="00CA"/>
  <outline>
    <contour>
      <point x="101" y="0" type="line"/>
      <point x="776" y="0" type="line"/>
      <point x="776" y="95" type="line"/>
      <point x="228" y="95" type="line"/>
      <point x="228" y="338" type="line"/>
      <point x="689" y="338" type="line"/>
      <point x="689" y="434" type="line"/>
      <point x="228" y="434" type="line"/>
      <point x="228" y="682" type="line"/>
      <point x="747" y="682" type="line"/>
      <point x="747" y="777" type="line"/>
      <point x="101" y="777" type="line"/>
    </contour>
    <contour>
      <point x="431" y="1011" type="line"/>
      <point x="226" y="913" type="line"/>
      <point x="253" y="843" type="line"/>
      <point x="431" y="913" type="line"/>
      <point x="609" y="843" type="line"/>
      <point x="636" y="913" type="line"/>
    </contour>
  </outline>
</glyph>
<glyph name="Edieresis" format="1">
  <advance width="848"/>
  <unicode hex="00CB"/>
  <outline>
    <contour>
      <point x="101" y="0" type="line"/>
      <point x="776" y="0" type="line"/>
      <point x="776" y="95" type="line"/>
      <point x="228" y="95" type="line"/>
      <point x="228" y="338" type="line"/>
      <point x="689" y="338" type="line"/>
      <point x="689" y="434" type="line"/>
      <point x="228" y="434" type="line"/>
      <point x="228" y="682" type="line"/>
      <point x="747" y="682" type="line"/>
      <point x="747" y="777" type="line"/>
      <point x="101" y="777" type="line"/>
    </contour>
    <contour>
      <point x="254" y="999" type="line"/>
      <point x="254" y="883" type="line"/>
      <point x="380" y="883" type="line"/>
      <point x="380" y="999" type="line"/>
    </contour>
    <contour>
      <point x="497" y="999" type="line"/>
      <point x="497" y="883" type="line"/>
      <point x="623" y="883" type="line"/>
      <point x="623" y="999" type="line"/>
    </contour>
  </outline>
</glyph>
<glyph name="Igrave" format="1">
  <advance width="329"/>
  <unicode hex="00CC"/>
  <outline>
    <contour>
      <point x="101" y="777" type="line"/>
      <point x="101" y="0" type="line"/>
      <point x="228" y="0" type="line"/>
      <point x="228" y="777" type="line"/>
    </contour>
    <contour>
      <point x="6" y="881" type="line"/>
      <point x="323" y="843" type="line"/>
      <point x="337" y="913" type="line"/>
      <point x="29" y="1000" type="line"/>
    </contour>
  </outline>
</glyph>
<glyph name="Iacute" format="1">
  <advance width="329"/>
  <unicode hex="00CD"/>
  <outline>
    <contour>
      <point x="101" y="777" type="line"/>
      <point x="101" y="0" type="line"/>
      <point x="228" y="0" type="line"/>
      <point x="228" y="777" type="line"/>
    </contour>
    <contour>
      <point x="304" y="1000" type="line"/>
      <point x="-4" y="913" type="line"/>
      <point x="10" y="843" type="line"/>
      <point x="327" y="881" type="line"/>
    </contour>
  </outline>
</glyph>
<glyph name="Icircumflex" format="1">
  <advance width="329"/>
  <unicode hex="00CE"/>
  <outline>
    <contour>
      <point x="101" y="777" type="line"/>
      <point x="101" y="0" type="line"/>
      <point x="228" y="0" type="line"/>
      <point x="228" y="777" type="line"/>
    </contour>
    <contour>
      <point x="158" y="1011" type="line"/>
      <point x="-47" y="913" type="line"/>
      <point x="-20" y="843" type="line"/>
      <point x="158" y="913" type="line"/>
      <point x="336" y="843" type="line"/>
      <point x="363" y="913" type="line"/>
    </contour>
  </outline>
</glyph>
<glyph name="Idieresis" format="1">
  <advance width="329"/>
  <unicode hex="00CF"/>
  <outline>
    <contour>
      <point x="101" y="777" type="line"/>
      <point x="101" y="0" type="line"/>
      <point x="228" y="0" type="line"/>
      <point x="228" y="777" type="line"/>
    </contour>
    <contour>
      <point x="-19" y="999" type="line"/>
      <point x="-19" y="883" type="line"/>
      <point x="107" y="883" type="line"/>
      <point x="107" y="999" type="line"/>
    </contour>
    <contour>
      <point x="224" y="999" type="line"/>
      <point x="224" y="883" type="line"/>
      <point x="350" y="883" type="line"/>
      <point x="350" y="999" type="line"/>
    </contour>
  </outline>
</glyph>
<glyph name="Ntilde" format="1">
  <advance width="983"/>
  <unicode hex="00D1"/>
  <outline>
    <contour>
      <point x="882" y="777" type="line"/>
      <point x="754" y="777" type="line"/>
      <point x="754" y="88" type="line"/>
      <point x="230" y="777" type="line"/>
      <point x="101" y="777" type="line"/>
      <point x="101" y="0" type="line"/>
      <point x="228" y="0" type="line"/>
      <point x="223" y="601" type="line"/>
      <point x="675" y="0" type="line"/>
      <point x="882" y="0" type="line"/>
    </contour>
    <contour>
      <point x="581" y="941" type="curve" smooth="yes"/>
      <point x="510" y="941"/>
      <point x="482" y="1000"/>
      <point x="414" y="1000" type="curve"/>
      <point x="331" y="1000"/>
      <point x="289" y="924"/>
      <point x="289" y="924" type="curve"/>
      <point x="326" y="854" type="line"/>
      <point x="326" y="854"/>
      <point x="353" y="913"/>
      <point x="421" y="913" type="curve"/>
      <point x="491" y="913"/>
      <point x="513" y="854"/>
      <point x="590" y="854" type="curve" smooth="yes"/>
      <point x="671" y="854"/>
      <point x="714" y="930"/>
      <point x="714" y="930" type="curve"/>
      <point x="677" y="1000" type="line"/>
      <point x="677" y="1000"/>
      <point x="651" y="941"/>
    </contour>
  </outline>
</glyph>
<glyph name="Ograve" format="1">
  <advance width="1023"/>
  <unicode hex="00D2"/>
  <outline>
    <contour>
      <point x="130" y="387" type="curve"/>
      <point x="130" y="153"/>
      <point x="308" y="-14"/>
      <point x="584" y="-14" type="curve" smooth="yes"/>
      <point x="860" y="-14"/>
      <point x="1037" y="153"/>
      <point x="1037" y="387" type="curve" smooth="yes"/>
      <point x="1037" y="621"/>
      <point x="860" y="788"/>
      <point x="584" y="788" type="curve" smooth="yes"/>
      <point x="308" y="788"/>
      <point x="130" y="621"/>
    </contour>
    <contour>
      <point x="267" y="387" type="curve"/>
      <point x="267" y="569"/>
      <point x="375" y="692"/>
      <point x="584" y="692" type="curve" smooth="yes"/>
      <point x="792" y="692"/>
      <point x="900" y="569"/>
      <point x="900" y="387" type="curve" smooth="yes"/>
      <point x="900" y="205"/>
      <point x="790" y="81"/>
      <point x="584" y="81" type="curve" smooth="yes"/>
      <point x="375" y="81"/>
      <point x="267" y="205"/>
    </contour>
    <contour>
      <point x="425" y="881" type="line"/>
      <point x="742" y="843" type="line"/>
      <point x="756" y="913" type="line"/>
      <point x="448" y="1000" type="line"/>
    </contour>
  </outline>
</glyph>
<glyph name="Oacute" format="1">
  <advance width="1023"/>
  <unicode hex="00D3"/>
  <outline>
    <contour>
      <point x="130" y="387" type="curve"/>
      <point x="130" y="153"/>
      <point x="308" y="-14"/>
      <point x="584" y="-14" type="curve" smooth="yes"/>
      <point x="860" y="-14"/>
      <point x="1037" y="153"/>
      <point x="1037" y="387" type="curve" smooth="yes"/>
      <point x="1037" y="621"/>
      <point x="860" y="788"/>
      <point x="584" y="788" type="curve" smooth="yes"/>
      <point x="308" y="788"/>
      <point x="130" y="621"/>
    </contour>
    <contour>
      <point x="267" y="387" type="curve"/>
      <point x="267" y="569"/>
      <point x="375" y="692"/>
      <point x="584" y="692" type="curve" smooth="yes"/>
      <point x="792" y="692"/>
      <point x="900" y="569"/>
      <point x="900" y="387" type="curve" smooth="yes"/>
      <point x="900" y="205"/>
      <point x="790" y="81"/>
      <point x="584" y="81" type="curve" smooth="yes"/>
      <point x="375" y="81"/>
      <point x="267" y="205"/>
    </contour>
    <contour>
      <point x="708" y="1000" type="line"/>
      <point x="400" y="913" type="line"/>
      <point x="414" y="843" type="line"/>
      <point x="731" y="881" type="line"/>
    </contour>
  </outline>
</glyph>
<glyph name="multiply" format="1">
  <advance width="711"/>
  <unicode hex="00D7"/>
  <outline>
    <contour>
      <point x="566" y="97" type="line"/>
      <point x="386" y="277" type="line"/>
      <point x="571" y="462" type="line"/>
      <point x="540" y="493" type="line"/>
      <point x="355" y="308" type="line"/>
      <point x="175" y="488" type="line"/>
      <point x="145" y="458" type="line"/>
      <point x="325" y="277" type="line"/>
      <point x="140" y="92" type="line"/>
      <point x="171" y="62" type="line"/>
      <point x="355" y="247" type="line"/>
      <point x="536" y="66" type="line"/>
    </contour>
  </outline>
</glyph>
<glyph name="Oslash" format="1">
  <advance width="1023"/>
  <unicode hex="00D8"/>
  <outline>
    <contour>
      <point x="130" y="387" type="curve" smooth="yes"/>
      <point x="130" y="199"/>
      <point x="244" y="53"/>
      <point x="434" y="4" type="curve"/>
      <point x="380" y="-197" type="line"/>
      <point x="422" y="-207" type="line"/>
      <point x="475" y="-4" type="line"/>
      <point x="510" y="-10"/>
      <point x="546" y="-14"/>
      <point x="584" y="-14" type="curve" smooth="yes"/>
      <point x="860" y="-14"/>
      <point x="1038" y="153"/>
      <point x="1038" y="387" type="curve" smooth="yes"/>
      <point x="1038" y="591"/>
      <point x="903" y="743"/>
      <point x="686" y="779" type="curve"/>
      <point x="741" y="986" type="line"/>
      <point x="699" y="996" type="line"/>
      <point x="643" y="785" type="line"/>
      <point x="624" y="786"/>
      <point x="604" y="788"/>
      <point x="584" y="788" type="curve" smooth="yes"/>
      <point x="308" y="788"/>
      <point x="130" y="621"/>
    </contour>
    <contour>
      <point x="900" y="387" type="curve" smooth="yes"/>
      <point x="900" y="205"/>
      <point x="790" y="81"/>
      <point x="584" y="81" type="curve" smooth="yes"/>
      <point x="553" y="81"/>
      <point x="526" y="82"/>
      <point x="501" y="88" type="curve"/>
      <point x="660" y="685" type="line"/>
      <point x="818" y="658"/>
      <point x="900" y="545"/>
    </contour>
    <contour>
      <point x="267" y="387" type="curve" smooth="yes"/>
      <point x="267" y="569"/>
      <point x="376" y="692"/>
      <point x="584" y="692" type="curve" smooth="yes"/>
      <point x="595" y="692"/>
      <point x="607" y="691"/>
      <point x="617" y="691" type="curve"/>
      <point x="458" y="98" type="line"/>
      <point x="332" y="139"/>
      <point x="267" y="246"/>
    </contour>
  </outline>
</glyph>
<glyph name="Uacute" format="1">
  <advance width="977"/>
  <unicode hex="00DA"/>
  <outline>
    <contour>
      <point x="101" y="777" type="line"/>
      <point x="101" y="321" type="line" smooth="yes"/>
      <point x="101" y="97"/>
      <point x="194" y="-14"/>
      <point x="488" y="-14" type="curve" smooth="yes"/>
      <point x="783" y="-14"/>
      <point x="876" y="97"/>
      <point x="876" y="321" type="curve" smooth="yes"/>
      <point x="876" y="777" type="line"/>
      <point x="749" y="777" type="line"/>
      <point x="749" y="321" type="line" smooth="yes"/>
      <point x="749" y="149"/>
      <point x="685" y="81"/>
      <point x="488" y="81" type="curve" smooth="yes"/>
      <point x="290" y="81"/>
      <point x="228" y="149"/>
      <point x="228" y="321" type="curve" smooth="yes"/>
      <point x="228" y="777" type="line"/>
    </contour>
    <contour>
      <point x="627" y="1000" type="line"/>
      <point x="319" y="913" type="line"/>
      <point x="333" y="843" type="line"/>
      <point x="650" y="881" type="line"/>
    </contour>
  </outline>
</glyph>
<glyph name="Ucircumflex" format="1">
  <advance width="977"/>
  <unicode hex="00DB"/>
  <outline>
    <contour>
      <point x="101" y="777" type="line"/>
      <point x="101" y="321" type="line" smooth="yes"/>
      <point x="101" y="97"/>
      <point x="194" y="-14"/>
      <point x="488" y="-14" type="curve" smooth="yes"/>
      <point x="783" y="-14"/>
      <point x="876" y="97"/>
      <point x="876" y="321" type="curve" smooth="yes"/>
      <point x="876" y="777" type="line"/>
      <point x="749" y="777" type="line"/>
      <point x="749" y="321" type="line" smooth="yes"/>
      <point x="749" y="149"/>
      <point x="685" y="81"/>
      <point x="488" y="81" type="curve" smooth="yes"/>
      <point x="290" y="81"/>
      <point x="228" y="149"/>
      <point x="228" y="321" type="curve" smooth="yes"/>
      <point x="228" y="777" type="line"/>
    </contour>
    <contour>
      <point x="481" y="1011" type="line"/>
      <point x="276" y="913" type="line"/>
      <point x="303" y="843" type="line"/>
      <point x="481" y="913" type="line"/>
      <point x="659" y="843" type="line"/>
      <point x="686" y="913" type="line"/>
    </contour>
  </outline>
</glyph>
<glyph name="Udieresis" format="1">
  <advance width="977"/>
  <unicode hex="00DC"/>
  <outline>
    <contour>
      <point x="101" y="777" type="line"/>
      <point x="101" y="321" type="line" smooth="yes"/>
      <point x="101" y="97"/>
      <point x="194" y="-14"/>
      <point x="488" y="-14" type="curve" smooth="yes"/>
      <point x="783" y="-14"/>
      <point x="876" y="97"/>
      <point x="876" y="321" type="curve" smooth="yes"/>
      <point x="876" y="777" type="line"/>
      <point x="749" y="777" type="line"/>
      <point x="749" y="321" type="line" smooth="yes"/>
      <point x="749" y="149"/>
      <point x="685" y="81"/>
      <point x="488" y="81" type="curve" smooth="yes"/>
      <point x="290" y="81"/>
      <point x="228" y="149"/>
      <point x="228" y="321" type="curve" smooth="yes"/>
      <point x="228" y="777" type="line"/>
    </contour>
    <contour>
      <point x="304" y="999" type="line"/>
      <point x="304" y="883" type="line"/>
      <point x="430" y="883" type="line"/>
      <point x="430" y="999" type="line"/>
    </contour>
    <contour>
      <point x="547" y="999" type="line"/>
      <point x="547" y="883" type="line"/>
      <point x="673" y="883" type="line"/>
      <point x="673" y="999" type="line"/>
    </contour>
  </outline>
</glyph>
<glyph name="Yacute" format="1">
  <advance width="876"/>
  <unicode hex="00DD"/>
  <outline>
    <contour>
      <point x="861" y="777" type="line"/>
      <point x="710" y="777" type="line"/>
      <point x="438" y="410" type="line"/>
      <point x="166" y="777" type="line"/>
      <point x="14" y="777" type="line"/>
      <point x="374" y="332" type="line"/>
      <point x="374" y="0" type="line"/>
      <point x="501" y="0" type="line"/>
      <point x="501" y="332" type="line"/>
    </contour>
    <contour>
      <point x="577" y="1000" type="line"/>
      <point x="269" y="913" type="line"/>
      <point x="283" y="843" type="line"/>
      <point x="600" y="881" type="line"/>
    </contour>
  </outline>
</glyph>
<glyph name="germandbls" format="1">
  <advance width="756"/>
  <unicode hex="00DF"/>
  <outline>
    <contour>
      <point x="322" y="380" type="line"/>
      <point x="449" y="380"/>
      <point x="569" y="324"/>
      <point x="569" y="199" type="curve" smooth="yes"/>
      <point x="569" y="132"/>
      <point x="522" y="81"/>
      <point x="436" y="81" type="curve" smooth="yes"/>
      <point x="354" y="81"/>
      <point x="315" y="120"/>
      <point x="315" y="120" type="curve"/>
      <point x="315" y="38" type="line"/>
      <point x="315" y="38"/>
      <point x="367" y="-14"/>
      <point x="475" y="-14" type="curve" smooth="yes"/>
      <point x="611" y="-14"/>
      <point x="698" y="64"/>
      <point x="698" y="184" type="curve" smooth="yes"/>
      <point x="698" y="419"/>
      <point x="436" y="442"/>
      <point x="436" y="442" type="curve"/>
      <point x="436" y="442"/>
      <point x="559" y="507"/>
      <point x="559" y="617" type="curve" smooth="yes"/>
      <point x="559" y="728"/>
      <point x="473" y="788"/>
      <point x="363" y="788" type="curve" smooth="yes"/>
      <point x="199" y="788"/>
      <point x="160" y="662"/>
      <point x="160" y="555" type="curve"/>
      <point x="40" y="555" type="line"/>
      <point x="40" y="480" type="line"/>
      <point x="142" y="480" type="line"/>
      <point x="142" y="0" type="line"/>
      <point x="262" y="0" type="line"/>
      <point x="262" y="555" type="line" smooth="yes"/>
      <point x="262" y="642"/>
      <point x="293" y="692"/>
      <point x="350" y="692" type="curve" smooth="yes"/>
      <point x="397" y="692"/>
      <point x="438" y="665"/>
      <point x="438" y="597" type="curve" smooth="yes"/>
      <point x="438" y="493"/>
      <point x="322" y="452"/>
      <point x="322" y="452" type="curve"/>
    </contour>
  </outline>
</glyph>
<glyph name="aacute" format="1">
  <advance width="689"/>
  <unicode hex="00E1"/>
  <outline>
    <contour>
      <point x="527" y="133" type="line" smooth="yes"/>
      <point x="525" y="98"/>
      <point x="538" y="81"/>
      <point x="576" y="81" type="curve"/>
      <point x="616" y="81"/>
      <point x="648" y="124"/>
      <point x="648" y="124" type="curve"/>
      <point x="674" y="46" type="line"/>
      <point x="674" y="46"/>
      <point x="647" y="-14"/>
      <point x="564" y="-14" type="curve" smooth="yes"/>
      <point x="502" y="-14"/>
      <point x="437" y="17"/>
      <point x="434" y="95" type="curve" smooth="yes"/>
      <point x="430" y="214" type="line"/>
      <point x="430" y="214"/>
      <point x="360" y="-14"/>
      <point x="174" y="-14" type="curve"/>
      <point x="92" y="-14"/>
      <point x="50" y="39"/>
      <point x="50" y="108" type="curve"/>
      <point x="50" y="201"/>
      <point x="122" y="340"/>
      <point x="420" y="374" type="curve"/>
      <point x="418" y="403" type="line" smooth="yes"/>
      <point x="417" y="439"/>
      <point x="385" y="481"/>
      <point x="301" y="481" type="curve" smooth="yes"/>
      <point x="181" y="481"/>
      <point x="135" y="393"/>
      <point x="135" y="393" type="curve"/>
      <point x="53" y="448" type="line"/>
      <point x="53" y="448"/>
      <point x="114" y="578"/>
      <point x="297" y="578" type="curve" smooth="yes"/>
      <point x="463" y="578"/>
      <point x="535" y="490"/>
      <point x="533" y="386" type="curve" smooth="yes"/>
    </contour>
    <contour>
      <point x="167" y="139" type="curve"/>
      <point x="167" y="101"/>
      <point x="187" y="81"/>
      <point x="220" y="81" type="curve"/>
      <point x="316" y="81"/>
      <point x="428" y="243"/>
      <point x="426" y="286" type="curve"/>
      <point x="423" y="340" type="line"/>
      <point x="200" y="283"/>
      <point x="167" y="188"/>
    </contour>
    <contour>
      <point x="443" y="788" type="line"/>
      <point x="144" y="673" type="line"/>
      <point x="160" y="620" type="line"/>
      <point x="473" y="678" type="line"/>
    </contour>
  </outline>
</glyph>
<glyph name="atilde" format="1">
  <advance width="689"/>
  <unicode hex="00E3"/>
  <outline>
    <contour>
      <point x="527" y="133" type="line" smooth="yes"/>
      <point x="525" y="98"/>
      <point x="538" y="81"/>
      <point x="576" y="81" type="curve"/>
      <point x="616" y="81"/>
      <point x="648" y="124"/>
      <point x="648" y="124" type="curve"/>
      <point x="674" y="46" type="line"/>
      <point x="674" y="46"/>
      <point x="647" y="-14"/>
      <point x="564" y="-14" type="curve" smooth="yes"/>
      <point x="502" y="-14"/>
      <point x="437" y="17"/>
      <point x="434" y="95" type="curve" smooth="yes"/>
      <point x="430" y="214" type="line"/>
      <point x="430" y="214"/>
      <point x="360" y="-14"/>
      <point x="174" y="-14" type="curve"/>
      <point x="92" y="-14"/>
      <point x="50" y="39"/>
      <point x="50" y="108" type="curve"/>
      <point x="50" y="201"/>
      <point x="122" y="340"/>
      <point x="420" y="374" type="curve"/>
      <point x="418" y="403" type="line" smooth="yes"/>
      <point x="417" y="439"/>
      <point x="385" y="481"/>
      <point x="301" y="481" type="curve" smooth="yes"/>
      <point x="181" y="481"/>
      <point x="135" y="393"/>
      <point x="135" y="393" type="curve"/>
      <point x="53" y="448" type="line"/>
      <point x="53" y="448"/>
      <point x="114" y="578"/>
      <point x="297" y="578" type="curve" smooth="yes"/>
      <point x="463" y="578"/>
      <point x="535" y="490"/>
      <point x="533" y="386" type="curve" smooth="yes"/>
    </contour>
    <contour>
      <point x="167" y="139" type="curve"/>
      <point x="167" y="101"/>
      <point x="187" y="81"/>
      <point x="220" y="81" type="curve"/>
      <point x="316" y="81"/>
      <point x="428" y="243"/>
      <point x="426" y="286" type="curve"/>
      <point x="423" y="340" type="line"/>
      <point x="200" y="283"/>
      <point x="167" y="188"/>
    </contour>
    <contour>
      <point x="386" y="712" type="curve" smooth="yes"/>
      <point x="315" y="712"/>
      <point x="298" y="767"/>
      <point x="230" y="767" type="curve"/>
      <point x="147" y="767"/>
      <point x="114" y="691"/>
      <point x="114" y="691" type="curve"/>
      <point x="131" y="638" type="line"/>
      <point x="131" y="638"/>
      <point x="158" y="682"/>
      <point x="226" y="682" type="curve"/>
      <point x="296" y="682"/>
      <point x="314" y="635"/>
      <point x="391" y="635" type="curve" smooth="yes"/>
      <point x="472" y="635"/>
      <point x="500" y="708"/>
      <point x="500" y="708" type="curve"/>
      <point x="482" y="761" type="line"/>
      <point x="482" y="761"/>
      <point x="456" y="712"/>
    </contour>
  </outline>
</glyph>
<glyph name="aring" format="1">
  <advance width="689"/>
  <unicode hex="00E5"/>
  <outline>
    <contour>
      <point x="527" y="133" type="line" smooth="yes"/>
      <point x="525" y="98"/>
      <point x="538" y="81"/>
      <point x="576" y="81" type="curve"/>
      <point x="616" y="81"/>
      <point x="648" y="124"/>
      <point x="648" y="124" type="curve"/>
      <point x="674" y="46" type="line"/>
      <point x="674" y="46"/>
      <point x="647" y="-14"/>
      <point x="564" y="-14" type="curve" smooth="yes"/>
      <point x="502" y="-14"/>
      <point x="437" y="17"/>
      <point x="434" y="95" type="curve" smooth="yes"/>
      <point x="430" y="214" type="line"/>
      <point x="430" y="214"/>
      <point x="360" y="-14"/>
      <point x="174" y="-14" type="curve"/>
      <point x="92" y="-14"/>
      <point x="50" y="39"/>
      <point x="50" y="108" type="curve"/>
      <point x="50" y="201"/>
      <point x="122" y="340"/>
      <point x="420" y="374" type="curve"/>
      <point x="418" y="403" type="line" smooth="yes"/>
      <point x="417" y="439"/>
      <point x="385" y="481"/>
      <point x="301" y="481" type="curve" smooth="yes"/>
      <point x="181" y="481"/>
      <point x="135" y="393"/>
      <point x="135" y="393" type="curve"/>
      <point x="53" y="448" type="line"/>
      <point x="53" y="448"/>
      <point x="114" y="578"/>
      <point x="297" y="578" type="curve" smooth="yes"/>
      <point x="463" y="578"/>
      <point x="535" y="490"/>
      <point x="533" y="386" type="curve" smooth="yes"/>
    </contour>
    <contour>
      <point x="167" y="139" type="curve"/>
      <point x="167" y="101"/>
      <point x="187" y="81"/>
      <point x="220" y="81" type="curve"/>
      <point x="316" y="81"/>
      <point x="428" y="243"/>
      <point x="426" y="286" type="curve"/>
      <point x="423" y="340" type="line"/>
      <point x="200" y="283"/>
      <point x="167" y="188"/>
    </contour>
    <contour>
      <point x="194" y="718" type="curve" smooth="yes"/>
      <point x="194" y="659"/>
      <point x="244" y="609"/>
      <point x="303" y="609" type="curve" smooth="yes"/>
      <point x="363" y="609"/>
      <point x="414" y="659"/>
      <point x="414" y="718" type="curve" smooth="yes"/>
      <point x="414" y="782"/>
      <point x="366" y="829"/>
      <point x="303" y="829" type="curve" smooth="yes"/>
      <point x="243" y="829"/>
      <point x="194" y="778"/>
    </contour>
    <contour>
      <point x="255" y="719" type="curve" smooth="yes"/>
      <point x="255" y="747"/>
      <point x="276" y="768"/>
      <point x="304" y="768" type="curve" smooth="yes"/>
      <point x="332" y="768"/>
      <point x="353" y="744"/>
      <point x="353" y="719" type="curve" smooth="yes"/>
      <point x="353" y="693"/>
      <point x="332" y="670"/>
      <point x="304" y="670" type="curve" smooth="yes"/>
      <point x="276" y="670"/>
      <point x="255" y="691"/>
    </contour>
  </outline>
</glyph>
<glyph name="ae" format="1">
  <advance width="1104"/>
  <unicode hex="00E6"/>
  <outline>
    <contour>
      <point x="932" y="215" type="line"/>
      <point x="932" y="215"/>
      <point x="926" y="81"/>
      <point x="773" y="81" type="curve" smooth="yes"/>
      <point x="655" y="81"/>
      <point x="566" y="145"/>
      <point x="566" y="264" type="curve"/>
      <point x="1032" y="264" type="line"/>
      <point x="1032" y="264"/>
      <point x="1036" y="302"/>
      <point x="1036" y="332" type="curve" smooth="yes"/>
      <point x="1036" y="455"/>
      <point x="947" y="578"/>
      <point x="762" y="578" type="curve" smooth="yes"/>
      <point x="679" y="578"/>
      <point x="562" y="535"/>
      <point x="533" y="432" type="curve"/>
      <point x="516" y="536"/>
      <point x="434" y="578"/>
      <point x="328" y="578" type="curve" smooth="yes"/>
      <point x="145" y="578"/>
      <point x="84" y="448"/>
      <point x="84" y="448" type="curve"/>
      <point x="166" y="393" type="line"/>
      <point x="166" y="393"/>
      <point x="212" y="481"/>
      <point x="332" y="481" type="curve" smooth="yes"/>
      <point x="416" y="481"/>
      <point x="448" y="439"/>
      <point x="449" y="403" type="curve" smooth="yes"/>
      <point x="451" y="335" type="line"/>
      <point x="153" y="335"/>
      <point x="61" y="201"/>
      <point x="61" y="108" type="curve" smooth="yes"/>
      <point x="61" y="39"/>
      <point x="103" y="-14"/>
      <point x="185" y="-14" type="curve" smooth="yes"/>
      <point x="367" y="-14"/>
      <point x="468" y="210"/>
      <point x="474" y="220" type="curve"/>
      <point x="474" y="100"/>
      <point x="577" y="-14"/>
      <point x="751" y="-14" type="curve" smooth="yes"/>
      <point x="1040" y="-14"/>
      <point x="1046" y="215"/>
      <point x="1046" y="215" type="curve"/>
    </contour>
    <contour>
      <point x="572" y="332" type="line"/>
      <point x="595" y="432"/>
      <point x="679" y="481"/>
      <point x="762" y="481" type="curve" smooth="yes"/>
      <point x="931" y="481"/>
      <point x="932" y="332"/>
      <point x="932" y="332" type="curve"/>
    </contour>
    <contour>
      <point x="178" y="129" type="curve" smooth="yes"/>
      <point x="178" y="175"/>
      <point x="230" y="266"/>
      <point x="454" y="266" type="curve"/>
      <point x="457" y="254" type="line"/>
      <point x="460" y="211"/>
      <point x="324" y="81"/>
      <point x="228" y="81" type="curve" smooth="yes"/>
      <point x="198" y="81"/>
      <point x="178" y="98"/>
    </contour>
  </outline>
</glyph>
<glyph name="ccedilla" format="1">
  <advance width="734"/>
  <unicode hex="00E7"/>
  <outline>
    <contour>
      <point x="546" y="215" type="line"/>
      <point x="546" y="215"/>
      <point x="546" y="75"/>
      <point x="384" y="75" type="curve"/>
      <point x="264" y="75"/>
      <point x="199" y="153"/>
      <point x="199" y="283" type="curve" smooth="yes"/>
      <point x="199" y="396"/>
      <point x="268" y="484"/>
      <point x="384" y="484" type="curve"/>
      <point x="500" y="484"/>
      <point x="559" y="397"/>
      <point x="544" y="299" type="curve"/>
      <point x="647" y="321" type="line"/>
      <point x="661" y="425"/>
      <point x="580" y="578"/>
      <point x="384" y="578" type="curve"/>
      <point x="179" y="578"/>
      <point x="72" y="438"/>
      <point x="72" y="280" type="curve" smooth="yes"/>
      <point x="72" y="92"/>
      <point x="203" y="-14"/>
      <point x="382" y="-14" type="curve"/>
      <point x="661" y="-14"/>
      <point x="660" y="215"/>
      <point x="660" y="215" type="curve"/>
    </contour>
    <contour>
      <point x="289" y="-223" type="line"/>
      <point x="490" y="-78" type="line"/>
      <point x="464" y="-32" type="line"/>
      <point x="236" y="-134" type="line"/>
    </contour>
  </outline>
</glyph>
<glyph name="egrave" format="1">
  <advance width="705"/>
  <unicode hex="00E8"/>
  <outline>
    <contour>
      <point x="527" y="188" type="line"/>
      <point x="527" y="188"/>
      <point x="513" y="76"/>
      <point x="368" y="76" type="curve"/>
      <point x="195" y="76"/>
      <point x="179" y="230"/>
      <point x="179" y="273" type="curve"/>
      <point x="633" y="264" type="line"/>
      <point x="633" y="264"/>
      <point x="637" y="298"/>
      <point x="637" y="332" type="curve"/>
      <point x="637" y="452"/>
      <point x="546" y="578"/>
      <point x="366" y="578" type="curve" smooth="yes"/>
      <point x="208" y="578"/>
      <point x="58" y="475"/>
      <point x="58" y="272" type="curve" smooth="yes"/>
      <point x="58" y="126"/>
      <point x="163" y="-14"/>
      <point x="367" y="-14" type="curve"/>
      <point x="624" y="-14"/>
      <point x="643" y="188"/>
      <point x="643" y="188" type="curve"/>
    </contour>
    <contour>
      <point x="182" y="322" type="line"/>
      <point x="185" y="350"/>
      <point x="220" y="484"/>
      <point x="368" y="484" type="curve"/>
      <point x="533" y="484"/>
      <point x="533" y="332"/>
      <point x="533" y="332" type="curve"/>
    </contour>
    <contour>
      <point x="198" y="678" type="line"/>
      <point x="511" y="620" type="line"/>
      <point x="527" y="673" type="line"/>
      <point x="228" y="788" type="line"/>
    </contour>
  </outline>
</glyph>
<glyph name="igrave" format="1">
  <advance width="322"/>
  <unicode hex="00EC"/>
  <outline>
    <contour>
      <point x="101" y="0" type="line"/>
      <point x="221" y="0" type="line"/>
      <point x="221" y="555" type="line"/>
      <point x="101" y="555" type="line"/>
    </contour>
    <contour>
      <point x="-2" y="678" type="line"/>
      <point x="311" y="620" type="line"/>
      <point x="327" y="673" type="line"/>
      <point x="28" y="788" type="line"/>
    </contour>
  </outline>
</glyph>
<glyph name="iacute" format="1">
  <advance width="322"/>
  <unicode hex="00ED"/>
  <outline>
    <contour>
      <point x="101" y="0" type="line"/>
      <point x="221" y="0" type="line"/>
      <point x="221" y="555" type="line"/>
      <point x="101" y="555" type="line"/>
    </contour>
    <contour>
      <point x="297" y="788" type="line"/>
      <point x="-2" y="673" type="line"/>
      <point x="14" y="620" type="line"/>
      <point x="327" y="678" type="line"/>
    </contour>
  </outline>
</glyph>
<glyph name="icircumflex" format="1">
  <advance width="322"/>
  <unicode hex="00EE"/>
  <outline>
    <contour>
      <point x="101" y="0" type="line"/>
      <point x="221" y="0" type="line"/>
      <point x="221" y="555" type="line"/>
      <point x="101" y="555" type="line"/>
    </contour>
    <contour>
      <point x="153" y="788" type="line"/>
      <point x="-42" y="670" type="line"/>
      <point x="-25" y="620" type="line"/>
      <point x="153" y="680" type="line"/>
      <point x="331" y="620" type="line"/>
      <point x="348" y="670" type="line"/>
    </contour>
  </outline>
</glyph>
<glyph name="idieresis" format="1">
  <advance width="322"/>
  <unicode hex="00EF"/>
  <outline>
    <contour>
      <point x="101" y="0" type="line"/>
      <point x="221" y="0" type="line"/>
      <point x="221" y="555" type="line"/>
      <point x="101" y="555" type="line"/>
    </contour>
    <contour>
      <point x="-4" y="766" type="line"/>
      <point x="-4" y="660" type="line"/>
      <point x="112" y="660" type="line"/>
      <point x="112" y="766" type="line"/>
    </contour>
    <contour>
      <point x="209" y="766" type="line"/>
      <point x="209" y="660" type="line"/>
      <point x="325" y="660" type="line"/>
      <point x="325" y="766" type="line"/>
    </contour>
  </outline>
</glyph>
<glyph name="ntilde" format="1">
  <advance width="772"/>
  <unicode hex="00F1"/>
  <outline>
    <contour>
      <point x="550" y="0" type="line"/>
      <point x="670" y="0" type="line"/>
      <point x="670" y="344" type="line" smooth="yes"/>
      <point x="670" y="484"/>
      <point x="602" y="578"/>
      <point x="453" y="578" type="curve"/>
      <point x="289" y="578"/>
      <point x="223" y="435"/>
      <point x="210" y="390" type="curve"/>
      <point x="159" y="555" type="line"/>
      <point x="102" y="555" type="line"/>
      <point x="102" y="0" type="line"/>
      <point x="222" y="0" type="line"/>
      <point x="222" y="337" type="line"/>
      <point x="222" y="361"/>
      <point x="272" y="481"/>
      <point x="405" y="481" type="curve"/>
      <point x="493" y="481"/>
      <point x="550" y="435"/>
      <point x="550" y="342" type="curve"/>
    </contour>
    <contour>
      <point x="479" y="712" type="curve" smooth="yes"/>
      <point x="408" y="712"/>
      <point x="391" y="767"/>
      <point x="323" y="767" type="curve"/>
      <point x="240" y="767"/>
      <point x="207" y="691"/>
      <point x="207" y="691" type="curve"/>
      <point x="224" y="638" type="line"/>
      <point x="224" y="638"/>
      <point x="251" y="682"/>
      <point x="319" y="682" type="curve"/>
      <point x="389" y="682"/>
      <point x="407" y="635"/>
      <point x="484" y="635" type="curve" smooth="yes"/>
      <point x="565" y="635"/>
      <point x="593" y="708"/>
      <point x="593" y="708" type="curve"/>
      <point x="575" y="761" type="line"/>
      <point x="575" y="761"/>
      <point x="549" y="712"/>
    </contour>
  </outline>
</glyph>
<glyph name="oacute" format="1">
  <advance width="750"/>
  <unicode hex="00F3"/>
  <outline>
    <contour>
      <point x="60" y="282" type="curve"/>
      <point x="60" y="118"/>
      <point x="157" y="-14"/>
      <point x="375" y="-14" type="curve" smooth="yes"/>
      <point x="593" y="-14"/>
      <point x="690" y="118"/>
      <point x="690" y="282" type="curve" smooth="yes"/>
      <point x="690" y="445"/>
      <point x="593" y="578"/>
      <point x="375" y="578" type="curve" smooth="yes"/>
      <point x="157" y="578"/>
      <point x="60" y="445"/>
    </contour>
    <contour>
      <point x="188" y="282" type="curve"/>
      <point x="188" y="402"/>
      <point x="239" y="486"/>
      <point x="375" y="486" type="curve" smooth="yes"/>
      <point x="509" y="486"/>
      <point x="562" y="402"/>
      <point x="562" y="282" type="curve" smooth="yes"/>
      <point x="562" y="162"/>
      <point x="509" y="74"/>
      <point x="375" y="74" type="curve" smooth="yes"/>
      <point x="239" y="74"/>
      <point x="188" y="162"/>
    </contour>
    <contour>
      <point x="512" y="788" type="line"/>
      <point x="213" y="673" type="line"/>
      <point x="229" y="620" type="line"/>
      <point x="542" y="678" type="line"/>
    </contour>
  </outline>
</glyph>
<glyph name="ocircumflex" format="1">
  <advance width="750"/>
  <unicode hex="00F4"/>
  <outline>
    <contour>
      <point x="60" y="282" type="curve"/>
      <point x="60" y="118"/>
      <point x="157" y="-14"/>
      <point x="375" y="-14" type="curve" smooth="yes"/>
      <point x="593" y="-14"/>
      <point x="690" y="118"/>
      <point x="690" y="282" type="curve" smooth="yes"/>
      <point x="690" y="445"/>
      <point x="593" y="578"/>
      <point x="375" y="578" type="curve" smooth="yes"/>
      <point x="157" y="578"/>
      <point x="60" y="445"/>
    </contour>
    <contour>
      <point x="188" y="282" type="curve"/>
      <point x="188" y="402"/>
      <point x="239" y="486"/>
      <point x="375" y="486" type="curve" smooth="yes"/>
      <point x="509" y="486"/>
      <point x="562" y="402"/>
      <point x="562" y="282" type="curve" smooth="yes"/>
      <point x="562" y="162"/>
      <point x="509" y="74"/>
      <point x="375" y="74" type="curve" smooth="yes"/>
      <point x="239" y="74"/>
      <point x="188" y="162"/>
    </contour>
    <contour>
      <point x="368" y="788" type="line"/>
      <point x="173" y="670" type="line"/>
      <point x="190" y="620" type="line"/>
      <point x="368" y="680" type="line"/>
      <point x="546" y="620" type="line"/>
      <point x="563" y="670" type="line"/>
    </contour>
  </outline>
</glyph>
<glyph name="odieresis" format="1">
  <advance width="750"/>
  <unicode hex="00F6"/>
  <outline>
    <contour>
      <point x="60" y="282" type="curve"/>
      <point x="60" y="118"/>
      <point x="157" y="-14"/>
      <point x="375" y="-14" type="curve" smooth="yes"/>
      <point x="593" y="-14"/>
      <point x="690" y="118"/>
      <point x="690" y="282" type="curve" smooth="yes"/>
      <point x="690" y="445"/>
      <point x="593" y="578"/>
      <point x="375" y="578" type="curve" smooth="yes"/>
      <point x="157" y="578"/>
      <point x="60" y="445"/>
    </contour>
    <contour>
      <point x="188" y="282" type="curve"/>
      <point x="188" y="402"/>
      <point x="239" y="486"/>
      <point x="375" y="486" type="curve" smooth="yes"/>
      <point x="509" y="486"/>
      <point x="562" y="402"/>
      <point x="562" y="282" type="curve" smooth="yes"/>
      <point x="562" y="162"/>
      <point x="509" y="74"/>
      <point x="375" y="74" type="curve" smooth="yes"/>
      <point x="239" y="74"/>
      <point x="188" y="162"/>
    </contour>
    <contour>
      <point x="211" y="766" type="line"/>
      <point x="211" y="660" type="line"/>
      <point x="327" y="660" type="line"/>
      <point x="327" y="766" type="line"/>
    </contour>
    <contour>
      <point x="424" y="766" type="line"/>
      <point x="424" y="660" type="line"/>
      <point x="540" y="660" type="line"/>
      <point x="540" y="766" type="line"/>
    </contour>
  </outline>
</glyph>
<glyph name="divide" format="1">
  <advance width="595"/>
  <unicode hex="00F7"/>
  <outline>
    <contour>
      <point x="263" y="97" type="line"/>
      <point x="263" y="29" type="line"/>
      <point x="332" y="29" type="line"/>
      <point x="332" y="97" type="line"/>
    </contour>
    <contour>
      <point x="263" y="526" type="line"/>
      <point x="263" y="458" type="line"/>
      <point x="332" y="458" type="line"/>
      <point x="332" y="526" type="line"/>
    </contour>
    <contour>
      <point x="14" y="299" type="line"/>
      <point x="14" y="256" type="line"/>
      <point x="581" y="256" type="line"/>
      <point x="581" y="299" type="line"/>
    </contour>
  </outline>
</glyph>
<glyph name="oslash" format="1">
  <advance width="786"/>
  <unicode hex="00F8"/>
  <outline>
    <contour>
      <point x="58" y="282" type="curve" smooth="yes"/>
      <point x="58" y="146"/>
      <point x="137" y="32"/>
      <point x="289" y="-3" type="curve"/>
      <point x="237" y="-197" type="line"/>
      <point x="279" y="-207" type="line"/>
      <point x="331" y="-10" type="line"/>
      <point x="351" y="-13"/>
      <point x="371" y="-14"/>
      <point x="393" y="-14" type="curve" smooth="yes"/>
      <point x="611" y="-14"/>
      <point x="728" y="118"/>
      <point x="728" y="282" type="curve" smooth="yes"/>
      <point x="728" y="419"/>
      <point x="645" y="536"/>
      <point x="487" y="568" type="curve"/>
      <point x="548" y="796" type="line"/>
      <point x="506" y="806" type="line"/>
      <point x="444" y="575" type="line"/>
      <point x="428" y="577"/>
      <point x="410" y="578"/>
      <point x="393" y="578" type="curve" smooth="yes"/>
      <point x="175" y="578"/>
      <point x="58" y="445"/>
    </contour>
    <contour>
      <point x="600" y="282" type="curve" smooth="yes"/>
      <point x="600" y="162"/>
      <point x="527" y="81"/>
      <point x="393" y="81" type="curve" smooth="yes"/>
      <point x="380" y="81"/>
      <point x="368" y="81"/>
      <point x="357" y="82" type="curve"/>
      <point x="461" y="473" type="line"/>
      <point x="552" y="449"/>
      <point x="600" y="379"/>
    </contour>
    <contour>
      <point x="186" y="282" type="curve" smooth="yes"/>
      <point x="186" y="402"/>
      <point x="257" y="481"/>
      <point x="393" y="481" type="curve" smooth="yes"/>
      <point x="402" y="481"/>
      <point x="410" y="480"/>
      <point x="418" y="480" type="curve"/>
      <point x="314" y="91" type="line"/>
      <point x="230" y="117"/>
      <point x="186" y="188"/>
    </contour>
  </outline>
</glyph>
<glyph name="ugrave" format="1">
  <advance width="770"/>
  <unicode hex="00F9"/>
  <outline>
    <contour>
      <point x="221" y="555" type="line"/>
      <point x="101" y="555" type="line"/>
      <point x="101" y="188" type="line"/>
      <point x="101" y="55"/>
      <point x="197" y="-14"/>
      <point x="324" y="-14" type="curve"/>
      <point x="465" y="-14"/>
      <point x="530" y="103"/>
      <point x="561" y="166" type="curve"/>
      <point x="611" y="0" type="line"/>
      <point x="669" y="0" type="line"/>
      <point x="669" y="555" type="line"/>
      <point x="549" y="555" type="line"/>
      <point x="549" y="225" type="line"/>
      <point x="549" y="175"/>
      <point x="486" y="81"/>
      <point x="345" y="81" type="curve"/>
      <point x="280" y="81"/>
      <point x="221" y="121"/>
      <point x="221" y="207" type="curve"/>
    </contour>
    <contour>
      <point x="222" y="678" type="line"/>
      <point x="535" y="620" type="line"/>
      <point x="551" y="673" type="line"/>
      <point x="252" y="788" type="line"/>
    </contour>
  </outline>
</glyph>
<glyph name="udieresis" format="1">
  <advance width="770"/>
  <unicode hex="00FC"/>
  <outline>
    <contour>
      <point x="221" y="555" type="line"/>
      <point x="101" y="555" type="line"/>
      <point x="101" y="188" type="line"/>
      <point x="101" y="55"/>
      <point x="197" y="-14"/>
      <point x="324" y="-14" type="curve"/>
      <point x="465" y="-14"/>
      <point x="530" y="103"/>
      <point x="561" y="166" type="curve"/>
      <point x="611" y="0" type="line"/>
      <point x="669" y="0" type="line"/>
      <point x="669" y="555" type="line"/>
      <point x="549" y="555" type="line"/>
      <point x="549" y="225" type="line"/>
      <point x="549" y="175"/>
      <point x="486" y="81"/>
      <point x="345" y="81" type="curve"/>
      <point x="280" y="81"/>
      <point x="221" y="121"/>
      <point x="221" y="207" type="curve"/>
    </contour>
    <contour>
      <point x="220" y="766" type="line"/>
      <point x="220" y="660" type="line"/>
      <point x="336" y="660" type="line"/>
      <point x="336" y="766" type="line"/>
    </contour>
    <contour>
      <point x="433" y="766" type="line"/>
      <point x="433" y="660" type="line"/>
      <point x="549" y="660" type="line"/>
      <point x="549" y="766" type="line"/>
    </contour>
  </outline>
</glyph>
<glyph name="yacute" format="1">
  <advance width="655"/>
  <unicode hex="00FD"/>
  <outline>
    <contour>
      <point x="241" y="-1" type="line" smooth="yes"/>
      <point x="189" y="-90"/>
      <point x="146" y="-143"/>
      <point x="95" y="-143" type="curve" smooth="yes"/>
      <point x="47" y="-143"/>
      <point x="19" y="-123"/>
      <point x="17" y="-118" type="curve"/>
      <point x="17" y="-211" type="line"/>
      <point x="17" y="-211"/>
      <point x="46" y="-233"/>
      <point x="110" y="-233" type="curve" smooth="yes"/>
      <point x="202" y="-233"/>
      <point x="260" y="-147"/>
      <point x="348" y="0" type="curve" smooth="yes"/>
      <point x="462" y="191"/>
      <point x="655" y="555"/>
      <point x="655" y="555" type="curve"/>
      <point x="526" y="555" type="line"/>
      <point x="325" y="156" type="line"/>
      <point x="124" y="555" type="line"/>
      <point x="-6" y="555" type="line"/>
      <point x="266" y="68" type="line"/>
      <point x="281" y="68" type="line"/>
    </contour>
    <contour>
      <point x="464" y="788" type="line"/>
      <point x="165" y="673" type="line"/>
      <point x="181" y="620" type="line"/>
      <point x="494" y="678" type="line"/>
    </contour>
  </outline>
</glyph>
<glyph name="ydieresis" format="1">
  <advance width="655"/>
  <unicode hex="00FF"/>
  <outline>
    <contour>
      <point x="241" y="-1" type="line" smooth="yes"/>
      <point x="189" y="-90"/>
      <point x="146" y="-143"/>
      <point x="95" y="-143" type="curve" smooth="yes"/>
      <point x="47" y="-143"/>
      <point x="19" y="-123"/>
      <point x="17" y="-118" type="curve"/>
      <point x="17" y="-211" type="line"/>
      <point x="17" y="-211"/>
      <point x="46" y="-233"/>
      <point x="110" y="-233" type="curve" smooth="yes"/>
      <point x="202" y="-233"/>
      <point x="260" y="-147"/>
      <point x="348" y="0" type="curve" smooth="yes"/>
      <point x="462" y="191"/>
      <point x="655" y="555"/>
      <point x="655" y="555" type="curve"/>
      <point x="526" y="555" type="line"/>
      <point x="325" y="156" type="line"/>
      <point x="124" y="555" type="line"/>
      <point x="-6" y="555" type="line"/>
      <point x="266" y="68" type="line"/>
      <point x="281" y="68" type="line"/>
    </contour>
    <contour>
      <point x="376" y="766" type="line"/>
      <point x="376" y="660" type="line"/>
      <point x="492" y="660" type="line"/>
      <point x="492" y="766" type="line"/>
    </contour>
    <contour>
      <point x="163" y="766" type="line"/>
      <point x="163" y="660" type="line"/>
      <point x="279" y="660" type="line"/>
      <point x="279" y="766" type="line"/>
    </contour>
  </outline>
</glyph>
<glyph name="Aogonek" format="1">
  <advance width="991"/>
  <unicode hex="0104"/>
  <outline>
    <contour>
      <point x="951" y="-115" type="line"/>
      <point x="908" y="-186"/>
      <point x="813" y="-188"/>
      <point x="813" y="-119" type="curve" smooth="yes"/>
      <point x="813" y="-79"/>
      <point x="832" y="-50"/>
      <point x="954" y="0" type="curve"/>
      <point x="594" y="777" type="line"/>
      <point x="380" y="777" type="line"/>
      <point x="20" y="0" type="line"/>
      <point x="158" y="0" type="line"/>
      <point x="269" y="247" type="line"/>
      <point x="704" y="247" type="line"/>
      <point x="815" y="0" type="line"/>
      <point x="863" y="0" type="line"/>
      <point x="784" y="-25"/>
      <point x="729" y="-82"/>
      <point x="729" y="-167" type="curve" smooth="yes"/>
      <point x="729" y="-294"/>
      <point x="874" y="-327"/>
      <point x="971" y="-252" type="curve"/>
    </contour>
    <contour>
      <point x="308" y="332" type="line"/>
      <point x="470" y="692" type="line"/>
      <point x="505" y="692" type="line"/>
      <point x="666" y="332" type="line"/>
    </contour>
  </outline>
</glyph>
<glyph name="Cacute" format="1">
  <advance width="984"/>
  <unicode hex="0106"/>
  <outline>
    <contour>
      <point x="728" y="1069" type="line"/>
      <point x="578" y="1069" type="line"/>
      <point x="462" y="881" type="line"/>
      <point x="529" y="881" type="line"/>
    </contour>
    <contour>
      <point x="790" y="332" type="line"/>
      <point x="790" y="332"/>
      <point x="784" y="85"/>
      <point x="503" y="85" type="curve" smooth="yes"/>
      <point x="315" y="85"/>
      <point x="197" y="217"/>
      <point x="197" y="388" type="curve" smooth="yes"/>
      <point x="197" y="560"/>
      <point x="305" y="692"/>
      <point x="493" y="692" type="curve" smooth="yes"/>
      <point x="759" y="692"/>
      <point x="769" y="429"/>
      <point x="769" y="429" type="curve"/>
      <point x="903" y="469" type="line"/>
      <point x="903" y="469"/>
      <point x="871" y="791"/>
      <point x="493" y="791" type="curve" smooth="yes"/>
      <point x="217" y="791"/>
      <point x="60" y="622"/>
      <point x="60" y="388" type="curve" smooth="yes"/>
      <point x="60" y="155"/>
      <point x="227" y="-14"/>
      <point x="503" y="-14" type="curve" smooth="yes"/>
      <point x="893" y="-14"/>
      <point x="924" y="293"/>
      <point x="924" y="293" type="curve"/>
    </contour>
  </outline>
</glyph>
<glyph name="cacute" format="1">
  <advance width="727"/>
  <unicode hex="0107"/>
  <outline>
    <contour>
      <point x="585" y="821" type="line"/>
      <point x="435" y="821" type="line"/>
      <point x="319" y="633" type="line"/>
      <point x="386" y="633" type="line"/>
    </contour>
    <contour>
      <point x="543" y="221" type="line"/>
      <point x="543" y="221"/>
      <point x="542" y="75"/>
      <point x="383" y="75" type="curve" smooth="yes"/>
      <point x="270" y="75"/>
      <point x="188" y="148"/>
      <point x="188" y="278" type="curve" smooth="yes"/>
      <point x="188" y="396"/>
      <point x="249" y="480"/>
      <point x="363" y="480" type="curve" smooth="yes"/>
      <point x="494" y="480"/>
      <point x="535" y="377"/>
      <point x="527" y="278" type="curve"/>
      <point x="651" y="314" type="line"/>
      <point x="646" y="419"/>
      <point x="590" y="569"/>
      <point x="363" y="569" type="curve" smooth="yes"/>
      <point x="173" y="569"/>
      <point x="60" y="444"/>
      <point x="60" y="278" type="curve" smooth="yes"/>
      <point x="60" y="90"/>
      <point x="206" y="-14"/>
      <point x="368" y="-14" type="curve" smooth="yes"/>
      <point x="631" y="-14"/>
      <point x="667" y="185"/>
      <point x="667" y="185" type="curve"/>
    </contour>
  </outline>
</glyph>
<glyph name="dotlessi" format="1">
  <advance width="322"/>
  <unicode hex="0131"/>
  <outline>
    <contour>
      <point x="160" y="613" type="move" name="top"/>
    </contour>
    <contour>
      <point x="101" y="0" type="line"/>
      <point x="221" y="0" type="line"/>
      <point x="221" y="555" type="line"/>
      <point x="101" y="555" type="line"/>
    </contour>
  </outline>
</glyph>
<glyph name="Nacute" format="1">
  <advance width="931"/>
  <unicode hex="0143"/>
  <outline>
    <contour>
      <point x="648" y="1069" type="line"/>
      <point x="498" y="1069" type="line"/>
      <point x="382" y="881" type="line"/>
      <point x="449" y="881" type="line"/>
    </contour>
    <contour>
      <point x="841" y="0" type="line"/>
      <point x="841" y="777" type="line"/>
      <point x="711" y="777" type="line"/>
      <point x="711" y="135" type="line"/>
      <point x="250" y="777" type="line"/>
      <point x="90" y="777" type="line"/>
      <point x="90" y="0" type="line"/>
      <point x="220" y="0" type="line"/>
      <point x="220" y="642" type="line"/>
      <point x="681" y="0" type="line"/>
    </contour>
  </outline>
</glyph>
<glyph name="nacute" format="1">
  <advance width="748"/>
  <unicode hex="0144"/>
  <outline>
    <contour>
      <point x="604" y="821" type="line"/>
      <point x="454" y="821" type="line"/>
      <point x="338" y="633" type="line"/>
      <point x="405" y="633" type="line"/>
    </contour>
    <contour>
      <point x="538" y="0" type="line"/>
      <point x="658" y="0" type="line"/>
      <point x="658" y="344" type="line" smooth="yes"/>
      <point x="658" y="484"/>
      <point x="590" y="569"/>
      <point x="425" y="569" type="curve" smooth="yes"/>
      <point x="213" y="569"/>
      <point x="199" y="390"/>
      <point x="199" y="390" type="curve"/>
      <point x="148" y="555" type="line"/>
      <point x="90" y="555" type="line"/>
      <point x="90" y="0" type="line"/>
      <point x="210" y="0" type="line"/>
      <point x="210" y="330" type="line" smooth="yes"/>
      <point x="210" y="364"/>
      <point x="230" y="480"/>
      <point x="381" y="480" type="curve" smooth="yes"/>
      <point x="481" y="480"/>
      <point x="538" y="435"/>
      <point x="538" y="342" type="curve" smooth="yes"/>
    </contour>
  </outline>
</glyph>
<glyph name="OE" format="1">
  <advance width="1477"/>
  <unicode hex="0152"/>
  <outline>
    <contour>
      <point x="58" y="387" type="curve" smooth="yes"/>
      <point x="58" y="153"/>
      <point x="236" y="-14"/>
      <point x="512" y="-14" type="curve" smooth="yes"/>
      <point x="558" y="-14"/>
      <point x="603" y="-9"/>
      <point x="643" y="0" type="curve"/>
      <point x="1376" y="0" type="line"/>
      <point x="1376" y="95" type="line"/>
      <point x="838" y="95" type="line"/>
      <point x="908" y="156"/>
      <point x="951" y="240"/>
      <point x="962" y="338" type="curve"/>
      <point x="1289" y="338" type="line"/>
      <point x="1289" y="434" type="line"/>
      <point x="962" y="434" type="line"/>
      <point x="952" y="533"/>
      <point x="908" y="620"/>
      <point x="834" y="682" type="curve"/>
      <point x="1347" y="682" type="line"/>
      <point x="1347" y="777" type="line"/>
      <point x="624" y="777" type="line"/>
      <point x="588" y="783"/>
      <point x="551" y="788"/>
      <point x="512" y="788" type="curve" smooth="yes"/>
      <point x="236" y="788"/>
      <point x="58" y="621"/>
    </contour>
    <contour>
      <point x="322" y="338" type="line"/>
      <point x="825" y="338" type="line"/>
      <point x="806" y="184"/>
      <point x="698" y="81"/>
      <point x="512" y="81" type="curve" smooth="yes"/>
      <point x="303" y="81"/>
      <point x="195" y="205"/>
      <point x="195" y="387" type="curve" smooth="yes"/>
      <point x="195" y="569"/>
      <point x="303" y="692"/>
      <point x="512" y="692" type="curve" smooth="yes"/>
      <point x="701" y="692"/>
      <point x="808" y="590"/>
      <point x="825" y="434" type="curve"/>
      <point x="322" y="434" type="line"/>
    </contour>
  </outline>
</glyph>
<glyph name="oe" format="1">
  <advance width="1027"/>
  <unicode hex="0153"/>
  <outline>
    <contour>
      <point x="659" y="613" type="move" name="top"/>
    </contour>
    <contour>
      <point x="186" y="282" type="curve" smooth="yes"/>
      <point x="186" y="353"/>
      <point x="228" y="481"/>
      <point x="368" y="481" type="curve" smooth="yes"/>
      <point x="517" y="481"/>
      <point x="529" y="336"/>
      <point x="530" y="331" type="curve"/>
      <point x="532" y="338"/>
      <point x="583" y="481"/>
      <point x="708" y="481" type="curve" smooth="yes"/>
      <point x="851" y="481"/>
      <point x="853" y="332"/>
      <point x="853" y="332" type="curve"/>
      <point x="530" y="312" type="line"/>
      <point x="530" y="264" type="line"/>
      <point x="952" y="264" type="line"/>
      <point x="952" y="264"/>
      <point x="957" y="302"/>
      <point x="957" y="332" type="curve" smooth="yes"/>
      <point x="957" y="455"/>
      <point x="867" y="578"/>
      <point x="731" y="578" type="curve" smooth="yes"/>
      <point x="577" y="578"/>
      <point x="532" y="442"/>
      <point x="530" y="435" type="curve"/>
      <point x="529" y="442"/>
      <point x="501" y="578"/>
      <point x="332" y="578" type="curve" smooth="yes"/>
      <point x="158" y="578"/>
      <point x="58" y="428"/>
      <point x="58" y="282" type="curve" smooth="yes"/>
      <point x="58" y="144"/>
      <point x="142" y="-14"/>
      <point x="334" y="-14" type="curve" smooth="yes"/>
      <point x="492" y="-14"/>
      <point x="530" y="118"/>
      <point x="530" y="118" type="curve"/>
      <point x="530" y="118"/>
      <point x="584" y="-14"/>
      <point x="729" y="-14" type="curve" smooth="yes"/>
      <point x="905" y="-14"/>
      <point x="959" y="126"/>
      <point x="966" y="215" type="curve"/>
      <point x="852" y="215" type="line"/>
      <point x="844" y="131"/>
      <point x="785" y="81"/>
      <point x="705" y="81" type="curve" smooth="yes"/>
      <point x="579" y="81"/>
      <point x="530" y="208"/>
      <point x="530" y="208" type="curve"/>
      <point x="530" y="208"/>
      <point x="512" y="81"/>
      <point x="368" y="81" type="curve" smooth="yes"/>
      <point x="251" y="81"/>
      <point x="186" y="169"/>
    </contour>
  </outline>
</glyph>
<glyph name="sacute" format="1">
  <advance width="647"/>
  <unicode hex="015B"/>
  <outline>
    <contour>
      <point x="527" y="821" type="line"/>
      <point x="377" y="821" type="line"/>
      <point x="261" y="633" type="line"/>
      <point x="328" y="633" type="line"/>
    </contour>
    <contour>
      <point x="576" y="402" type="line"/>
      <point x="576" y="402"/>
      <point x="560" y="569"/>
      <point x="306" y="569" type="curve" smooth="yes"/>
      <point x="175" y="569"/>
      <point x="71" y="508"/>
      <point x="71" y="403" type="curve" smooth="yes"/>
      <point x="71" y="336"/>
      <point x="117" y="275"/>
      <point x="241" y="253" type="curve" smooth="yes"/>
      <point x="363" y="231" type="line" smooth="yes"/>
      <point x="451" y="215"/>
      <point x="479" y="187"/>
      <point x="479" y="150" type="curve" smooth="yes"/>
      <point x="479" y="108"/>
      <point x="436" y="75"/>
      <point x="361" y="75" type="curve" smooth="yes"/>
      <point x="146" y="75"/>
      <point x="164" y="221"/>
      <point x="164" y="221" type="curve"/>
      <point x="40" y="185" type="line"/>
      <point x="40" y="185"/>
      <point x="69" y="-14"/>
      <point x="360" y="-14" type="curve" smooth="yes"/>
      <point x="497" y="-14"/>
      <point x="607" y="53"/>
      <point x="607" y="160" type="curve" smooth="yes"/>
      <point x="607" y="233"/>
      <point x="561" y="292"/>
      <point x="437" y="314" type="curve" smooth="yes"/>
      <point x="301" y="338" type="line" smooth="yes"/>
      <point x="225" y="351"/>
      <point x="189" y="377"/>
      <point x="189" y="409" type="curve" smooth="yes"/>
      <point x="189" y="449"/>
      <point x="223" y="480"/>
      <point x="304" y="480" type="curve" smooth="yes"/>
      <point x="464" y="480"/>
      <point x="452" y="366"/>
      <point x="452" y="366" type="curve"/>
    </contour>
  </outline>
</glyph>
<glyph name="Ydieresis" format="1">
  <advance width="876"/>
  <unicode hex="0178"/>
  <outline>
    <contour>
      <point x="861" y="777" type="line"/>
      <point x="710" y="777" type="line"/>
      <point x="438" y="410" type="line"/>
      <point x="166" y="777" type="line"/>
      <point x="14" y="777" type="line"/>
      <point x="374" y="332" type="line"/>
      <point x="374" y="0" type="line"/>
      <point x="501" y="0" type="line"/>
      <point x="501" y="332" type="line"/>
    </contour>
    <contour>
      <point x="254" y="999" type="line"/>
      <point x="254" y="883" type="line"/>
      <point x="380" y="883" type="line"/>
      <point x="380" y="999" type="line"/>
    </contour>
    <contour>
      <point x="497" y="999" type="line"/>
      <point x="497" y="883" type="line"/>
      <point x="623" y="883" type="line"/>
      <point x="623" y="999" type="line"/>
    </contour>
  </outline>
</glyph>
<glyph name="Zacute" format="1">
  <advance width="743"/>
  <unicode hex="0179"/>
  <outline>
    <contour>
      <point x="598" y="1069" type="line"/>
      <point x="448" y="1069" type="line"/>
      <point x="332" y="881" type="line"/>
      <point x="399" y="881" type="line"/>
    </contour>
    <contour>
      <point x="723" y="0" type="line"/>
      <point x="723" y="85" type="line"/>
      <point x="185" y="85" type="line"/>
      <point x="723" y="682" type="line"/>
      <point x="723" y="777" type="line"/>
      <point x="20" y="777" type="line"/>
      <point x="20" y="692" type="line"/>
      <point x="558" y="692" type="line"/>
      <point x="20" y="95" type="line"/>
      <point x="20" y="0" type="line"/>
    </contour>
  </outline>
</glyph>
<glyph name="zdotaccent" format="1">
  <advance width="610"/>
  <unicode hex="017C"/>
  <outline>
    <contour>
      <point x="245" y="777" type="line"/>
      <point x="245" y="681" type="line"/>
      <point x="365" y="681" type="line"/>
      <point x="365" y="777" type="line"/>
    </contour>
    <contour>
      <point x="40" y="85" type="line"/>
      <point x="40" y="0" type="line"/>
      <point x="570" y="0" type="line"/>
      <point x="570" y="75" type="line"/>
      <point x="195" y="75" type="line"/>
      <point x="570" y="470" type="line"/>
      <point x="570" y="555" type="line"/>
      <point x="40" y="555" type="line"/>
      <point x="40" y="480" type="line"/>
      <point x="420" y="480" type="line"/>
    </contour>
  </outline>
</glyph>
<glyph name="circumflex" format="1">
  <advance width="1204"/>
  <unicode hex="02C6"/>
  <outline>
    <contour>
      <point x="601" y="613" type="move" name="_top"/>
    </contour>
    <contour>
      <point x="594" y="788" type="line"/>
      <point x="399" y="670" type="line"/>
      <point x="416" y="620" type="line"/>
      <point x="594" y="680" type="line"/>
      <point x="772" y="620" type="line"/>
      <point x="789" y="670" type="line"/>
    </contour>
  </outline>
</glyph>
<glyph name="ring" format="1">
  <advance width="1204"/>
  <unicode hex="02DA"/>
  <outline>
    <contour>
      <point x="601" y="613" type="move" name="_top"/>
    </contour>
    <contour>
      <point x="489" y="718" type="curve" smooth="yes"/>
      <point x="489" y="659"/>
      <point x="539" y="609"/>
      <point x="598" y="609" type="curve" smooth="yes"/>
      <point x="658" y="609"/>
      <point x="709" y="659"/>
      <point x="709" y="718" type="curve" smooth="yes"/>
      <point x="709" y="782"/>
      <point x="661" y="829"/>
      <point x="598" y="829" type="curve" smooth="yes"/>
      <point x="538" y="829"/>
      <point x="489" y="778"/>
    </contour>
    <contour>
      <point x="550" y="719" type="curve" smooth="yes"/>
      <point x="550" y="747"/>
      <point x="571" y="768"/>
      <point x="599" y="768" type="curve" smooth="yes"/>
      <point x="627" y="768"/>
      <point x="648" y="744"/>
      <point x="648" y="719" type="curve" smooth="yes"/>
      <point x="648" y="693"/>
      <point x="627" y="670"/>
      <point x="599" y="670" type="curve" smooth="yes"/>
      <point x="571" y="670"/>
      <point x="550" y="691"/>
    </contour>
  </outline>
</glyph>
<glyph name="tilde" format="1">
  <advance width="1204"/>
  <unicode hex="02DC"/>
  <outline>
    <contour>
      <point x="601" y="613" type="move" name="_top"/>
    </contour>
    <contour>
      <point x="681" y="712" type="curve" smooth="yes"/>
      <point x="610" y="712"/>
      <point x="593" y="767"/>
      <point x="525" y="767" type="curve"/>
      <point x="442" y="767"/>
      <point x="409" y="691"/>
      <point x="409" y="691" type="curve"/>
      <point x="426" y="638" type="line"/>
      <point x="426" y="638"/>
      <point x="453" y="682"/>
      <point x="521" y="682" type="curve"/>
      <point x="591" y="682"/>
      <point x="609" y="635"/>
      <point x="686" y="635" type="curve" smooth="yes"/>
      <point x="767" y="635"/>
      <point x="795" y="708"/>
      <point x="795" y="708" type="curve"/>
      <point x="777" y="761" type="line"/>
      <point x="777" y="761"/>
      <point x="751" y="712"/>
    </contour>
  </outline>
</glyph>
<glyph name="uni037E" format="1">
  <advance width="310"/>
  <unicode hex="037E"/>
  <outline>
    <contour>
      <point x="90" y="410" type="line"/>
      <point x="220" y="410" type="line"/>
      <point x="220" y="555" type="line"/>
      <point x="90" y="555" type="line"/>
    </contour>
    <contour>
      <point x="220" y="145" type="line"/>
      <point x="90" y="145" type="line"/>
      <point x="90" y="0" type="line"/>
      <point x="161" y="0" type="line"/>
      <point x="141" y="-97"/>
      <point x="52" y="-150"/>
      <point x="52" y="-150" type="curve"/>
      <point x="140" y="-176" type="line"/>
      <point x="140" y="-176"/>
      <point x="220" y="-98"/>
      <point x="220" y="25" type="curve"/>
    </contour>
  </outline>
</glyph>
<glyph name="dieresistonos" format="1">
  <advance width="548"/>
  <unicode hex="0385"/>
  <outline>
    <contour>
      <point x="296" y="821" type="line"/>
      <point x="180" y="633" type="line"/>
      <point x="247" y="633" type="line"/>
      <point x="446" y="821" type="line"/>
    </contour>
    <contour>
      <point x="19" y="633" type="line"/>
      <point x="139" y="633" type="line"/>
      <point x="139" y="729" type="line"/>
      <point x="19" y="729" type="line"/>
    </contour>
    <contour>
      <point x="409" y="633" type="line"/>
      <point x="529" y="633" type="line"/>
      <point x="529" y="729" type="line"/>
      <point x="409" y="729" type="line"/>
    </contour>
    <contour>
      <point x="179" y="613" type="move" name="_top"/>
    </contour>
  </outline>
</glyph>
<glyph name="Eta" format="1">
  <advance width="930"/>
  <unicode hex="0397"/>
  <outline>
    <contour>
      <point x="710" y="0" type="line"/>
      <point x="840" y="0" type="line"/>
      <point x="840" y="777" type="line"/>
      <point x="710" y="777" type="line"/>
      <point x="710" y="432" type="line"/>
      <point x="220" y="432" type="line"/>
      <point x="220" y="777" type="line"/>
      <point x="90" y="777" type="line"/>
      <point x="90" y="0" type="line"/>
      <point x="220" y="0" type="line"/>
      <point x="220" y="347" type="line"/>
      <point x="710" y="347" type="line"/>
    </contour>
  </outline>
</glyph>
<glyph name="Theta" format="1">
  <advance width="1027"/>
  <unicode hex="0398"/>
  <outline>
    <contour>
      <point x="967" y="388" type="curve"/>
      <point x="967" y="622"/>
      <point x="789" y="791"/>
      <point x="513" y="791" type="curve" smooth="yes"/>
      <point x="237" y="791"/>
      <point x="60" y="622"/>
      <point x="60" y="388" type="curve" smooth="yes"/>
      <point x="60" y="155"/>
      <point x="237" y="-14"/>
      <point x="513" y="-14" type="curve" smooth="yes"/>
      <point x="789" y="-14"/>
      <point x="967" y="155"/>
    </contour>
    <contour>
      <point x="513" y="692" type="curve" smooth="yes"/>
      <point x="685" y="692"/>
      <point x="807" y="582"/>
      <point x="827" y="432" type="curve"/>
      <point x="200" y="432" type="line"/>
      <point x="220" y="582"/>
      <point x="341" y="692"/>
    </contour>
    <contour>
      <point x="513" y="85" type="curve" smooth="yes"/>
      <point x="340" y="85"/>
      <point x="218" y="196"/>
      <point x="200" y="347" type="curve"/>
      <point x="827" y="347" type="line"/>
      <point x="809" y="196"/>
      <point x="687" y="85"/>
    </contour>
  </outline>
</glyph>
<glyph name="Kappa" format="1">
  <advance width="862"/>
  <unicode hex="039A"/>
  <outline>
    <contour>
      <point x="692" y="0" type="line"/>
      <point x="842" y="0" type="line"/>
      <point x="432" y="467" type="line"/>
      <point x="782" y="777" type="line"/>
      <point x="622" y="777" type="line"/>
      <point x="220" y="409" type="line"/>
      <point x="220" y="777" type="line"/>
      <point x="90" y="777" type="line"/>
      <point x="90" y="0" type="line"/>
      <point x="220" y="0" type="line"/>
      <point x="220" y="280" type="line"/>
      <point x="347" y="393" type="line"/>
    </contour>
  </outline>
</glyph>
<glyph name="Xi" format="1">
  <advance width="895"/>
  <unicode hex="039E"/>
  <outline>
    <contour>
      <point x="855" y="0" type="line"/>
      <point x="855" y="85" type="line"/>
      <point x="510" y="85" type="line"/>
      <point x="510" y="347" type="line"/>
      <point x="798" y="347" type="line"/>
      <point x="798" y="432" type="line"/>
      <point x="510" y="432" type="line"/>
      <point x="510" y="692" type="line"/>
      <point x="826" y="692" type="line"/>
      <point x="826" y="777" type="line"/>
      <point x="69" y="777" type="line"/>
      <point x="69" y="692" type="line"/>
      <point x="380" y="692" type="line"/>
      <point x="380" y="432" type="line"/>
      <point x="97" y="432" type="line"/>
      <point x="97" y="347" type="line"/>
      <point x="380" y="347" type="line"/>
      <point x="380" y="85" type="line"/>
      <point x="40" y="85" type="line"/>
      <point x="40" y="0" type="line"/>
    </contour>
  </outline>
</glyph>
<glyph name="Omicron" format="1">
  <advance width="1027"/>
  <unicode hex="039F"/>
  <outline>
    <contour>
      <point x="967" y="388" type="curve"/>
      <point x="967" y="622"/>
      <point x="789" y="791"/>
      <point x="513" y="791" type="curve" smooth="yes"/>
      <point x="237" y="791"/>
      <point x="60" y="622"/>
      <point x="60" y="388" type="curve" smooth="yes"/>
      <point x="60" y="155"/>
      <point x="237" y="-14"/>
      <point x="513" y="-14" type="curve" smooth="yes"/>
      <point x="789" y="-14"/>
      <point x="967" y="155"/>
    </contour>
    <contour>
      <point x="830" y="388" type="curve"/>
      <point x="830" y="217"/>
      <point x="702" y="85"/>
      <point x="513" y="85" type="curve" smooth="yes"/>
      <point x="325" y="85"/>
      <point x="197" y="217"/>
      <point x="197" y="388" type="curve" smooth="yes"/>
      <point x="197" y="560"/>
      <point x="325" y="692"/>
      <point x="513" y="692" type="curve" smooth="yes"/>
      <point x="702" y="692"/>
      <point x="830" y="560"/>
    </contour>
  </outline>
</glyph>
<glyph name="Rho" format="1">
  <advance width="789"/>
  <unicode hex="03A1"/>
  <outline>
    <contour>
      <point x="90" y="777" type="line"/>
      <point x="90" y="0" type="line"/>
      <point x="220" y="0" type="line"/>
      <point x="220" y="356" type="line"/>
      <point x="420" y="356" type="line" smooth="yes"/>
      <point x="660" y="356"/>
      <point x="769" y="424"/>
      <point x="769" y="567" type="curve" smooth="yes"/>
      <point x="769" y="710"/>
      <point x="660" y="777"/>
      <point x="420" y="777" type="curve" smooth="yes"/>
    </contour>
    <contour>
      <point x="220" y="441" type="line"/>
      <point x="220" y="692" type="line"/>
      <point x="420" y="692" type="line" smooth="yes"/>
      <point x="540" y="692"/>
      <point x="632" y="667"/>
      <point x="632" y="567" type="curve" smooth="yes"/>
      <point x="632" y="467"/>
      <point x="540" y="441"/>
      <point x="420" y="441" type="curve" smooth="yes"/>
    </contour>
  </outline>
</glyph>
<glyph name="Sigma" format="1">
  <advance width="833"/>
  <unicode hex="03A3"/>
  <outline>
    <contour>
      <point x="753" y="777" type="line"/>
      <point x="90" y="777" type="line"/>
      <point x="90" y="665" type="line"/>
      <point x="456" y="389" type="line"/>
      <point x="90" y="95" type="line"/>
      <point x="90" y="0" type="line"/>
      <point x="773" y="0" type="line"/>
      <point x="773" y="85" type="line"/>
      <point x="235" y="85" type="line"/>
      <point x="590" y="363" type="line"/>
      <point x="590" y="425" type="line"/>
      <point x="230" y="692" type="line"/>
      <point x="753" y="692" type="line"/>
    </contour>
  </outline>
</glyph>
<glyph name="Tau" format="1">
  <advance width="787"/>
  <unicode hex="03A4"/>
  <outline>
    <contour>
      <point x="0" y="692" type="line"/>
      <point x="330" y="692" type="line"/>
      <point x="330" y="0" type="line"/>
      <point x="457" y="0" type="line"/>
      <point x="457" y="692" type="line"/>
      <point x="787" y="692" type="line"/>
      <point x="787" y="777" type="line"/>
      <point x="0" y="777" type="line"/>
    </contour>
  </outline>
</glyph>
<glyph name="Upsilon" format="1">
  <advance width="852"/>
  <unicode hex="03A5"/>
  <outline>
    <contour>
      <point x="361" y="377" type="line"/>
      <point x="361" y="0" type="line"/>
      <point x="491" y="0" type="line"/>
      <point x="491" y="377" type="line"/>
      <point x="842" y="777" type="line"/>
      <point x="692" y="777" type="line"/>
      <point x="426" y="474" type="line"/>
      <point x="160" y="777" type="line"/>
      <point x="10" y="777" type="line"/>
    </contour>
  </outline>
</glyph>
<glyph name="Phi" format="1">
  <advance width="1067"/>
  <unicode hex="03A6"/>
  <outline>
    <contour>
      <point x="465" y="777" type="line"/>
      <point x="465" y="719" type="line"/>
      <point x="222" y="703"/>
      <point x="40" y="602"/>
      <point x="40" y="388" type="curve" smooth="yes"/>
      <point x="40" y="175"/>
      <point x="222" y="74"/>
      <point x="465" y="58" type="curve"/>
      <point x="465" y="0" type="line"/>
      <point x="595" y="0" type="line"/>
      <point x="595" y="58" type="line"/>
      <point x="841" y="72"/>
      <point x="1027" y="173"/>
      <point x="1027" y="388" type="curve" smooth="yes"/>
      <point x="1027" y="604"/>
      <point x="841" y="705"/>
      <point x="595" y="719" type="curve"/>
      <point x="595" y="777" type="line"/>
    </contour>
    <contour>
      <point x="890" y="388" type="curve" smooth="yes"/>
      <point x="890" y="227"/>
      <point x="757" y="152"/>
      <point x="595" y="138" type="curve"/>
      <point x="595" y="639" type="line"/>
      <point x="757" y="625"/>
      <point x="890" y="550"/>
    </contour>
    <contour>
      <point x="177" y="388" type="curve" smooth="yes"/>
      <point x="177" y="548"/>
      <point x="306" y="623"/>
      <point x="465" y="639" type="curve"/>
      <point x="465" y="138" type="line"/>
      <point x="306" y="154"/>
      <point x="177" y="229"/>
    </contour>
  </outline>
</glyph>
